/* XPM */
static char *result[] = {
/* columns rows colors chars-per-pixel */
"64 64 216 2 ",
"   c #3E081B",
".  c #450A1E",
"X  c #4D0B23",
"o  c #540C25",
"O  c #590C27",
"+  c #5C0D2A",
"@  c #520E28",
"#  c #59122F",
"$  c #640E2D",
"%  c #6C0E2E",
"&  c #6C0F31",
"*  c #770F33",
"=  c #6B1234",
"-  c #681538",
";  c #741134",
":  c #7C1136",
">  c #7D133A",
",  c #72163C",
"<  c #7B1A44",
"1  c #800F37",
"2  c #82133C",
"3  c #8B133E",
"4  c #93123E",
"5  c #8C1541",
"6  c #831A45",
"7  c #8C1846",
"8  c #8D1B4A",
"9  c #941543",
"0  c #9B1444",
"q  c #9D1748",
"w  c #931B4C",
"e  c #9D194B",
"r  c #8E1F54",
"t  c #951E54",
"y  c #9C1E52",
"u  c #A31445",
"i  c #A91447",
"p  c #A3164A",
"a  c #AB1649",
"s  c #A3194D",
"d  c #AC194E",
"f  c #B3164C",
"g  c #B9164E",
"h  c #B2194E",
"j  c #A41C52",
"k  c #AC1C53",
"l  c #AF1F59",
"z  c #BD1650",
"x  c #B31B54",
"c  c #BB1B55",
"v  c #B31E59",
"b  c #BC1E5A",
"n  c #9D2156",
"m  c #9D235A",
"M  c #942459",
"N  c #AC2057",
"B  c #A4225A",
"V  c #AB225C",
"C  c #A12056",
"Z  c #B4215C",
"A  c #BB215D",
"S  c #B42057",
"D  c #8D2B62",
"F  c #922B63",
"G  c #9C2A64",
"H  c #982F69",
"J  c #9E3370",
"K  c #9A306C",
"L  c #AC2661",
"P  c #A32963",
"I  c #AB2965",
"U  c #AD2C69",
"Y  c #A42A64",
"T  c #B42563",
"R  c #BC2463",
"E  c #B42966",
"W  c #BE2768",
"Q  c #B32B6A",
"!  c #BB2A6B",
"~  c #B82866",
"^  c #BC2E71",
"/  c #B02F70",
"(  c #A33372",
")  c #AB3373",
"_  c #AF387B",
"`  c #B43274",
"'  c #BA3175",
"]  c #B3367A",
"[  c #BD357B",
"{  c #B5387E",
"}  c #A9316F",
"|  c #C21752",
" . c #C31A56",
".. c #CB1856",
"X. c #C31D5B",
"o. c #CB1D5C",
"O. c #C81754",
"+. c #D31B5C",
"@. c #DB1A5D",
"#. c #E21A5F",
"$. c #C4215E",
"%. c #CB215F",
"&. c #D0205F",
"*. c #CD1F60",
"=. c #C71F62",
"-. c #D31E61",
";. c #DB1E62",
":. c #E41D63",
">. c #EB1D64",
",. c #ED1F69",
"<. c #F31D66",
"1. c #F51E6B",
"2. c #F91E6C",
"3. c #F31F71",
"4. c #C42464",
"5. c #CC2364",
"6. c #C52867",
"7. c #C22768",
"8. c #CB2769",
"9. c #C42A6C",
"0. c #CB2A6C",
"q. c #D32264",
"w. c #DB2165",
"e. c #D5256A",
"r. c #DB246A",
"t. c #D3296D",
"y. c #DB296D",
"u. c #C42D71",
"i. c #CC2D72",
"p. c #CF247F",
"a. c #DC2374",
"s. c #D42D74",
"d. c #DB2D74",
"f. c #D4237D",
"g. c #DD237A",
"h. c #D62F79",
"j. c #DC2D7A",
"k. c #D42473",
"l. c #C33176",
"z. c #CC3176",
"x. c #C4357C",
"c. c #CC357C",
"v. c #C7387E",
"b. c #D33076",
"n. c #DD3077",
"m. c #D4347C",
"M. c #DC327C",
"N. c #D2387F",
"B. c #DE387F",
"V. c #E12167",
"C. c #E3246B",
"Z. c #EB236C",
"A. c #E3286E",
"S. c #E9286F",
"D. c #F4226D",
"F. c #FA216E",
"G. c #E42275",
"H. c #EB2274",
"J. c #E32B74",
"K. c #EB2A73",
"L. c #E32479",
"P. c #E42D7B",
"I. c #EB2D7B",
"U. c #EC2778",
"Y. c #F32372",
"T. c #F92371",
"R. c #F32A75",
"E. c #F42C79",
"W. c #FA2B79",
"Q. c #F92976",
"!. c #E3327C",
"~. c #EA317B",
"^. c #E53077",
"/. c #F3317D",
"(. c #F9307E",
"). c #BE3B83",
"_. c #CC2581",
"`. c #C22F88",
"'. c #C92D86",
"]. c #D42B82",
"[. c #C73780",
"{. c #CD3682",
"}. c #C43A83",
"|. c #CC3A84",
" X c #C43189",
".X c #CB3288",
"XX c #C63E8B",
"oX c #CD3E8B",
"OX c #D43582",
"+X c #DB3582",
"@X c #D43A84",
"#X c #DB3A85",
"$X c #D33E8B",
"%X c #DB3E8B",
"&X c #E32D81",
"*X c #E92E80",
"=X c #E43482",
"-X c #EC3582",
";X c #E43A84",
":X c #EB3A85",
">X c #E43D8B",
",X c #EB3D8B",
"<X c #F33582",
"1X c #FA3684",
"2X c #F33986",
"3X c #F33D8B",
"4X c #FB3C8A",
"5X c #F83987",
"6X c #C7418E",
"7X c #CB418E",
"8X c #D4418E",
"9X c #DB418E",
"0X c #E3418F",
"qX c #EB418F",
"wX c #F4418E",
"eX c #FA418E",
/* pixels */
"8X0X,XqX0X9X$XoXoXoX>XoX}.|.oX$X$X$X8X$X%X0X:XqXqX9X7X7X7X7X6X6X7X6X6X8X0X0XqXwXqXqX0X0XqX0X9X9X8X8X9X9XqXwXwXeXqX7X9X9X7X6X6X7X",
"8XqXeXwXqX0X9X8X7X7X>X7X7XoX7X8X9X$X8X8X8X0X0X0X9X7X7X7X7X6X7X8X7X6X7X8X9X0XqXqXqX0X0XqX0X0X9X9X9X9X9XqXwXeXwXwXwX9X9X9X7X7X7X7X",
"8XqXeXeXeX:XqX9X9X8X0X7X7X7X7X$X8X8X8X8X8X9X9X9X8X7X7X7X6X7X8X9X7X6X7X8X9X0X0XqX0X0X0X0X0X0X9X9X9X9X9XqXeXeXwXwXwXwXwXqX9X8X7X7X",
"8XqXeXeXeXeXeXqX0X0X9X7X7X7X7X8X9X8X9X8X8X9X9X8X7X7X7X7X7X8X8X9X8X6X6X8X8X9X0X9X0X9X9X0X0X9X9X9X9X9X0XqXwXeXwXeXeXeXqXwXqXqXqX0X",
"9X0X0XqX,XqX3X2X2XqX8X7X7X7X7X7X8X9X8X8X8X8X8X8X8X7X7X8X8X9X9X9X7X6X7X8X7X8X9X9X8X8X#X9X0X9X9X9X0X9X0XwXwX5XeXeXwX9X7X8X8X8X8X8X",
"6X6XoX7X$X$X$X0XwX:X@X7X7X7X7X8X8X9X8X8X8X7X8X8X7X7X7X7X8X8X8X8X7X6X7X7X7X7X8X8X8X8X8X9X9X9X#X9X9X9X9XqXwXeXeXwX0X7X7X7X7X6X7X6X",
"oX7XoX7X7XoXoX@X#X#X@X#X@X8X|.7X8X8X8X8X8X8X8X8X7X7X7X7X7X7X7X7X7X6X7XoXoX7X7X8X7X8X8X8X@X8X$X9X9X9X9XqXwXwXqX0X8Xv.7X7X7X7X7X7X",
"oXoXoXoXoXoX@X@X8X@X#X@XN.@X|.7X@X8X8X8X9X9X9X9X8X8X8X8X8X7X|.7XXXXX7XoXoX7X8X7X|.7XN.7XN.7X7X$X8X8XB.0X;X0X;X8X7X7XN.7X7XN.7X7X",
"8X|.8X7X7XN.8XN.N.@X@XN.N.N.N.@X8X7X@X$X0X,X0XB.8X8XN.9X9X9X@X7X|.oXoXoXoXoXoXoX|.oX|.|.|.|.oXoXoX$X%X%X%X%X%XoX8XN.|.7X7XN.7X7X",
"N.7X|.|.@X8XN.8X@XN.N.N.N.N.m.N.N.8X8X>X>X>XwX0XB.B.0X0X0X!.9X8X|.oX|.oX$X@X|.|.|.}.}.}.|.}.}.|.|.$X@X%X%X$X@X@X@X8X7X|.N.7X7XN.",
"7XN.8X|.8XN.8XN.N.N.N.N.c.N.M.N.m.N.9X0X;X:X>X!.!.9X:XwX:X;X;X@X@X|.N.}.|.@X|.|.@X|.|.}.v.}.}.|.|.|.@X@X%X@X$X$X|.7Xv.7XN.7XN.7X",
"|.|.|.N.7XN.N.v.N.N.c.c.c.m.m.m.N.m.^.!.;X;X!.0X@X@X0X/.wX:X;X;XB.m.|.v.N.{.|.OXN.OX@XN.|.v.{.|.|.|.@X%X@X@X@X@XN.v.v.|.v.v.v.N.",
"N.|.@X@X@XN.N.N.N.v.c.c.m.m.m.m.m.M.~.^.!.B.N.v.v.}.N.;X;X:X-X-X!.m.N.x.N.v.c.OXm.;X+Xc.{.c.|.c.N.OXOX#X@X#X#X@Xv.v.x.v.v.v.v.N.",
"N.N.N.N.N.c.v.N.v.z.c.m.m.M.B.m.m.M.~.~.^.N.v.v.x.[ [ v.OX;X2X-XB.N.c.x.c.c.c.c.N.m.c.c.{.c.c.N.N.m.+X+X#X+Xm.N.x.x.[ [ [ x.v.v.",
"c.N.N.N.c.N.c.v.z.z.m.m.n.m.m.N.m.^.~.^.~.n.m.x.[ ' ` [ x.OX;X~.M.z.l.l.l.l.l.c.b.N.c.c.m.m.m.m.m.+X=X+X#X+XB.N.l.l.x.l.l.x.c.c.",
"m.N.m.m.N.c.z.z.z.z.b.m.b.M.b.M.N.^.^.^.n.d.s.u.' / ) / ' l.c.c.l.u.l.! ! ` u.l.c.b.h.m.M.M.M.=X~.~.+XOXOXN.!.n.c.c.z.z.l.l.z.c.",
"b.m.m.m.b.m.z.z.z.b.b.c.h.m.h.M.M.j.n.0.0.0.0.6.~ Q U U ' ^ u.! U U ^ Q Q U ! ^ i.b.M.M.!.!.!.!.=X~.+XOXOX!.!.b.z.z.z.z.z.z.z.z.",
"b.b.n.M.b.b.b.z.b.b.b.c.{.m.m.j.!.d.0.6.0.0.t.t.4.T E E 9.9.W L B V ~ E B m I E i.s.J.^.!.!.~.~.~.~.&X+XM.~.M.b.i.i.z.z.0.z.z.b.",
"b.b.n.n.n.n.b.b.s.M.j.m.h.+X].=XP.n.0.0.5.t.t.&.4.$.R 7.0.8.4.V m V ~ B M r m E i.d.I.I.P.I.E.E.E.I.E.I.~.K.d.t.t.i.0.0.0.i.b.t.",
"y.n.d.J.J.J.s.s.n.j.M.!.+X].+X!.P.k.6.0.8.t.q.t.4.4.o.=.q.5.4.v N A V 8 < < 8 N 4.J.K.E.I.E.E.R.K.K.R.E.K.^.A.y.0.6.6.0.0.0.0.s.",
"y.J.J.J.^.^.d.b.j.M.!.~.I.!.!.I.J.0.0.0.q.t.w.q.5.-.=.X.o.X.x p j N w , - - 6 C 4.A.H.R.R.R.Z.S.A.S.S.S.S.S.A.y.0.6.6.6.6.0.0.t.",
"y.J.K.E.E.^.j.b.j.M.P.~.~.E.I.J.t.6.$.5.q.e.e.w.-.=.b v d s 0 3 2 > - # # - 7 N *.C.D.D.Z.H.C.r.e.e.e.A.A.A.A.y.0.%.6.%.4.6.%.t.",
"y.S.E.E.E.I.d.h.j.^.^.I.I.J.a.t.0.$.4.5.5.q.q.w.-.=.l p 9 2 * $ $ + @ @ + ; q  .&.Z.Z.Z.C.:.a.;.w.q.q.e.r.A.C.A.w.q.&.8.5.5.q.t.",
"A.R.E.~.E.J.d.s.d.P.J.J.J.t.9.8.4.4.5.8.q.e.e.q.-.=.s 5 * + . . @ o @ + = 4 c @.,.,.V.Z.G.:.:.;.q.&.q.r.C.Z.D.D.S.y.w.t.&.&.&.y.",
"A.R.E.E.Q.d.i.k.s.J.J.J.e.6.~ T A 5.5.e.r.w.e.q.-.X.q > $ .   . o $ % 1 0 | #.Z.,.:.;.:.G.:.:.;.-.-.;.C.D.F.F.T.D.Z.C.V.&.&.&.A.",
"R.Q.Q.Q.J.t.8.0.d.A.A.r.6.T P t m N S A A $.o.*.o.x 9 & O X . $ 1 4 u g ..#.<.F.,.@.@.;.:.:.:.;.o.-.;.Z.F.T.T.T.F.D.D.Z.Z.S.S.Z.",
"Q.I.I.Q.a.8.8.t.y.A.A.r.7.V n r w j j j j j k k d q : $ o O $ 4 | @.>.,.<.1.F.2.>.+.O.@.;.:.@...z o.:.F.H.H.Y.T.F.F.F.T.F.F.F.Q.",
"L.P.].Q.C.8.4.e.H.K.S.r.R B t M e j j j s s p p q 2 $ o o + : i >.D.Z.H.3.T.2.2.@.| | ..@.@.+.z g ..:.1.G.L.H.2.F.D.D.S.K.R.R.K.",
"&Xg.L.Q.r.4.=.k.S.Y.R.r.4.V n e y N h x k k s q 5 ; + o O & 4 O.<.G.g.G.G.2.<.@.| i f O.#.@.O.g g +.>.1.a.a.3.2.F.H.L.g.g.g.L.P.",
"U.U.T.C.4.=.8.r.S.R.D.C.4.A N s j A $.$.$.c d q 2 & + O % 4 g >.3.g.g.g.3.<.@.z u 0 i O.#.:.@.| O.:.2.H.G.G.1.<.1.U.g.].].].g.L.",
"T.1.;.=.b b 5.C.D.T.Y.S.&.b k w s $.$.$.b x d 9 : & $ ; 9 | #.1.G.G.H.3.<.#.| i 4 4 f @.<.2.<.:.:.2.1.H.3.3.:.:.F.H.g._._._.g.U.",
"-.X.b k x b -.C.D.Y.D.C.%.x s 7 k $.A c c x p 9 2 : 1 0 ..<.3.3.G.3.2.<.#.O.f 0 4 u | >.2.G.G.2.1.G.G.g.G.2.@.+.1.T.H.g.].g.Y.D.",
"q q e e k b -.V.D.D.D.w.b k e 7 v *.=.=.X.X.c i 9 0 i O.<.H.f.g.H.2.#.@.| i u 0 u f @.<.H.f.p.G.G.g.f._.g.3.>.#.2.3.3.3.*X3.#.f ",
"< 5 9 9 p b -.C.Z.Z.C.-.b k e k *.k.-.;.r.C.;.o.z | -.<.1.G.f.g.3.#.| f i u 4 u f ..<.1.g.f._.f.G.G.G.f.g.3.<.<.3.3.3.G.3.>.x 5 ",
"5 9 q q s b -.V.Z.C.V.5.b x b b -.k.k.k.k.g.G.1.,.,.3.G.g.G.G.3.#.f 0 4 u 4 u i | :.1.3.g.f.p.g.G.3.3.G.3.2.<.2.3.H.&XG.3.,.z 9 ",
"q a x d c o.-.V.C.:.w.o.X.X.X.q.-.e.e.r.a.G.Z.D.1.2.G.f._._.g.D.@.u 4 4 4 4 u g @.<.3.G.g.g.G.3.2.2.<.2.2.<.<.2.3.H.G.3.3.>.c p ",
"x c c c o.w.C.D.Z.C.;.-.o.q.w.V.a.k.f.k.a.H.D.D.,.1.3.G.s.f.a.F.#.| g f f f | O.>.2.3.L.g.g.3.<.>.#.:.>.3.>.3.2.3.G.*X3.3.>.O.f ",
"z  .X. .o.;.,.D.Z.>.w.w.q.w.w.w.r.;.r.G.H.Z.D.F.1.>.1.2.D.D.D.F.>.@.@.@...@.@.#.2.G.g.g.H.H.3.1.<.<.:.>.>.>.>.3.3.H.3.2.3.:.-.X.",
"c c c c  .o.:.V.;.r.V.w.-.*.X.b b b b X. . .o.+.+.+.+.@.&.#.@.+...#.>.>.#.@.@.#.3.g._.g.2.>.| z ..@.#.:.>.:.#.:.2.3.2.2.>.;.;...",
"f d e i x X.*.5.-.;.V.w.%.b v k x v k d p q 9 9 3 3 9 0 u u u a f @.2.2.<.#.@.#.2.L.g.3.,.g 5 5 9 u f O.@.@.@.;.2.2.2.,.;.-.;.| ",
"9 5 5 9 p c X.X.*.q.w.5.b v l v b b c x d p 9 2 1 ; ; ; 2 3 4 u i O.<.G.H.>...X.:.3.Y.1...p 5 5 5 9 p x ..;.+.:.2.2.2.1.;.:.;.x ",
"5 6 6 5 e k b b X.-.-.=.x l v b 4.o.o.o. .c h s u 4 4 5 3 4 9 u f ..>.3.L.:.d p c :.1.-.c p 9 0 0 p d z o.;.+.;.2.2.T.2.3.3.:.h ",
"p 9 5 q s c X.b X.4.$.b v l v $.q.q.@.w.&.&.&.&.&...$.h d a d h z ;.<.2.T.c 2 6 q b *.b x x d x h x c o.-.;.| -.3.3.2.Y.T.U.H.O.",
"c k k x b =.=.=.o.4.=.A v l Z 4.5.+.5.q.;.V.:.&.&.&... .h h h c o.>.1.1.-.7 $ , 9 k v c c X.X.X...=.o.-.;.o.x b -.,.3.T.L.g.H.+.",
"b b b b =.-.e.-.q.5.4.b A Z A $.*.R R 4.q.w.w.w.&.@. .c x h f c -.Z.T.Z.$.< - , 7 y k b =.*.-.-.-.;.V.V.;.b y d b o.;.D.U.L.R.;.",
"b x b X.-.,.C.r.q.q.5.4.R A A $.o.R R R %.&.&.&.%.$.c h d h x c =.e.r.q.v 7 < 7 y s v b *.-.-.e.:.G.H.Z.;.v w s k x X.-.Z.Y.H.*.",
"k j v 4.w.S.C.C.C.e.e.4.4.4.$.o.=.b R A $. .%. .$.h S d d k l T 4.8.4.v j t 8 y j l A =.e.-.e.;.S.Y.T.T.r.k w j l v v v b X.X.v ",
"7 e k X.r.H.V.G.y.r.e.e.5.5.q.5.5.*.%.%.A $.$.A S x d d N V T T R 4.R T B t t y j T =.8.e.e.e.C.Y.T.E.T.Z.v k l b b b l l j e 7 ",
"6 w j T e.S.A.A.y.y.y.y.r.w.w.w.&.t.&.&.5.%.S S S N N N L L T ~ W 8.W R L j m y B Z 7.e.r.r.G.Y.W.I.].P.R.*.$.5.5.5.X.A l j 8 6 ",
"8 y j v 5.A.H.H.S.K.J.J.J.C.A.A.A.w.&.%.%.$.S S S S Y I I E W ! 7.u.7.7.~ L m B V W 4.e.d.A.Y.Q.I.].'.'.P.G.a.H.Y.K.G.r.4.v j t ",
"j l V T 8.A.E.W.K.K.K.K.Z.R.S.C.S.w.5.$.A S A A ~ U E Q ! ^ ! u.u.0.0.u.! ~ L L T ! 0.d.J.R.Q.*X].`.`.`.&XR.Q.W.E.E.E.T.S.e.R B ",
"W R T R e.R.W.W.K.J.J.H.S.Z.S.S.A.y.6.A A A E ^ ' ^ ^ ^ u.^ u.u.i.f.s.i.u.^ ! ! ! i.d.J.I.Q.<X+X.X`.`.`.*XK.R.E.I.I.<XQ.Y.J.8.R ",
"7.W R 7.a.E.W.E.d.s.y.A.S.S.A.A.y.t.%.A T U / ` ' ' ' l.l.l.l.l.l.h.b.m.b.c.i.i.i.s.d.I.E.W.-X.X X X X.X*XU.P.Q.E.Q.K.J.t.8.W W ",
"W 7.W u.J.E.E.J.0.! 6.t.y.y.y.y.y.e.0.9.' ` ' ^ ' [ [ l.x.l.l.c.c.M.!.!.~.~.!.!.j.M.^.I./.W.=X.X.X.X.X X&XP.s.k.s.9.9.W W ~ E W ",
"9.7.9.0.J.I.I.d.u.6.6.0.t.t.y.y.s.s.v.x.x.[ ).[ x.x.x.v.v.N.N.m.=X=X-X-X<X~.-X=XM.M.!.!.~.<X-X+X+X+X+X X+Xj.Q Q I P I I Q ~ W W ",
"u.i.i.s.d.I.^.b.9.9.9.t.t.t.y.n.b.OXOX{.{.{.[.[.v.).N.9X;X:X:X2X2X2X:X-X:X=X!.m.m.+XM.=X&X<X<X<X5X<X<X*X=Xu.Y G M F P Q ! ! u.u.",
"s.s.s.M.d.P.M.s.z.0.s.s.y.d.M.m.@X@XOX.X@X$XXX|.XXoX>X3X3X3X4XeX4X2X;X@X|.{.[.).[.{.m.m.+X-X1X1X<X&Xj.+Xl.J D D F G U Q l.u.h.h.",
"!.!.M.b.M.M.M.d.s.b.^.J.n.m.OX#XOX%X$X$X$X$X$XoXoX>X4X0X$X0XwXeX3X%X|.}.}.}.).[.[.{.{.@X+X;X:X=Xc.x.[ / K D D D H Y / u.h.+XM.P.",
"-X!.M.m.M.m.j.!.^.~./.-XOXOX@X@X@X@X#X$X$X%X%X%X>X3XwX%X7X9XwXqXoXXXXXXXXXXX).}.}.XXoX$X@X#X;X|.[.[ ) ( J F D D K ) ' c.=X<X<X<X",
"1X<X=Xm.M.!.!.&X/./.:X;XOX{.@X@X.X#X$X$X%X;X>X,X3XwXwXqX9X0XqX6X7X6X7X6XXXXXXXXXXXoX$X$X%X%X@X}.).).)._ ( J J J ) ` [ +X<X1X1X1X",
"2X1X2X+X&X=X=X<X2X=X;X;X|.x.|.@X$X$X$X$X>X>X,X3X4XwXqXqXwXwX7X6X6X7X6X6X7X7X7X8X8X9X8X8X%X9XoX6X}.).)._ ).).).J ).)..X3X5X:X,X:X",
"%X>X2X1X5X2X2X2X2X>X>X#X}.|.|.@X%X%X%X%X>X>XqXwXwXwXwXwXeXqX7X6X6X7X6X6X7X8X9XqXqX0X0X9X0X9X7X6XXXXXXX).).).).). X>X3X4X,X%X$X$X",
"$X%X,X2X,X,X>X>X>X>X>X@X}.}.|.$X%X%X$X%X>X0X,XwXeXeXwXwX0X8X7X6X7X6X6X7X9X0XqXqXqXqX0X0X0X9X8X6X6X6X6X6X6X6XXXoX,X,XwX,X%XoXoXoX",
"$X%X,X,X%X%X$X$XoX$X>XoX}.|.oX@X%X%X$X$X%X0X,XwXwXwX0X7X6X6X7X6X7X6X6X8X9X0XqXqXqXqXqX0X0X0X9X8X7X7X7X7X8X8X8XqXqXoX9X>X8XoXoXoX"
};
