/* XPM */
static char *result[] = {
/* columns rows colors chars-per-pixel */
"64 64 256 2 ",
"   c #440266",
".  c #FA0155",
"X  c #FB015A",
"o  c #F5025E",
"O  c #F9014E",
"+  c #ED046D",
"@  c #F3036A",
"#  c #F70465",
"$  c #EC0474",
"%  c #E5057B",
"&  c #EB057B",
"*  c #E60678",
"=  c #F70578",
"-  c #5C0297",
";  c #55138D",
":  c #631499",
">  c #6E0A96",
",  c #6603A8",
"<  c #6B16AA",
"1  c #7415AD",
"2  c #7506B8",
"3  c #6F0FB4",
"4  c #7623B9",
"5  c #531AAB",
"6  c #7A09C7",
"7  c #7A0EC8",
"8  c #722ACD",
"9  c #6A3DF1",
"0  c #522FC2",
"q  c #6D46F5",
"w  c #840DBA",
"e  c #B814AD",
"r  c #BD13BD",
"t  c #BA14B4",
"y  c #B111B7",
"u  c #BD0999",
"i  c #DC0A8B",
"p  c #DD0787",
"a  c #C90D9C",
"s  c #D50C95",
"d  c #DB0B93",
"f  c #D50C9C",
"g  c #DC0B9B",
"h  c #D90297",
"j  c #E40883",
"k  c #EA0883",
"l  c #E30A8C",
"z  c #EA0789",
"x  c #F50787",
"c  c #E40A93",
"v  c #EC0993",
"b  c #EC0B9D",
"n  c #E6099A",
"m  c #F5099D",
"M  c #F60894",
"N  c #CE0EA4",
"B  c #CC0EAA",
"V  c #CA05AE",
"C  c #D30DA3",
"Z  c #DB0CA4",
"A  c #D40EAB",
"S  c #DB0DAC",
"D  c #D704A5",
"F  c #C810AB",
"G  c #C403BB",
"H  c #C907B6",
"J  c #DB0EB4",
"K  c #D70CB8",
"L  c #C511B3",
"P  c #CB10B4",
"I  c #C312BB",
"U  c #CC11BC",
"Y  c #D311BC",
"T  c #DA10BD",
"R  c #D310B5",
"E  c #D911AE",
"W  c #E60BA7",
"Q  c #F60BA7",
"!  c #E40BB3",
"~  c #E30EBB",
"^  c #EC0DB7",
"/  c #F60CB8",
"(  c #E812B9",
")  c #8615CA",
"_  c #8709D7",
"`  c #881AD9",
"'  c #941DDB",
"]  c #9D1DDC",
"[  c #981AD7",
"{  c #940FCD",
"}  c #B909CC",
"|  c #A819C9",
" . c #BC13C4",
".. c #B515CD",
"X. c #BB14CB",
"o. c #B416C6",
"O. c #AB02DB",
"+. c #B909D9",
"@. c #AD16DC",
"#. c #A41CDC",
"$. c #AA1ADD",
"%. c #A817D4",
"&. c #B315D4",
"*. c #BB15D4",
"=. c #B216DB",
"-. c #BB16DB",
";. c #B419DC",
":. c #BB1BDC",
">. c #B819D4",
",. c #A70ECC",
"<. c #8621DC",
"1. c #8B21DC",
"2. c #8A23D5",
"3. c #9320DD",
"4. c #9820DC",
"5. c #8523CC",
"6. c #8B02E8",
"7. c #9808EA",
"8. c #8D1EE4",
"9. c #8D1FEB",
"0. c #941FE4",
"q. c #9B1EE3",
"w. c #941EEC",
"e. c #9B1DEB",
"r. c #9914E8",
"t. c #9902F2",
"y. c #8F1FF1",
"u. c #941EF3",
"i. c #9C1CF4",
"p. c #9B1CF9",
"a. c #9618F6",
"s. c #A908E7",
"d. c #B40AE8",
"f. c #AC17E2",
"g. c #A41DE3",
"h. c #AB1BE4",
"j. c #A41BEC",
"k. c #AB1AEC",
"l. c #A713E9",
"z. c #B316E3",
"x. c #BC15E3",
"c. c #B31BE4",
"v. c #BB19E3",
"b. c #BB16EC",
"n. c #B31BEB",
"m. c #BC1AEB",
"M. c #B114EB",
"N. c #A809F3",
"B. c #A31BF3",
"V. c #AB1BF3",
"C. c #A719F8",
"Z. c #B31AF3",
"A. c #BC19F4",
"S. c #B51BF9",
"D. c #BC1AFB",
"F. c #B814F3",
"G. c #B00DF1",
"H. c #8721E2",
"J. c #8B20E3",
"K. c #8B20E9",
"L. c #8A2BE7",
"P. c #9220E3",
"I. c #9828E9",
"U. c #8532E4",
"Y. c #973AF9",
"T. c #962FF1",
"R. c #A626EA",
"E. c #A827F4",
"W. c #B924F7",
"Q. c #A735FB",
"!. c #B42CED",
"~. c #AB2CDE",
"^. c #CB0CC8",
"/. c #D40DC7",
"(. c #C413C4",
"). c #CB12C3",
"_. c #C314CC",
"`. c #CA13CB",
"'. c #C719CB",
"]. c #D411C3",
"[. c #DB11C4",
"{. c #D412CB",
"}. c #DB12CB",
"|. c #C90CD7",
" X c #D90FD5",
".X c #C414D4",
"XX c #CB14D4",
"oX c #C415DB",
"OX c #CB14DB",
"+X c #C519D9",
"@X c #D313D4",
"#X c #DB12D4",
"$X c #DE13DA",
"%X c #D414DC",
"&X c #E70EC7",
"*X c #F70EC7",
"=X c #E510C9",
"-X c #F310CD",
";X c #E313DC",
":X c #E813D7",
">X c #F311D4",
",X c #FB10DD",
"<X c #F211DB",
"1X c #F10FD8",
"2X c #CB15E3",
"3X c #C41AE5",
"4X c #C316EB",
"5X c #CC15EB",
"6X c #C41AEB",
"7X c #CB1AEC",
"8X c #C617E4",
"9X c #D415E4",
"0X c #DC14E3",
"qX c #D415ED",
"wX c #DC15EB",
"eX c #D219EC",
"rX c #DB19ED",
"tX c #D51AE5",
"yX c #CB17F3",
"uX c #C31AF3",
"iX c #CC1AF3",
"pX c #CD17FA",
"aX c #C31AFB",
"sX c #CB19FA",
"dX c #C517F5",
"fX c #D416F4",
"gX c #DC16F2",
"hX c #D319F3",
"jX c #DC19F3",
"kX c #D219F9",
"lX c #D919FA",
"zX c #CD0EE3",
"xX c #E314E3",
"cX c #EB14E3",
"vX c #E415ED",
"bX c #EB14EC",
"nX c #E519EC",
"mX c #F413E4",
"MX c #FB11E2",
"NX c #F315ED",
"BX c #FA14EB",
"VX c #E316F3",
"CX c #EB15F2",
"ZX c #EC15FC",
"AX c #E61AF8",
"SX c #F315F3",
"DX c #FB14F3",
"FX c #F816FB",
"GX c #E60FE6",
"HX c #C826E7",
"JX c #C726FB",
"KX c #D524FC",
"LX c #CF28EF",
"PX c #E321FB",
"IX c #C620DB",
"UX c #8445F7",
/* pixels */
"d @ X $ K oXG.S.m.0X*XQ &XtXhXeXXXXX9XhX#Xd d f Y OXdXS.Z.C.B.P.3.<.q.&.B i j -XDXSXAX|.s.6._ T.Q.Q.t.O.G ~ *X*Xj N &.i.` P.h.3X",
"C $ = K uXW.S.uXhX=X= x E '.HXuXm.v.6XqXc & k W $X9XhXdXm.F.V.k.4.1.q.&.I N d =XSXDXDXW ^.s.C.Q.Q.) 6 t.M.JXZX,Xj N >.g.1.1.R.+X",
"Y v Q 9XJXJXKXKXnXx = b Y :.v.W.W.n.uXXXZ z m <XcXvXwXfXyXdXD.Z.R.H.u.j.@. ..XhXjXZXQ . v  XyXJXW.7 - 6 E.JXZXMXv A b.j.2.3.g.*.",
"`.^ / 0XjXAXNXCXM @ z S ).:.!.W.r.r.M.+.`.J &XmXmXmXCXVXfXaXZ.B.9.` K.u.B.M.Z.3X7X0Xj # # Q ;XAXJX7._ 7 E.JXPX,XW {.b.V.' 1.#.v.",
"OX:X>X<XbXSXSXQ + j Z P '.$.[ 7 ) _ t.s.oXOX%XvXZXSXvXrXaXS.i.9.K.u.K.<.9.i.k.h.m.I s l + M *X<X}.|.G.C.E.KXZXMX/ %XaXk.3.1.#.v.",
").J ^ =XxXgX}.i d C H o.| ) 1 < 3 2 _ [ l.b.2X}.^ ~ ]..Xn.B.9.8.u.j.i.w.1.1.q.R.$. .L C Z &X>X,X-X}.qXpXJXJXvX*X*X0XaXV.' 1.j.c.",
"L i p s A U P P I  .=.l.[ < : : < 3 2 _ s.b.A & j C `.b.V.0.8.u.j.o.k.B.q.2.1.0.i.g... .5XfXgXbXMX*XW /.d.N.^.Q ^ 0X.Xz.e.8.i.@.",
"I a F L I (._.*.z.M.e.0.2.< ; ; ; 1 { B.b.%Xc l E U oXk.] ' i.k.o.r b.V.$.#.3.` w.a.j.k.m.6XhXgXGXx @ z K +.|.Q / J L =.e.8.i.k.",
"o.r o...&.;.c.c.C.i.w.` <.8 : : 1 ) h.W.hX;Xc E R '.:.| [ q.k.&.t XXuXm.c.;.#.q.1.8.u.e.g.c.4XyX}.l = = x D |.&X-XS F &.i.8.u.k.",
"$.@.l.j.B.j.k.R.j.j.I.P.L.L.4 ) ) ] ;.2XVX#XA Y (.>.| 5.| f.>.X.P 9X7X2XoXoX>.@.j.0.J.w.u.B.V.D.(.C c z = M &X;X<XS B &.i.8.u.j.",
"e.i.i.I.q.] 4.#.k.k.k.R.e.8.) ) r.&.+XiXeX+X'.3Xh.%.y | $.;.'.`.].wXjXqX9XOXB (.=.C.e.J.K.I.e.V.>.I R g W >XNXCXCXS F &.i.K.8.i.",
"1.0.P.' [ | | ..c.n.n.$.%.[ { r.@.(.XX7Xm.:.c.E.j.| o...m.`.N s s T ;XxX0XJ d B .Xc.k.i.3.1.J.q.g.&. .P  XVXCXZXCXY I =.i.J.1.' ",
"3.P.g.$.&.o.o.>.-.c.&.o.y y %.@.X.Y ].3Xn.R.E.E.q.%.X.+XXXP f p a r {.:XW z n W Y OXm.n.g.P.J.K.u.i.f.x.7XqXhXgXVX/._.h.i.J.1.1.",
"g.h.z.*.X. .r >.-.>.r t e e t r `.%X3XA.E.E.i.R.j.-.XX%X].Z d a ,.f.6X@Xl v x v ! 0XyXm.c.#.q.K.K.9.p.C.S.uX7X2X9X`.*.j.w.1.3.] ",
"n.v..X_.(.I I _.m.;.| y t t L U {.@Xm.n.R.i.R.V.A.+X{.#X[.W N ..q.E.Z.+.T ! M M &XbXjXiX3X..h.e.9.8.K.e.k.Z.x.X.(. .;.e.J.3.g.k.",
"A.+X(.(.P P @X5XuXc.%.,.o.r (.Y T .Xc.q.[ I.E.E.3X@X[.:X=XK } h.I.E.q.N.4X X*XQ -XSXNXAX].P  .@.i.I.1.1.P.j.@.%.&.&.q.P.1.j.Z.A.",
"uX`.U U C }.qXyXaXZ.r.a.@.@.+X).{.:.k.P.2.' V.m.+X:X:XcXxX{..Xz.R.j.7.s.F.qXnX<XbXSXSX-Xz g H  .M.j.' <.<.I.i.j.#.[ w.3.q.V.b.uX",
"pXXXY K Z $XrX7Xb.l.a.t.r.h.:.@X`.;.R.P.J.I.v.3X%XxXcXVXVX#XXX6Xn.#.l.C.D.JXnXcXnXAX-XQ x k S Y 8Xn.#.] 1.<.u.u.0.r.0.0.k.x.4XaX",
"kX%XT ~ T }.^.*.d.r.7.[ ] h.+X`.+Xc.I.L.T.R.W.6XeX0X:XwXkX9X.XX.o.o.&.x.7XtXPXbXAXeX}.^ x o x Z Y .Xc.V.i.J.H.H.8.u.w.j.z.8XyXpX",
"lX$Xn v h A } d.l.r._ ) ] 6X@XY >.R.I.T.T.E.W.JXhX$X;XwXhXoXX.o.y &..X'.).( ( :XhX5X9X#Xh & = M W ].8XZ.k.e.K.H.9.w.e.M.x.uXyXfX",
"&Xk $ j D G =.S.i._ ) [ h.+XS N &.r.` 8 4 2.h.JXeX$X;X9X5X-...@.| =.oX`.[.! Q ^ ;XyXfX XH K Q x v xXkX5Xm.k.i.J.w.j.g.R.b.6XeXlX",
"+ $ v D H +.Z.E.w.7 P.I.:.{.W V s.r.1 < ) [ h.A.2X$X;XtXyX*.&.#.2.k.x.).Z n b Q / =XW h d S J n / SXnX9X6XZ.i.J.w.k.n.;.m.7XhX=X",
"@ k ~ H } d.E.E.` ` U.~.IX#X! (.l.8.5.4 ) I.Z.uXqX;X$XqXdX .h.e.0.B.c.P d z W &X-Xn + $ $ x Q Q >XDXNXxX7XZ.i.8.r.k.A.6XuXsX[.* ",
"$ h {.|.b.M.!.E.2.2.T.IXIXg c X.B.I.U.8 I.!.W.aXqX;X:X9XdX&.l.u.J.i.=.L K [.=XxXGXc j j j z Q *XMXDXNXVXpXA.B.w.[ h.m.7XhXY * $ ",
"h /.2Xd.s.k.W.Q.2.I.~.%.G % Z *.B.K.U.U.~.!.JXiX`.l % Z (.&.B.w.8.i.;.*.oX7XyXkX%Xd i d c c ^ :XcXCXZXvX9XD.V.q.2.@.m.7X~ $ + + ",
"^.JXG.7.[ R.R.T.5.4 > w V z K ;.I.L.U.I.~.HXLXb.G * $ i P &.B.w.J.i.C.Z.c.v.m.6X.XB B C C {.0XwXwXwXJ i d `.z.g.2.#.c.yXc @ + p ",
"iXS.t.7.P.I.I.~.1   > } D b ].W.I.L.T.~.IXHX8XO.h $ $ i P >.C.K.<.w.i.B.g.@.R.=.&.o. .I .X7XuXuXpXP s s Z Y X.l.' q.Z.dXg $ % H ",
"$XH d.W.JXW.W.k.) 2 w +.W Q eXJXE.Q.R.!.HXzX^.h $ $ i C I z.B.K.<.1.J.J.P.I.4.] j.f.f.z.c.c.v.m.-.I I L U /.I k.I.8.C.aXJ x M ^ ",
"M x >XZXnXPXrX} O.s.l.d.! >XVX7XW.W.W.HX@XH h $ $ i N I =.B.K.H.J.<.<.<.1.1.1.J.u.u.p.i.R.#.h.g.@.&... .*.oXI z.u.1.e.D.{.W ^ >X",
"J T vXVXCXSXz * p f ^.|.&XxXfXyX6XJXLXrX/.n = = c C (.&.B.w.` 0.e.e.P.P.1.1.<.1.<.<.8.8.3.3.3.e.i.B.l.k.V.z.o.z.i.<.e.n.b.8X5X%X",
"b.D.dX7X7XT i i % p g [. XfXsXdX4XhXjXjXW x = c D I *.V.0.<.' R.V.k.j.j.e.I.P.P.9.8.J.<.<.<.<.J.y.u.u.e.q.B.j.k.I.` K.i.i.j.C.M.",
"I.e.j.k.c.X.(.I t I (.`.OXyXA.Z.Z.yXvXxXW z W R (.&.B.w.` ' g.n.m.v.c.M.Z.V.k.j.B.p.u.u.w.1.H.H.<.H.<.1.1.u.w.3.1.K.K.J.J.1.J.P.",
"8.8.8.9.w.i.k.k.c.c.n.Z.V.Z.M.j.#.m.5XwX[.A )..Xc.C.e.1.3.g.n._.P `..X8Xb.S.F.&.=.@.f.j.B.p.e.u.u.P.J.1.<.<.<.1.w.f.z.V.B.e.0.0.",
"f.k.i.u.w.0.w.w.q.] #.] j.e.0.w.q.#.&.x.6X.X-.k.B.P.1.P.h.;.(.f g A {.9X2XpXoXL r  .....f.S.V.C.B.i.e.P.w.P.<.w.h.(.%XyXaXuX..=.",
"L I (...=.Z.V.V.$.| | [ [ w.9.w.e.B.k.k.C.j.j.p.9.1.w.B.c.I s & W ( :XxX0XgXR s C F F (.dXD.A.c.&.@.@.k.p.J.9.B.o.OXVXZXAXW i N ",
"v % p s /.5XdXuXv.X. .o.| ] j.@.%.] k.i.u.I.w.K.H.y.i.k.*.I A J <XSXNXbXCXVXn j d i Z 9X7X7XdX`.L  . .c.i.<.u.f..XqXbXFX-X. o @ ",
"v = o m NXCXCXnX9X9X{.].o.| @.X.X.| #.q.q.w.e.w.8.8.u.i.f.&..XfXgXbXFXFXDXDXm = x z ^ nXnXrXrXf f N X.B.8.1.i.z.|.VXDXDX^.V h j ",
"4X|.H xXCXBXBXBX>XGX0X).r o...*.*.-.k.n.Z.F.=.l.e.8.8.u.C.V.F.aXhXwXbXSXFXDX/ = M Q *XSXCXZX=X* d L c.P.<.0.k.4XfXZXFX/.O.6.6.s.",
"Q.E.C.D.iX7X%X X^ *X0XXXX.%.n.v.:.:.v.6XsXhX(.&.M.e.` J.I.e.V.S.dXeXgXCXFXMXBX^ ^ / ,XDXDXFXM % B -.j.2.2.I.b.2XVXFXmX^.t., , L.",
"U.Y.4 3 2 _ s.+.! Q  XOX&.$.S.b.:.;.k.m.iXwX]._.>.k.i.1.1.3.g.h.n.uXhXlXGXMXMXmX:X;XcXSXFXDXk S .XM.I.` ' h.b.fXGXm D N.7 - 5 q ",
"UX8   - 2 _ d.|.^ / [.^.z.g.Z.z.*.:.n.b.+X/.].XX8XM.C.e.' <.3.q.h.n.aXfXgXGXmXMXBXCXAXVXBXQ * A -.B.1.1.] Z.sX#X= # r t.2 ; 0 9 ",
"UX< - _ 6.G.zX=X-X>X~ ^.c.j.z.X.r o.C.%.o.H ^.^.(.+.c.j.w.H.<.P.I.S.S.aXpXgXGXmXMX-XK K x @ i F =.i.<.P.k.D.{.+ . h s.6.- ; 0 q ",
"4., _ t.M.eXbXBXDXSX[..XV.g.&...t  .M.,.y a B H a L  .=.B.a.J.H.0.i.C.S.aXkXgXvXQ X $ % @ j f  .j.9.1.e.S.+X% # @ G t., - 0 8 Y.",
"[ 6.N.+.%XVXBXSXZXVXT 8XV.h.@.o.t o.f.z.,.e A /.C C L  .>.B.w.1.<.0.e.k.S.aXpX X* o . o x g L @.i.J.P.k.4Xf $ X p d._ , 9 q Y.Q.",
"F.N.zX/.1XDXSXCXVXtX].8Xj.k.f...X.-.b.F.+.|. X0X( f A `.m.c.g.P.1.<.P.e.k.S.aXR i & o . c ]. .k.J.<.] Z.XXp o @ r N.7 8 q Y.Q.W.",
"kX|.}.-X>XSXAXgXhX2X.Xm.j.j.V.n.c.dXpXpXzX9X0XVX<XW ( {.2X*.h.C.w.J.<.J.I.k.;.I N d * $ [.3X=.i.<.3.R.A.R + X p d.E.L.8 Y.Q.JXKX",
"CXcX*X*XcXVXkXyXuXm.b.S.R.e.S.j.n.uXkXlXfXVXgXlXNXm v c f B -.S.j.q.1.<.u.a.f...I N i &XkXA.C.9.1.4.c.XXl # $ G C.Q.UXQ.Q.JXKXKX",
"mXMX,XcXvXfXdXdXb.h.M.h.[ ] B.j.V.D.kXlXVXZXAXKXnXx = k c {.7Xv.h.R.0.8.8.y.p.j.&.I ).gX3Xc.I.1.3.g._.f v @ W +.W.W.Q.R.W.KXPXPX",
",XMXbXgX5X4Xb.n.f.g.] [ [ ] w.e.C.A.5XVXbXbXZXZX;XS m M Q ;XfX8Xm.c.g.p.K.H.y.p.C.=.4XyXv.g.1.H.q.&.B g Q M ^ xXhXF.6.7.F.zXcXmX",
"mXVX$XP I X.z.B.e.' [ ] $.' 9.I.C.A.%X~ W &XGXvXcX! ^ Q / <XZXfXXX*.=.k.p.K.1.K.e.V.S.m.c.q.1.y.h. .N g &X>XQ x h G s.G.9XcX,X,X",
"VX#XN L ..h.B.u.P.J.q.k.h.r.8.8.C.-.).S W W =XGXW @ x n Q *X-XW s F X.=.k.p.P.<.J.I.R.g.4.1.<.a.j.&. .`.9XgXb . . + K 9XxXMX,XmX",
"9XN r &.f.a.u.K.J.e.B.c.=.i.9.9.B.z.X.`.].~  XJ % + X X + x X # j s U X.@.j.P.3.<.' P.1.<.3.H.K.u.B.f.Z.uXsXS * # = mXZXFXDXCXvX",
"`.r @.h.u.9.<.8.u.i.R.....j.K.K.u.B.c.-.oX@X%XA h l $ # X = @ X # c #X2X.Xn.g.] 1.<.1.P.e.j.p.9.8.9.e.#.c.m.I D l &XDXDXFXZXlXfX",
"X.@.B.u.K.8.9.i.B.S.&.r r %.e.J.` I.g.h.:.oXOXU A C l k @ = x X # -XAXkXOXuXk.4.1.' j.Z.D.c.f.i.y.H.1.3.#.R.-._.{.0XAXNXCXgXpXaX",
"$.i.a.K.<.9.e.R.V.&. .F e o.#.w.J.1.w.g.$.;.:.(.I P C d c &X>Xx Q DXNXVXhXS.g.1.1.j.S.sXkX(. .@.i.u.` <.1.I.V.Z.A.sXhXVXwXyXaXS.",
"i.u.` K.u.i.g.$...L L N a r =.j.K.1.1.0.q.#.;.z.-..X(.U %XrXAX1X*XDXNXeXuXk.3.1.P.V.aXgXxXZ F I =.k.4.3.1.1.w.B.S.A.uXhXdXD.S.k.",
"9.<.8.u.C.V.n.X.F a P T Z U -.Z.B.P.1.P.P.4.q.V.V.Z.v.b.dX2XeXgXbXZXVX6Xc.q.<.P.V.D.fXbXmXn g K .XA.h.g.P.J.<.J.w.j.Z.uXA.V.j.I.",
"H.y.p.k.@.*.'.L F ].xXnX:XT 2Xv.@.R.P.P.0.P.3.e.i.C.C.Z.A.6X3XXX}.$X5Xb.R.8.1.j.v.7XVXMXMX/ v &XqX7X*.;.C.i.1.<.1.q.B.f.@.B.a.8.",
"y.p.f.&.r B Y T T xXCXnX:X^ [.+X*.&.g.I.i.i.P.3.P.0.e.j.h.h.&.L P ).8XC.0.<.i.@.P Z / mXNX*Xx m W d a (.m.S.i.P.<.H.u.i.i.u.J.<.",
"B.f.X.(.B ].wX;X:X:XwXtX:X/ ! }.`.X.&.#.e.B.i.P.1.1.1.P.i.B.$.&.X.oXS.e.<.y.f.I C b Q <XqXV $ X . @ l A 8XD.S.j.e.K.H.K.u.<.J.u.",
"V.-.`.P [.VXbXCXCXxXtXtX:X*XQ &X].U  ...$.j.C.a.u.P.J.H.K.u.p.j.n.Z.B.1.K.B.o.N l Q *XqXt.O.G h @ . = ;XgXpXaXb.k.B.y.K.<.K.u.C.",
"D.^.K T :XbXCXAXKXLXHX:X-X*XQ ! J P I X.&.n.V.$.B.i.u.9.H.H.y.u.e.j.3.<.i.=.L p @ / jXF.6 6.t.O.D % -XFXZX0XT .X .@.j.u.K.p.C.C.",
"7Xf j & M -XAXlXLXrXnX-X*X<X&XW S A `.3X6XdXX.X.z.V.C.p.u.K.<.2.3.3.<.P.f.I d $ / nXKXl., , 6 t.d.|.CXDXQ = ! [.N I @.i.8.I.Z.aX",
"T * @ X $ D OXuXLXrX<X,X>X0X0X{.T }.eX3XuX`.B L (.c.S.C.B.p.K.1.<.<.` g.X.C * / ZXlXKXN.6 , , K.W.JXkXK + = Q &Xi N &.i.` 3.h.6X"
};
