/* XPM */
static char *f2332adc086b4dc7a0a65968e7f747223zeJKhsxhp3Hy7m7[] = {
/* columns rows colors chars-per-pixel */
"64 64 256 2 ",
"   c #080B18",
".  c #150B19",
"X  c #09121B",
"o  c #111016",
"O  c #2E1218",
"+  c #34291E",
"@  c #091728",
"#  c #091B33",
"$  c #15152C",
"%  c #280D24",
"&  c #390D25",
"*  c #2E182C",
"=  c #0B222C",
"-  c #092739",
";  c #172836",
":  c #163036",
">  c #27282C",
",  c #323232",
"<  c #501518",
"1  c #70171B",
"2  c #51291A",
"3  c #6E2D1C",
"4  c #51112A",
"5  c #7A1627",
"6  c #6C122C",
"7  c #50312D",
"8  c #712F28",
"9  c #304738",
"0  c #1B413C",
"q  c #744E1B",
"w  c #514731",
"e  c #715031",
"r  c #756934",
"t  c #0A2B44",
"y  c #0B3849",
"u  c #143746",
"i  c #0B3A56",
"p  c #153955",
"a  c #132B4A",
"s  c #2A3B4A",
"d  c #181A40",
"f  c #691E4C",
"g  c #702452",
"h  c #50204A",
"j  c #18444B",
"k  c #0B4659",
"l  c #134656",
"z  c #0D535E",
"x  c #16555A",
"c  c #0B424D",
"v  c #36574B",
"b  c #285A58",
"n  c #2D4F4D",
"m  c #316C59",
"M  c #0A4966",
"N  c #164A66",
"B  c #0B5364",
"V  c #0B5769",
"C  c #135867",
"Z  c #0C5975",
"A  c #155874",
"S  c #285666",
"D  c #0D646B",
"F  c #156569",
"G  c #0B6976",
"H  c #136977",
"J  c #0C7377",
"K  c #187675",
"L  c #276764",
"P  c #26766A",
"I  c #2C7772",
"U  c #1C625E",
"Y  c #4F5049",
"T  c #6D5245",
"R  c #546B4F",
"E  c #6E6F4E",
"W  c #527967",
"Q  c #637F69",
"!  c #8E191C",
"~  c #912F1B",
"^  c #AF2F1D",
"/  c #991727",
"(  c #8D152D",
")  c #A71926",
"_  c #B31429",
"`  c #972725",
"'  c #8A3827",
"]  c #902E2C",
"[  c #A82725",
"{  c #B82925",
"}  c #A83A24",
"|  c #B5352B",
" . c #AD191D",
".. c #CD331C",
"X. c #E6311C",
"o. c #C71827",
"O. c #D81726",
"+. c #D00D21",
"@. c #E61726",
"#. c #F2172B",
"$. c #C72B24",
"%. c #C63824",
"&. c #D63927",
"*. c #D22B2E",
"=. c #E82727",
"-. c #E83626",
";. c #F43825",
":. c #F02E31",
">. c #D8131D",
",. c #964F1C",
"<. c #B9461B",
"1. c #AC491C",
"2. c #B4711D",
"3. c #965A37",
"4. c #914D2A",
"5. c #B64725",
"6. c #A95927",
"7. c #B95728",
"8. c #AA492B",
"9. c #946D32",
"0. c #B86727",
"q. c #AD712B",
"w. c #946C1B",
"e. c #C64B1D",
"r. c #D6541C",
"t. c #E5591C",
"y. c #F34F1D",
"u. c #D8651B",
"i. c #CE731C",
"p. c #F4791C",
"a. c #EB701C",
"s. c #C74825",
"d. c #D84726",
"f. c #C95726",
"g. c #D65825",
"h. c #D25832",
"j. c #E74826",
"k. c #F44827",
"l. c #E65625",
"z. c #F65623",
"x. c #F34E34",
"c. c #CA6628",
"v. c #D96727",
"b. c #C77629",
"n. c #D87727",
"m. c #CD7438",
"M. c #E76528",
"N. c #F46725",
"B. c #E97825",
"V. c #F57724",
"C. c #E76031",
"Z. c #A4214C",
"A. c #DD2545",
"S. c #8E7447",
"D. c #A76943",
"F. c #288878",
"G. c #13827E",
"H. c #708B58",
"J. c #518E72",
"K. c #6A936C",
"L. c #69A670",
"P. c #7F8034",
"I. c #958E34",
"U. c #B38D2D",
"Y. c #B8A730",
"T. c #BE9D1E",
"R. c #D48C1C",
"E. c #EA891B",
"W. c #F68A1D",
"Q. c #E7981D",
"!. c #F5971D",
"~. c #D1AB1E",
"^. c #E7A81D",
"/. c #F6A91D",
"(. c #F5B71D",
"). c #EDB71C",
"_. c #C98527",
"`. c #D88826",
"'. c #C69827",
"]. c #D89727",
"[. c #CD9035",
"{. c #E88825",
"}. c #F68823",
"|. c #E89825",
" X c #F69823",
".X c #F09234",
"XX c #D8A726",
"oX c #D1AE30",
"OX c #E7A825",
"+X c #F6A723",
"@X c #E8B926",
"#X c #F5B725",
"$X c #EDAB35",
"%X c #F6C81F",
"&X c #F7D41D",
"*X c #DCC52F",
"=X c #EAC426",
"-X c #F5C725",
";X c #F5D825",
":X c #EFD22B",
">X c #F8E92D",
",X c #928F4E",
"<X c #AD944B",
"1X c #95A451",
"2X c #B1B257",
"3X c #8DB06E",
"4X c #9BA868",
"5X c #D1B248",
"6X c #E0A443",
"7X c #B2C469",
"8X c #EACE4B",
"9X c #D2C64E",
"0X c #0C6985",
"qX c #126A85",
"wX c #0C7988",
"eX c #147A87",
"rX c #0B7993",
"tX c #137F92",
"yX c #267481",
"uX c #168589",
"iX c #0C8694",
"pX c #148996",
"aX c #159697",
"sX c #0F9290",
"dX c #28908A",
"fX c #13A69C",
"gX c #2FA893",
"hX c #0B98A8",
"jX c #149AA5",
"kX c #0C92AB",
"lX c #14A7A8",
"zX c #0EB6B8",
"xX c #17B8B8",
"cX c #11ACB1",
"vX c #2BB4AB",
"bX c #209BA2",
"nX c #4EAF90",
"mX c #69B78E",
"MX c #4DB39F",
"NX c #0EC5BC",
"BX c #2BCDB8",
"VX c #2BC29F",
"CX c #46CAAE",
"ZX c #59C29C",
"AX c #12B3C1",
"SX c #0BC9C3",
"DX c #0AD7C8",
"FX c #15CAC5",
"GX c #2CD7C7",
"HX c #32EDD5",
"JX c #0EE7D5",
"KX c #51E4CC",
"LX c #5DE2C6",
"PX c #8CB689",
"IX c #9ED496",
"UX c #CBE486",
/* pixels */
"O 9 Y 2 X.-.%.z.<.< 1 ! ` ` ^ s.f.B.B.v.0.6.3.3.4.3._.$X$X[.XX4.o._ 4 $.) ` 8 ; , 8 7 > t y l l C L m , O 4 * > , 7 3 } ~ 2 ~ 2 ",
"6 + Y + $.&.d.%.< ! 7.1.,.6.~ ` 8.8.4.e 3.9.I.<X,X,XR w 9.8X5XoX9.O./ 1 o.` ] : , u y l z L P W J.J.x p 4 * = = - y c : ~ <.2 ~ ",
"6 4 Y , ` { j.2 1 7.1.} v.v.6.1 8 w 9.q.5X5X9X1XH.H.H.H.b n <X8X9X3.=.6 o.) } ; : : , , N D K dXF.K H s 4 $ p a M i i k j ~ <.2 ",
"6 ( 4 R < ` &.< ! b.~ 8.f.f.c.2 w 9.U.5X8X9Xm J.mXnXL.7X7X3Xn 9.8X2X| $./ { ' = , e e 7 , C eXaXaXuXl y * $ a , N M M y V , <.2 ",
"< 6 ( 8 , 4 [ O / 0.4.' 8 4.h.7 R S.6XoX8XR I sXsXfXfXcXgX3X7XR 1X9X9.=.5 ) 1 > e T m P n u u x S S p p l l - s n A Z k D x } 1.",
"/ 5 ( ( [ O 6 & / ` q.' ] ' 4.> E 9.$X$X-XE eXsXfXK.S.3.E F.L.2X9 8X9X$.5 / 6 w 9.v fXvXI K K H H K aXpXrXeXu S S Z Z M H D ~ r.",
"5 _ ( _ 1 / ! < O 5 ] 4.8 8 O > R E $X.X$X[.L uX3.8 8 5.e.s.e K.2Xr 5X| ( 5 1 S.S.v BXvXGXFXxXxXxXxXjXjXlXC A n qX0XG V J J ' e.",
"6 1 @._ o.{ ` [ [ [ [ ` ` ! < > v R U.+X XB.T E 4.w n , 1.t.t.w 2Xw 5X5.( 5 ' D.S.R I GXVXvXvXBXxXcXxXvXC N N qXG wXeXV J J 1.e.",
"( / ! _ =.*.{ $.%.$.$.%.-.;.-.] : b v r 9.e L 7.e uXJ.R 8 s.N.b.R E 2Xs.6 ] m.m.S.W L S I vXvXvXgXyXS p N N A G rXiXG uXwXv r.<.",
") / ! ) _  .$.&.%.%.%.d.d.d.-.;.} s x b L L 3.g.L m F.<Xw ..V.W.9 H.<X%.4 f..X<XH.W I yXH S N p p a a u N H wXhXiXeXuXuXK 6.f.4.",
";.k.j...^ [ / / [ ~ s.g.l.l.d.%.&.*.] 7 7 8.} 2 L dXvX<Xe =.p. Xw H.9.) 4..X[.,XW P P K uXsXsXaXaXaXaXpXaXaXjXaXsXsXfXI 6.u.7., ",
"y.z.k.j.t.l.l.^ 5 1 < 8 h.l.t.M.7.~ [ { ` 7 , 7 R gXCX[.] ;.W.+Xe R 8.6..X[.H.J.P aXzXNXNXSXSXSXNXzXzXcXlXlXlXlXaXF.E i.u.7.7 1.",
"( ( / / )  .$.&.d.e.` 1 < 5.f.v.B.B.4.' ' 7 b R 6.ZX3XU.O.k.!.#X7 w m.$X<XK.dXaXSXDXDXDXDXDXNXgXgXJ.J.K.K.K.H.I.U.E.a.B.3.w e.8 ",
"4 5 <.u.n.E.n.0.7.g.d.| 8 7 f.e.B. XB.8.| 8 L E c.4XoX} :.p./.'.> q.6X4XgXlXNXDXDXDXDXnXH.U.'.^./.(.(.(././.^.!.Q.E.0.6.7.e.3 y ",
"` l.{. X+X#X(.).^.,.0.v.s.w 7 f.n..X Xh.%.T L 9.B.6Xq.=.k. X-X7 r 5X3XvXNXDXDXDXJXmXY.%X&X;X&X%X-X%X-X%X(././.!.E.a.B.r.4.> - t ",
"} <.u.i.R.R.XX@X@X).q 0.N.4.b 6.f.OX+XB.s.Y Y n.B.$X$.:.V.+X2.w 5X3XxXSXDXDXJXCXY.&X&X;X;X&X&X%X%X%X-X#X(././.!.W.p.a.r.1.' 7 ; ",
"} u.{.E.+X).XXXX@X@X~.w.n.6.P e c.XX$XV.d.m w .XV.{.#.x. X+X, <X4XxXSXDXDXJXL.=X;X;X;X&X;X;X-X^.]._.2.,.,.6.f.t.r.e.u.t.t.l.j...",
"u.a.B.E.XX@X(.XXXX'.-Xq {.7.P e c.].#XV.s.L e .XV.h.:.N. Xq.R 2XvXFXDXDXJX3X:X;X;X;X=X@XXX].{.{.B.M.j.*.[ 8 Y e 5.&.<.f.7.<.l.%.",
"1.V.W.p./.]./.#XU.#X].w.b.7.I T v.'.+XN.8.L r .XN.%.:.}. X7 4XPXNXSXDXJXL.;X;X;X~.XX=X;X=X-X-X-X#X+X}.z.;.:./ n v ' %.,.n e 8 s.",
"4 7.p.}.W./.`.!.2.+X].w.7.3.I 3.5.'.}.B.Y S E .XN.{ k.}.R.v 7XvXDXDXDXnX;X>XXX].OX|.n.i.{.Q.R.].].{.B.N.x.:.:.7 z C ' 8 b z j , ",
"6 3 z.V.p.!.`.}.i.R.{.,.c.T b d.4.OX{.q.m b m .XN.} x.}.6.J.PXzXSXDXFX*X>XXX`.{.u.v.h.h.h.c.0.T.~.-X^.`.h.-.=.* k C n n H G z y ",
"5 3 y.z.N.W.n.V.0.B.B.3 7.n 4.d.q.$X`.m m w k [.M.~ l. Xe L.gXNXFXDX1X>X'.B.r.d.x.x.:.:.A.A.Z.Z.6 e ~.=X-X2.[ ) : k B F G H D x ",
"! X.;.k.z.V.v.N.,.V.v.3 w 7 &.w.$XOXR J.W 8.+ T V.~ v.+Xw L.cXSXNXvX:XT.c.d.x.x.:.:.:.A.A.Z.Z.Z.f f 4 r @X).~.3 / ; V V H G D B ",
"{ &.-.X.z.g.l.z.8.t.,.2 7 s.0.@X#XP.gXnXE f.h., c.8.c.+X9 nXcXzXSX1X:X0.d.x.;.:.:.A.A.A.Z.Z.Z.] ] g h * 7 @XQ.XXO ( l C L G D z ",
"1 ` $.;.j.j.;.^ d.j.O 8 | 0.-X#XU.P MXmXS.h.0.b.8 7.6. X9 nXAXcXxX=X2.d.x.x.:.A.A.A.Z.( ( ( ( ] %.x.s.7 * 7 OX|.9.O * C Y V V k ",
"..-.-.-.X.X.-.%.j.3 ` ` 2.:X@XoX9 gXMXmX<Xc..Xm.0.8 6.|.0 gXcXzXJ.:X} C.x.:.*.( 4 4 5 ] | 7._.].,.8 x.B.2 $ w.E.`.o > M T Y y = ",
"$.$.$.$.*.=.*.;.` [ &.`.:X@X*Xv U gXZXmX4X.X.X$X[.4.4. X0 bXhXcX1XT.C.C.A.5 5 Z.Z.Z.g g g g g 4.].'.}  XU.. w !.V.O 4.; 9 u # @ ",
"{ $.$.$.$.=.;.! { d.n.;X=X;XR P m P gXmXPX<X6X$X8XU.2 .X: aXjXhXoXq.M.*.3 c.*.[ ] ] Z.g h f g g f T.b._.w   q  XN.2 6.3.# # - t ",
"{ { ! ! ;.[ < / d.<.@X=X;XI.m P P x j m K.3X<X5XoX8Xr q.: pXpXuXoX0.C.3 [.,.b..XN.h.5.5.| f h f 4.4.].v.O 2 {.V.r.O 3.q.R C k k ",
"1 3 ` =.1 o ! d.e.`.;X@X:X+ n b x L F.F.P J.3X2X5X5X8Xq , eXrXF.Y.B.8 _.q._.8.' 2 > u j : $ h h 3.6._.{.}.W.V.f.{   R q.v Z k G ",
"8 2 | -.O < { l.1.XX>X@X'.$ 0 W D.m..X5X7X3XMXJ.2X2XoXU.O qXrXP U.`.3.`.U.oX-X#X+XoXv U P K j * 7 n.}.f.i.v.,./ O @ x E R P dXuX",
"w 7 j.3 . _ s.e.n.=X>X=XU.> E B.+X(.:XUXIXIXUXIXCXL.<X<X+ z 0XL w.0.`.oX'.-X{.f.4.9.I.F x F.K l * * ,.l.d.{ ( O X - z B F.gXfXH ",
"w 8 l.O 1 _ g.c.{.=X>X@XU.0 m.+X/.}.IXLXLXKXKXCXIXIXnX,Xr u 0XL q.q.|.U.:X-X|.7.J.n r F K F dXF., $ $ . % o X X = V z P MXvXiXk ",
"w f.5.X ) [ M.i.].@X>X-X5X9  XE.}.v.PXLXKXKXBXBXGXBXIXnXe > Z S 9._.$XoX&X#Xa.f.dXj v P C eXdXdX*XI.w > + + q e B z K BXvXwXZ V ",
"2 u.3 @ o.} g.`.].@X>X:X8XR XX{.d.<.R KXHXHXHXHXGXFXNXmXJ.7 M A q [.XX@X-X-X@XOXe F G.pXeXeXdXG I.oXY.I.r R x c l V eXwXG Z Z M ",
",.a.+ @ =.} g.].R.#X=X>X@X1Xr @X#X@XW HXHXHXvXdXaXlXFXzXZXQ a M , ].'.-X-X=X:XH.iXhXhXkXhXeXK H C z k l c y l G iXrXqX0X0XZ M i ",
"<.M.o # :.} u.^.].#XOX;X:X5XH.9 w v VXGXBXBXfXxXSXSXcXzXlXPXs i @ `.R.#X-X-XK.hXcXtXD wXcXjXiXiXwX0XqXH D N k b I F l k C V V V ",
"e.f.@ = &.} v.Q.OXOX(.@X>X*X5X3XmXnXVX,XoXU.vXFXzXcXcXAXhXbXQ i t b.].|.(.oXcXhXG.F uXaXjXuXdXuXbXjXlXhXpXwXH Z : R I eXH H V V ",
"e.<.@ - d.} g._.OX].).-X@X:X*XoX'.'.,XY.].[.vXcXcXhXhXkXkXpXJ.; i q |.i./.,XkXaXI cXxXxXgXvXAXxXlXvXvXxXxXjXtXqXG - 7 w n x V V ",
"~ } @ - 8.5.5.0.^.OX$X(.#X=X=X@X@X@X=X'.w W jXH.T.~.oXH.rXiXdXn t + W.2./.,XcXuXfXcXzXMXvXxXgXmXLXCXBXvXlXaXpXpXqXqXu 7 3 2 2 + ",
"< | @ u e M.<.~ +X|./.^.).^.).@X@XOXOX_.9.tX1X].~.~.U.oXr rXeXb j $ b.0.{.I.hXdXxXzXMXvXxXJ.J.v E 3XgXvXxXNXcXuXqXH 0X$ O O O O ",
"o %.X u > B.^ 7.0.|.Q./.|.OXOX|.OXOXQ.|.1XyX=XOX^.-X;XY.@Xl Z b K - 2 v.i.{.pXuXxXzXnXvXxXJ.jX: , m.4XFXzXxXcXcXpXqXZ i & & 4 4 ",
"  ~ $ # k 6.s.%.5. X{.Q./.`._.U.[.Y.,XQ R 3.].XXXX@X-X-XU.r Z b C C = 5.1.B.Q jXaXhXgXnXzXP S eX: 9.n.gXjXaXuXhXhXqXB V & 6 5 6 ",
"  O 2 # j , B.^ e.f.Q.`.`. X XQ.].[.`.|.|.c.OX].#X(.#X-X2.U.M j x fX- > 5.1.f.I uXaXhXdXdXuXuXqX; 9.B.E aXjXjXeXiXrXV Z O 6 6 6 ",
"  X < ; = C 7.e.$.s.f.{.{.n.n.W.!././.R.n.`.#XR././.#X#X_.U.M ; H xXc y > ^ } f.S iXpXiXrXiXrX7 > b.n.dXkXkXkXkXqXqXM M & 4 6 4 ",
"$ @ X O a - n l.$.%.e.f.u.p.B.u.c.f.c.`.{. XE.+X/.Q./.U. X9.N @ uXxXJ u p ; 1 ` | 4.Y S S Y 4 * e B.D.jXpXuXiXkXrXV Z i 4 4 6 & ",
"$ @ - @ X y t T j. .&.d.s.g.v.M.a.B.B.a.n.i.}.W.E.!._.i.}.w N y iXxXeXF x s t > < 1 5 5 1 * $ e v.N.n.,XJ.eXqXqXrXZ M i 4 4 . X ",
"# # t c = = l y T &.o...j.d.e.f.g.g.g.M.V.V.a.p.{.6.7.V.n.p - eXpXFXiXJ z x 7 , s ; ; ; , 8 f.B.B.|.{.i.XXY.I 0XZ Z i - 4 o = C ",
"; # t k B = y t u T =.O.O.X.k.j.l.g.r.l.g.v.f.,.} j.z.M.7 C z pXiXzXaXeXD H x 8 [ f.v.v.B.p.E.|.E.Q.OXXX2.R.oXS M M i . % = V D ",
"; $ t i Z B @ H - A Y *.O.o.O.@.{ [ ~ ~ ` ! ) =.;.;.j.2 C u aXhXsXcXjXwXK C F L 4.{ v.W.Q.+XOXOXXX].].OXOXi.Q.9.M i t . X C G V ",
"d ; - y Z G k l wX= Z C ] @.O.o.+.+.O.@.@.#.#.#.:.^ O A l J eXiXcXuXhXJ J z uXF P 0.$.`.!. X#X^.@XOX]. X+Xn.p.|.t i @ o c G V B ",
"; ; # i B G V = aXk = k qXn g _ @.#.#.#.#.#.O.! 2 u Z u l eXlXJ zXG hXJ J N aXF gXm M.| {.!.{.#X^.Q.OXE.!.}.u.}.> t   @ B V G B ",
"# $ @ i M eXG - D wXi - i 0XZ M y > , , , : u l Z V = c F kXJ hXrXwXpXD H C aXC sXvX9.k.e.}.W.W.+X+XE.E.}.W.t.V.+ -   = V C V B ",
"$ # # i M G G y u jXk M # y M N Z Z V V B C A k y - k V kXG rXkXV iXG J A C aXD aXfXF.N.{ B.V.B.!.E.W.E.V.V.t.N.$ @ O t k V B y ",
"@ @ - i M B wXy u cXV V y = - - o = - y l y t u i B qXrXA 0XrXM wX0XB V A H uXD fXaXfX7.O.f.V.V.p.W.W.p.N.N.r.t.@ . 4 t c B y t ",
"X @ - t y B wXt u lXH V k - i y j j i k i t i Z 0XrXV y 0XM k 0X0Xl B N C J J D fXaXlX3.=.e.N.N.N.p.p.N.y.z.j.%.@ % & t y k y - ",
"  @ # t t Z V # l jXH Z M y k l x Z V M M V k a $ o o X X y M Z k i i l y wXH J fXsXfXT =.| z.z.z.p.z.z.y.y.X.^ @ & % - t i t # ",
"@   @ # t H y X H aXB V k B z u l p k ; % 4 4 6 4 5 ( 6 O o   @ t a k A Z J J J lXuXaXT o.{ k.k.k.z.y.y.;.X.X.~ X 4 O @ - t - - ",
"X   X = B l @ @ iXwXk B k F y y t $ & 6 6 6 6 / / O t p y ; @ X k 0XG Z G J G J aXuXsX] ) $.;.;.;.y.;.;.;.X...3   4 & % # # # @ ",
"  X - y - @   G tXy k y C l - @ % 4 4 6 6 ( _ 1 $ p S L l - @   - Z Z B G J J uXJ G.J _ 1 #.=.=.=.;.X.=.=.$...< X & & & . @ @ @ ",
"t   X @ X @ C G y y y l l = . & 4 4 4 4 ( ! 5 @ N L L x k k -   X - y D D C D sXH J s / / @.@.@.@.=.#.@.#. .{ 2   % 4 O & %     ",
"i t - - k D k - # - - - @ . & & 4 4 4 5 5 / & p j F x V z l u @ : l z V z B G J G B / < +.+.O.O.O.=.#.O.#.! { 1   % & . % % % . ",
"t t t - - # t - @ @ @   . % % & 4 4 6 6 ( 5 @ a C l C D z k i : y y k B z V G k B 6 6 ! O.o._ #._ >.#.+.@.!  .!     % % . . .   ",
"@ # - - - # # # @     . . % % & & 4 4 6 6 1 t # V c C M z k M i i c i k B i k k 6 < 1 +./ _ _ O./  .#.o.@.5 ! < 1     . % % % . "
};
