/* XPM */
static char *_8f547dfe4ee4ca8de551ab7a89d0632msn6bVmrjznTnVnF[] = {
/* columns rows colors chars-per-pixel */
"64 64 256 2 ",
"   c #010214",
".  c #02031C",
"X  c #05071A",
"o  c #15011D",
"O  c #040E19",
"+  c #060726",
"@  c #180727",
"#  c #05172A",
"$  c #050C37",
"%  c #170736",
"&  c #071937",
"*  c #191837",
"=  c #12152B",
"-  c #23052D",
";  c #261637",
":  c #37173E",
">  c #2D0A36",
",  c #072738",
"<  c #162539",
"1  c #0C2D39",
"2  c #24263B",
"3  c #34213E",
"4  c #1A1946",
"5  c #171346",
"6  c #281A48",
"7  c #221B53",
"8  c #381A59",
"9  c #311048",
"0  c #0B2B44",
"q  c #182847",
"w  c #0A3748",
"e  c #193648",
"r  c #182856",
"t  c #193754",
"y  c #083353",
"u  c #272847",
"i  c #362849",
"p  c #2C344C",
"a  c #25374A",
"s  c #37354C",
"d  c #272A56",
"f  c #352957",
"g  c #2C3B5C",
"h  c #273756",
"j  c #333452",
"k  c #343B54",
"l  c #343B5B",
"z  c #3A3759",
"x  c #193564",
"c  c #392966",
"v  c #2A3865",
"b  c #343B63",
"n  c #353A6B",
"m  c #3A3766",
"M  c #393C75",
"N  c #2E2B67",
"B  c #351D62",
"V  c #451453",
"C  c #43294C",
"Z  c #472758",
"A  c #463859",
"S  c #55355C",
"D  c #482866",
"F  c #542B6A",
"G  c #463868",
"H  c #553866",
"J  c #452B72",
"K  c #572A75",
"L  c #483978",
"P  c #553978",
"I  c #67387B",
"U  c #67326B",
"Y  c #4B186A",
"T  c #194458",
"R  c #124951",
"E  c #2C435C",
"W  c #264658",
"Q  c #35455A",
"!  c #2C4F59",
"~  c #1A4E63",
"^  c #294866",
"/  c #344464",
"(  c #3C4463",
")  c #344B6A",
"_  c #3C4B6C",
"`  c #374768",
"'  c #29546A",
"]  c #35516D",
"[  c #385668",
"{  c #2B4975",
"}  c #394975",
"|  c #335373",
" . c #3C5374",
".. c #3B5C73",
"X. c #3C547B",
"o. c #375B79",
"O. c #2C5A76",
"+. c #3A6579",
"@. c #326B74",
"#. c #096864",
"$. c #47435B",
"%. c #52405C",
"&. c #45466A",
"*. c #554868",
"=. c #46566E",
"-. c #58516A",
";. c #474877",
":. c #574779",
">. c #435473",
",. c #44527D",
"<. c #4D5C7C",
"1. c #475878",
"2. c #55587A",
"3. c #664879",
"4. c #675779",
"5. c #694B72",
"6. c #46647B",
"7. c #4A6B7C",
"8. c #6C627B",
"9. c #41123C",
"0. c #4A3785",
"q. c #583B88",
"w. c #563791",
"e. c #653B8A",
"r. c #653D96",
"t. c #6B2989",
"y. c #643DA6",
"u. c #661E82",
"i. c #3A4D81",
"p. c #3A5885",
"a. c #3D6684",
"s. c #3C7391",
"d. c #484884",
"f. c #574788",
"g. c #435383",
"h. c #445B83",
"j. c #4C5C84",
"k. c #4B548B",
"l. c #485888",
"z. c #53548B",
"x. c #535C8B",
"c. c #585987",
"v. c #5B4895",
"b. c #4B5A93",
"n. c #585995",
"m. c #4C4A96",
"M. c #664889",
"N. c #754888",
"B. c #675788",
"V. c #775889",
"C. c #664996",
"Z. c #764C99",
"A. c #665798",
"S. c #755796",
"D. c #4D628B",
"F. c #476687",
"G. c #54648C",
"H. c #57678A",
"J. c #487888",
"K. c #4A6795",
"L. c #586897",
"P. c #487497",
"I. c #577799",
"U. c #54768B",
"Y. c #66658A",
"T. c #766687",
"R. c #666899",
"E. c #776798",
"W. c #677499",
"Q. c #747596",
"!. c #5753A7",
"~. c #6A48A4",
"^. c #744AA8",
"/. c #6859A5",
"(. c #7858A9",
"). c #7859B5",
"_. c #6F4EB4",
"`. c #586BA5",
"'. c #5777A6",
"]. c #5274AA",
"[. c #6968A5",
"{. c #7665AA",
"}. c #6777A8",
"|. c #7678AA",
" X c #6A68B8",
".X c #7965B7",
"XX c #677CB5",
"oX c #7679B6",
"OX c #7C58C2",
"+X c #7C69C3",
"@X c #7675C3",
"#X c #8838A0",
"$X c #845492",
"%X c #887198",
"&X c #8856A9",
"*X c #8659B6",
"=X c #8D4CAE",
"-X c #8766A8",
";X c #8667B8",
":X c #9566B6",
">X c #8579B7",
",X c #8C74AB",
"<X c #865BC8",
"1X c #8666C5",
"2X c #9469C5",
"3X c #8778C4",
"4X c #9878C9",
"5X c #9776D8",
"6X c #8B76D6",
"7X c #A576D6",
"8X c #9F7AE4",
"9X c #578499",
"0X c #5C83A6",
"qX c #5089AD",
"wX c #6785A7",
"eX c #7683AA",
"rX c #6987B6",
"tX c #7886B8",
"yX c #6E94B8",
"uX c #6C92AE",
"iX c #7989C5",
"pX c #7996C7",
"aX c #6D92C8",
"sX c #7AA6D1",
"dX c #358085",
"fX c #8587B8",
"gX c #8E8BB8",
"hX c #A291B5",
"jX c #8589C7",
"kX c #9688CA",
"lX c #8796C9",
"zX c #9495CA",
"xX c #948CD5",
"cX c #8C9AD6",
"vX c #9898D8",
"bX c #8A8FD1",
"nX c #AC92D5",
"mX c #8BA6D8",
"MX c #97A7DA",
"NX c #90A5D0",
"BX c #A6A8DA",
"VX c #B4A5D9",
"CX c #AD95E3",
"ZX c #99A9E4",
"AX c #98B5E7",
"SX c #9BB7F4",
"DX c #8BADE4",
"FX c #A7AAE7",
"GX c #A8B7E8",
"HX c #A4B5F6",
"JX c #B4B7F9",
"KX c #B3B1EC",
"LX c #9B92E6",
"PX c #C8A9EB",
"IX c #AAC5F2",
"UX c #9BC0EB",
/* pixels */
"@ i *.5.H Z 9.> : C 5.-.E E g 7 0.0.0.r.e.K L f.m h h U.<.H.;.4 H.` 2.j 6.=.4.@ k ..o.I.oXiXsXDXZXcXrX}.A.B.k.X./ &.G G &.( &.u ",
"-.*.$.A *.4.T.4.-.-.s j l q u ;.J 0.w.q.q.e.L 7 d d q + H.<.Y.d I.] c.b  .q 4.-.<.wXyXNXZXZXiXXXb.b.K.i.;.m n g b f z z q l j z ",
"< < T ! W w 1 w R T ..p > Z G c J w.v.f.f.L M g.)  .B.z q W.eXq J.a.H.& a.| _ gXzXMXMXtX[.z.v.A.d.} v n } } / b f f l d j d u i ",
"[ [ ! ! [ +.@.@...e X < S Z G J q.w.v.v.L L d.M g.G.:.E.q H.eX_ P.~ I.,.a.pXMXKXBXtXL.z.c.;.L G g _ ;.&.v d d m A z h q p u i u ",
"< O     . . X + . ; *.A l b f J 0./.C.q.e.K 8 Z 5 b wXI.1.1.|.c.F.O.p.tXMXFXxX[.A.z.k.d.;.v &.;.&.l f 6 ( ( z * h q z i ; j u u ",
"X 2 A -.*.A s C *.4.i u / h m L v.v.A.C.P J P M.E.g | 0XW.&.fXW.t I.yXGXMXoXA.n.d.d.d.;.;.` n u l &.G f * z &.&.+ Q z i S @ u u ",
"A -.-.$.*.Y.T.-.p q E / d d ` d.n.).C.J 0.z.l.G.c.tX^ wXfX;.wXI.eXMXGXcX}.[.d.k.b.d.J c r ^ :.G * f &.&.* 4 g &.Z ; _ # i C . k ",
"Q * O = < = = < ! [ e q G m n k./.~.r.q.d.N r } [.}.'.p.lXG.{ I.NXKXlXL.z.;.d.M v M L P N N L P G % ;.m :.% / l 3.- < E % H @ + ",
"# ! J.@.J.J.J.6.E + i H G J f.C.(.^.r.q.L f.Z.S.n }.tXl.rXrXrXMXGXfXl.} ;.d c L P f d.N Z.9 d.M A.5 k.n N.% X.{ N.9 $ 1.+ H : . ",
"[ R O O # # O # # &.*.f c L M.Z.;X^.r.e.f.f.N.S.}.p.tXrXp.P.lXGXtX&.` b z &.z % D P v k.Z.Y n.b.f.B b.n.q.c K.i.S.% d >.+ 5.i . ",
"2 O < s i i C -.T.H q l c M.q.(.).~.r.q.P L g.I.rXP.].pXXXmXIXtXm c d % @ % ^  .9 N.} L./.v.+X/.m.{.{.v.d.n.[.n.7 N g.d Z V.+ + ",
"X s T.4.T.T.4.A @ u  .r ;.L v.;X*X^.r.q.f.c.F.p.'.pX].].rXZXNX} L ;.m ;.3.% # a.8 &Xn.tX[.xX+X@XiXoX{.oXlXiXv.f.b.X.,.;.:.i $ g ",
"3 -.@ X + O # , ' ..d G ;.f./.).*X^.e.P d q ` W.W.tXpX}.zXKXtXj.&.&.^ r D f.& P.S.:XxXbXCXLXxXZXcXcXvXbX].XXoX[.`.`.z.d.v v d.G ",
"*.; 2 =.U.J.7.9X' # &.:.L v.v.;X*X^.q.m ;.H.<.` W.|.tXoXKXzXc.m f + y D.J S.{ `.kXCXFXHXFXKXZXSXZXlXpXmXpXaXXXXX`.`.b.b.K.l.;.;.",
"Q < 7.Q e a < # = 2.&.;.c f.{..X2XC.L n u & W U.+.rX[.|.KXW.:.G P B.d d (.;X`.DXFXJXJXSXSXAXAXsXpXlXyX'.rXrXrXaXaXXX`.XX`.K.d.} ",
"1 ! # # 2 s &.2.Q.&.;.n f.A./.;X2X(.L 4 * u e , D.L.L.|.MXG.f 6 5 6 n.;.4X.XcXSXHXHXFXHXmXDXyXqXyX'.'.P.rXL.'.].].XX`.'.`.`.L.l.",
"1 W + Y.Q.Y.Y.[ W ..` N A.f..X1X4XZ.J 7 B.3.R.H.m z.z.|.lX` ) ] o.r v.;XnXxXSXSXSXDXZXiXAXrXqXqXs.0X_ fX^ 9X .W.eXG.L.K.L.'.I.'.",
"! # 2.z < Q Q 7.J.t g L.d.f.~.;X2X(.c L c B.c.R.>Xz.i.MXlXb $ + y P.[.4XvXHXSXSXIXmXMX}.lX}.qXqXs.F.2.Y.@.@.W.2.t D.U.I.wXrXP.wX",
"T 1 _ a W.6.1.a & / U.I.M {.C.*X*X(.c L c.q g F.wXwX0XMX}.f S.B.x p.xXJXcXAXSXZXcXiXpXyX}.lXK.P.P.h.:.c.O.~ Q.f I.a.W.W.| O.K.F.",
"[ e E =.& & e >.W.W.H.{ d.A.C.).2XC.C.v.7 b H.F.o.I.K.NXfX:.V F [.`.JXJXXXpXAXmXlXNXyXaXiXrXiX'.I.L.;.c.O.O.Y.u a.+.G.4 X.I.h.D.",
"k k / a 6 ,XwX9X9XwXX.` |.d.d./.1X).~.q.D :.q ^ H.L.I.fX>XK Z.D /.cXZXHXaX].aXsXmXMXAXNXFXMXcXMXtX}.Y.x.j.,.G.` +.a.y | D.>.eXW.",
"l ( _ < Y.Y.U.I.+.t ^ }.L.M }.!.+X_.).Z.I 9 ` L.G.L.x.|.nXN.8 S.4XFXSXDXpX].].sXAXIXGXIXJXJXFXJXFXBXzXtXW.D.,.>. .F.w +.>.Q.q & ",
"] t ^ e +.F.d u &.Y.uX0X{ k.[.m. X!.w.*Xe.F ;.4 d n.R.n.nXA.;.R.CXnXZX].aXmXGXGXUXpXNXeXgXfXjXjXFXKXKXGXNXyXL.H._ F.^ 6.&.;., J.",
"W ] ) t a.T d fXgXeXwXo.| }.n./.!.m.C.(.e.M.5 L {.(.{.{.BXtXz.>XPXnX}.yXsXAXBXgXD.6.) j.>.j.n.M z.R.zXFXIXGXNX|.G.<.+.g 2.l e +.",
"_ v ` ^ o.t H.L.I.I.h j.rX'.k.{.Z.C.v.A.C.Z.8 Z.Y t.:X;XfXgXA V.PXnXgXlXUXyXE.4.V.A E ..<.>.o.K.x g.R.|.tXBXPXKXfXK.H.] <.l ) w ",
"<.`  .^ D.v H.h.t T fXeX0XK.L.[.C.C.f.;.{.C.f.e.u.#X=X:XgXzX9 C hXVXVXVXgXH.B.T.H T.p / / <.^ J.p.v ,.L.R.|.gXVXBXlXU.1.<.>.t T ",
"c.} g.v G.n x.n &.eXI.9X .L.0XI.L.;.} X.b.n.n.v.t.#X&X(.kX,Xi o T.hXV.9 3.E.U.X.Y.Z T.u ..! <.( H.t | h.x.n.R.oXvXKXzX|.H.F.T T ",
"x.,.g.{ z.;.j.b B.R.F.O.tXeXI.s.K.X.n ,.D.p.b.v.=X=X&XS.Z : o     @ @ - V -XL.,.A.F $Xz ^ T -.A <.) ^ | x.R.n.x.R.kXKXzX|.F.| ~ ",
"x.G.l.g.g.g.h.) j.j.h eXI.wXI.wXo.I.4 B.L.X.k.f.t.=X:X:XF - o       @ V -X4X4X:X&XK &X5 T ' &.A >.+.t ) x.R.c.n.z.R.zXMXNXI.j. .",
"D.L.n.n.g.x.g.X. .j.2.H.wXo.eXX.F.| f E.R.} l.z.K $XZ.-X,XZ @ o   X @ $X-X&X:X=X:X&X&X7 o.' A H Q 6.t / ,.x.x.n.x.x.L.jXAXNXR.,.",
"l.x.n.R.z.n.k.j. .G.;.2._ }.O.a.a.0 W.R.R.,.F.K.c -Xf.,XgX2.X o @   o I CX=Xy.y.*X2X.XoXL.4 V.C Q +./ g | F.L.l.b.L.k.[.tXGXfXx.",
"l.l.n.R.R.R.n.n.;.x.` W._ D.y P.& G.W.W.G fX^ I.n ,XS.>XfXR.*.%X%XH @ - &XnX).~.^.~.1X3X{.{.3.* 6.Q ( h | a.I.l.K.k.b.n.b.lXBXfX",
"G. .x.j.[.[.[.[.A.n.g.,.G.1.^ ) % Q.6.6.*.E.O.+.1.S.E.E.R.tXVXVXBXzXP % V nXkX{.C.^.*X2X4X.Xb.D.1.&.l u ) ..F.o.D.i.k.k.d.L.vXBX",
"g 1. .j.L.R.|.{.{.[.L.l.x.x. .>.6 2.+.T :.A F.T b E.G R.}.vXzXoXxXFX>XP A.f.VXkX(.).r.w.~..X@XK.} Q.# _ / 6...X.F.i.b.b.k.d.|.BX",
"d >.>.>.x.G.}.XXoXoXrX`.L.L.j.g.v h F.I.h H.t j.d _ c.[.lXoXK.[.kXnXfXz.r j.-XCXkX.X0.v._.).+Xn.z.q + ..t ..J.+.D.p.b.k.b.X.c.gX",
"_ h <.b 2.x.D.}.rXrXiXtXoXoX[.L.l.v ^ l.h.X.j.,.L.x.tX|.}.}.K.`.>X;X,Xc.h.v :.nXCX;Xm.!._.<X5X.XL r  .X.E F.....F.g.b.g.l.,.} R.",
"..0 1.Q ( 2.,.D.I.'.tXjXkXkXkXjXrXL.L.l.b.XXtXtXlXjXzXfX0XP.'.}.{.>XN.N.G ;.:.E.PX3X!.!._.<X7X7X.Xv.f.5 c._ H.1.j.X.L.g.,.,.] o.",
"~ w W =.p &.2._ D.K.}.oXjXxXxXvXvXFXMXiXXX}.}.}.oX|.oX|.rX'.'.pX`.f.N.U U Z 6 R.vX3X X XOXOX<X7X5XA.c :.2.<.1._ G.) j.l.,.X.] ^ ",
"#.R , 2.l j =.&.;.j.G.L.[.>X3XbXzXBXzXFXAXNXlXjX}.'.a.p.d.vXrXrX'.{ N.I > 9 B.;.}.cX6X_._.OX<X5X6XjX[.l.] ..>.1.F.] X.X.o.| ) g ",
"dXR # 2.=.1 Q -.l 1.j.X.x.[.}.oXfXfXkXtXiXpXlXlXtXrX'.'.k.[.lX0Xs.D.6 3.%XV.G q yXZX4X1X<Xy._.6XLX6X`.L.X.1.=.=. .1.1. .| ^ ) ^ ",
"( + ; Q.' R u *.=.0 7._ _ D.F.K.}.R.|.R.W.tXrX'.rXpXXXrXrXK.ZXn.L.h.t + = + #  .|.KXLX+X_.y._.<X5X5X/.v.f.c./ 6.` 1. .<./ ) ^ T ",
"* u T.<.@.~ @ T.W R ( 1. .] o.o.1.W.D.W.|.L.I.pX].pXcXlXrXK.pXk.n.M F.w < h 1./ fXFXxX.X_._.OX<X8X5X.XC.f.z <.6./ <.E D./ ) ^ t ",
"H.9X9X7.+.# C %X! 7.; T...T <.c.>.' yXo.G.zXK.pXaXpXDXpXP.p.rXd.S.Z u / 1.k * &.tXHXxX)._.w.w.v.+X6X.Xz.p.F.1.Q [ ..) 1./ ) g h ",
"D.H.| w 0 &.E.-.+.! * %X~ J.u Q.U.T qXyX,.BX}.pXpXcXlXiXP.{ ].k.D $X9 % + u 2.c.lXMXxX.X~.~.).+X).6X.X[.p.' H.p 6.W 6./ / _ p Q ",
"9 ; z 2.H.I.a.J...q H.W.J.^ ` eXI.~ yXpXL.MX`.MXtXZXtX`.K.x L.n.5 Z $X5.5.*.q h.MXFX3X~.~.r.w.~.5X2X(.{.E.c., ..>.g <.g / ( p &.",
"3.B.4.Y.Y.] ' R o.W.}.L.F.{ tX}.F.P.DXD.jXjXiXiXiXiX Xn.{ r [.;.G % @ > > 6 1.'.ZXxX3X).v.q.q.w.*X7X3Xc 8 d 1...E _ ` _ l l k Q ",
"W ] 1.g 6 f :.L.I.K.x.n D.}.|.x.`.MXl.iXbXn.CX/.aXb.{.A.M 4 S.f ` 1.^ ) _ 1.o.'.ZXvX;Xr.0.0.P Z.*X4X;XA.c.j.)  .E 1.h ( l z z p ",
"F.T & q ;.Y.:.c.X.v M R.}.L.} }.vXn.[.cXd.3X.Xn.aXb.A.L } $ H 3.u , W T ^ ) p.pXZXjX(.r.d.f.M.Z.*X2X/.n.;. .>.e [ >.Q j Q k j 2 ",
"% % G 2.^ o.,.d 8 B.L.D.g.v oXlXf.[.iXg.n.oX0.[.`.i.f.m | + + C 5.%.*.&.t t '.ZXZX Xv.d.v v f S.:X;Xf.z.c.>.0 [ =.p z &.h h E h ",
"9 :.2.h F.^ $ m B.G x.v r [.}.d.f.oXL.} [./.L [.L.} :.% 6.t # . o o - * d K.mXHXjXm.f.L M L ,XP ;X4XoX4 5 4 [ =.W k $.p a W h h ",
"4.6 t ' q % 3.:.h I.4 d tXL.L 7 R.[.N f.L.} f.M.z.7 S.> & ' ^ h e W ( m G.lXAXjXA.f.L B Y 9 8 A..X/.k.}.Y.=.*.z e W &.u a Q < h ",
"* l ] & * 3.H m o.0 d A.x.n 6 S.L.{ c S.D.r M.F z.4 D 3.u & e 0 w T ) x.tXGXMX[.f.L J P I Z.J n./.f.L.,.b 2.z p a [ a p k u j k ",
"w ] & + H H q 6.& & E.B.;.5 :.:.h.$ :.:.g.$ F I n X.q u G &.( _  .' a.yXZXMXrXg.P D G c c 7 q.f.{.d.c M.*.u e W Q s p k z i C S ",
"R ! . : 5.@ ..w + *.:.B.5 $ N.F ,.$ :.D &.m % P &.0 ] ` G G m _ X.F.rXmXZXoXb.d.P F P m k.M w.(.v.A.6 % * p [ a s 3 s s p z i i ",
"~ 1 = : S @ .., + 4.A G & $ N.Z ,.+ f V.u ;.g & l &._ l :.;.;.X.h.rXmXZX3XA.L P P F U D r b.v.C.C.m W.X.1.k 2 $.e Q 3 A a 1 Q * ",
", W . o 5.@ e W * i H A h + Z U f ;.+ 6 ;.h / ` j f f f m ;.} h.XXmXZXoXA.f.f.L F Z V M.M m.v.C.M.G $ , , Q $.* W < $.i a [ , T ",
"O Q = o S i & [ , + H Z g t + H G G h 0 0 h ( G &.&.G &.,.h.P.yXMXZX{.v.n.M ;.n b l 6 5 f.A.v.v.D V.5.H -.a , ! < s < a s p e w ",
"+ = Q   @ 5.2 a Q = ; H h ` f @ i z ) ' W t u f f m &.} X.I.pXmXjX{.C.q.f.L m M b h c.f M.C.0.v.6 ; Z C = a W # s s a a A * Q W ",
"* . a Q @ 3 *.; 2 Q # # ( z j m q q q g ` _ &.;.,. .h.L.rXmXMXjX|.v.M.K L :.P F F Z d.n M.C.P c F., # , R R = s a 2 u p 2 Q i $.",
"*.2 X a s @ - A u = W t & * &.Q ) / l d h g ` } X.p.I.pXmXmX>XA.d.f.e.F D f 9 % 9 F ;.d.f.P P % ] +.[ [ 1 # $.p a a p k < p $.@ ",
"@ A s . < [ , # A S i 2 a W # 0 h / _  . .,.h.l.K.rXsXmXcX|.A.A.z.n f f G m n :.% K f.f.f.G 3.- + * O   2 Q 2 < p a Q & $.s 2 < ",
"o @ s s # # 1 a @ ; C &.W t W h h h g ^  .X.K.'.pXDXmXXX[.f.L P n b ;.A A f d ;.c J v.q.n.f H H o - i $.A 2 2 Q u Q + E j z = Q ",
"k = + 2 $.s = = Q p u < e 0 Q l ( _ ] | h.L.aXDXmXjX{.A.v.f.0.L L f i % : S H D q.J ~.f.d.q * -.8.%.%.; # a 2 2 $.= k p j + E e ",
"< Q < . @ i A p O # e W W [ l Q =. .o.1.}.lXsXaXXXn.v.C.L c c c c m z i @ o U P L v.C.0.} >.    X X   2 ! 1 2 $.@ z u l 2 2 a e "
};
