/* XPM */
static char *_4d32f8f70284b50cc4fabdf8ee03717YJXdDut9PJhqaxy0[] = {
/* columns rows colors chars-per-pixel */
"64 64 256 2 ",
"   c #060C1B",
".  c #180A17",
"X  c #190B0D",
"o  c #270404",
"O  c #281716",
"+  c #35100F",
"@  c #352D12",
"#  c #1A0C28",
"$  c #051527",
"%  c #061A33",
"&  c #171A35",
"*  c #0F1227",
"=  c #281728",
"-  c #351727",
";  c #2C122E",
":  c #052638",
">  c #172838",
",  c #04363B",
"<  c #0F2E2E",
"1  c #2A2728",
"2  c #282937",
"3  c #313031",
"4  c #192215",
"5  c #50120B",
"6  c #6F120D",
"7  c #522E10",
"8  c #752616",
"9  c #702E0C",
"0  c #51172B",
"q  c #671B35",
"w  c #6D1427",
"e  c #4C2D2F",
"r  c #782629",
"t  c #7A3A28",
"y  c #6F302F",
"u  c #334A35",
"i  c #215030",
"p  c #724F0E",
"a  c #524D33",
"s  c #68583B",
"d  c #744C31",
"f  c #726F32",
"g  c #586020",
"h  c #142845",
"j  c #043848",
"k  c #173947",
"l  c #083C54",
"z  c #163A53",
"x  c #072D48",
"c  c #2C384A",
"v  c #1C3C65",
"b  c #483445",
"n  c #732F4A",
"m  c #5F1D43",
"M  c #04474B",
"N  c #17474A",
"B  c #084757",
"V  c #184757",
"C  c #075659",
"Z  c #175658",
"A  c #155A47",
"S  c #274649",
"D  c #264857",
"F  c #305450",
"G  c #106658",
"H  c #306954",
"J  c #074A64",
"K  c #154964",
"L  c #095666",
"P  c #185A68",
"I  c #095978",
"U  c #165975",
"Y  c #265867",
"T  c #2B596F",
"R  c #166369",
"E  c #0A6875",
"W  c #176777",
"Q  c #07767A",
"!  c #187479",
"~  c #0B6C6A",
"^  c #2A6469",
"/  c #256774",
"(  c #307472",
")  c #4C534C",
"_  c #6E4D47",
"`  c #526E50",
"'  c #706F51",
"]  c #4C716A",
"[  c #727664",
"{  c #495B6C",
"}  c #8D140F",
"|  c #AC1314",
" . c #872619",
".. c #912F13",
"X. c #AD2F12",
"o. c #8F1626",
"O. c #AD172A",
"+. c #982625",
"@. c #90322D",
"#. c #A93B26",
"$. c #B63929",
"%. c #B72838",
"&. c #AD2B2F",
"*. c #CA161C",
"=. c #CB3316",
"-. c #EA341C",
";. c #CF1925",
":. c #C6282A",
">. c #C93827",
",. c #D3312E",
"<. c #E9342B",
"1. c #E01E1F",
"2. c #934E13",
"3. c #B44D15",
"4. c #926411",
"5. c #B26C16",
"6. c #994626",
"7. c #894937",
"8. c #995A38",
"9. c #8E502D",
"0. c #AA4827",
"q. c #B64627",
"w. c #AB592A",
"e. c #B05334",
"r. c #926B30",
"t. c #B26E2F",
"y. c #CE5217",
"u. c #ED501C",
"i. c #CF6F19",
"p. c #F0711A",
"a. c #C84627",
"s. c #C75927",
"d. c #D3512F",
"f. c #E64927",
"g. c #E75633",
"h. c #F1502D",
"j. c #D77528",
"k. c #CA6639",
"l. c #D76738",
"z. c #CE722F",
"x. c #FA6627",
"c. c #F87828",
"v. c #EA7230",
"b. c #922C44",
"n. c #AC3146",
"m. c #CD2F44",
"M. c #8E514C",
"N. c #B5564A",
"B. c #8F7249",
"V. c #B1704D",
"C. c #9A7867",
"Z. c #CF5646",
"A. c #CF704C",
"S. c #E47444",
"D. c #EA4B45",
"F. c #1A8679",
"G. c #318C77",
"H. c #558B57",
"J. c #708B53",
"K. c #4D8D70",
"L. c #6F936F",
"P. c #50AB73",
"I. c #72AD70",
"U. c #67A854",
"Y. c #65C273",
"T. c #B68B32",
"R. c #B4A435",
"E. c #93872A",
"W. c #D99617",
"Q. c #CE8D14",
"!. c #EB911A",
"~. c #D6AC19",
"^. c #EBAB1A",
"/. c #D8882A",
"(. c #D99526",
"). c #CF8E34",
"_. c #EA8727",
"`. c #E69828",
"'. c #F7963A",
"]. c #F0912E",
"[. c #D6A82F",
"{. c #E9A827",
"}. c #F5A72A",
"|. c #F6B42A",
" X c #EAB837",
".X c #F7B636",
"XX c #ECAB36",
"oX c #FAC438",
"OX c #F3CF30",
"+X c #E5D82F",
"@X c #908D4F",
"#X c #B08D4E",
"$X c #92AE52",
"%X c #B1AB50",
"&X c #8E936F",
"*X c #8DA96C",
"=X c #ADAF68",
"-X c #A69469",
";X c #CD924C",
":X c #F29549",
">X c #D5AB4F",
",X c #EFAE4D",
"<X c #CF9B67",
"1X c #DEA869",
"2X c #B4D36E",
"3X c #A8C563",
"4X c #D1CA4D",
"5X c #F1D048",
"6X c #D4C86E",
"7X c #E5CF6C",
"8X c #D4E15E",
"9X c #B4C63C",
"0X c #077886",
"qX c #177987",
"wX c #136E88",
"eX c #267887",
"rX c #2A7189",
"tX c #165C86",
"yX c #467E86",
"uX c #927B81",
"iX c #09858B",
"pX c #198489",
"aX c #088896",
"sX c #188897",
"dX c #169799",
"fX c #099598",
"gX c #278B88",
"hX c #348886",
"jX c #258B96",
"kX c #329692",
"lX c #13A991",
"zX c #2EA998",
"xX c #1899A6",
"cX c #0F91A5",
"vX c #2E93A5",
"bX c #14AFAC",
"nX c #26BAA6",
"mX c #38B4AA",
"MX c #2DB0B1",
"NX c #47938E",
"BX c #4CAE91",
"VX c #6FB091",
"CX c #46AFA7",
"ZX c #52A8A5",
"AX c #18CCB7",
"SX c #2FCCB1",
"DX c #34C79B",
"FX c #55C696",
"GX c #4ECAB2",
"HX c #6DD2B5",
"JX c #1EB5C5",
"KX c #2CD1C7",
"LX c #52DFC9",
"PX c #8AB289",
"IX c #A5B589",
"UX c #9FD99F",
/* pixels */
"O e a y #.d.q.k...6 } X.+. .+.e.k.k.z.t.4.4.4.p d 9.E.>X>X>X[.4...&.} +.+. .y 7 e ) 3 > j l N V Y ^ ^ < 4 O = 2 h c e d ..} 8 8 ",
"0 e _ 5 0.$.Z.#.6  .$.#.q.e.....6.6.2.2.4.r.@X@X@XB.g f r.;X7X>Xe.+.O.} &.@.y - 1 1 2 c Y P ^ ( yX( Z N 3 1 = & z > c e t @. .8 ",
"q 0 n e r &.Z.} 6 #.0.0.Z.A.0.9 9 d w.t.>X6X=X*XL.L.L.J.s g @X6X1Xw.&.| %.&.y e 2 2 3 3 S Y ! gXhXhXZ N > * h z K x V k u _ d 9 ",
"w q y y 6 @.&.}  .N...6.e.Z.V.9 a s #X>X7X%XJ.` K.VXVXPXUX&Xg E.6X>Xq.O.O.+.y e c ) ) S k P ! pXeXeXC , : > h x J J K V N u 7. .",
"w w r r y 6  .6 } Z.6.t 8 9.N.5 ' B.>X,X7Xf H gXG.G.K.K.L.PX*Xg E.6XA.#.} +.r 5 _ ) ] ^ M M J E tXU L B B V l l Z P K V Z u 7.0.",
"w w o.o.r 5 6 6 } #.8.9.t t d 7 s B.>X,X>Xf H hXhXK.K.` s f @X=Xf %X1X0.} +.8 y ' ` K.zXgXpX0XwXwXwXeXeXrX/ B P R P U B P F t e.",
"o.o.O.O.o.o.6 } 6 6 @.t y y - - ) B.>XXX,X#X` ] ] a a d w.w.f @X@X@X1X0. .w r M.[ H kXSXmXSXMXMXMXbXvXvXhX/ B Z W R tXL R ) d e.",
"6 o.%.O.O.&.&.+.o.+.@. .@.r 5 0 a s T.>X>X#Xs [ ) a 7 7 0.l.8.f *Xf 1Xe. .8 7.C.&XF gXCXmXmXMXmXnXmXmXkXW B L W W W wXW ^ ) 8.e.",
"} } O.O.%.%.%.&.$.q.$.$.d.D.>. .e a a f B.d d B.` ` ] ' 8 N.A.r.f f #Xe.8  .B.-X[ ] ^ ! hXNXvXkXgXF.W K B J U W qXwX0X! H s 8.w.",
"| | | | | O.:.>.$.$.a.d.<.-.h.Z.7.e @ a a s M.B.) H K.L.@.$.v.;Xf f V.6.6 8.<X-X[ ] ( ! ~ C C C C C B J U W qXsXqXwXpX( ` r.t.2.",
"h.f.a.=.=.| | | ....q.d.g.h.f.=.q.@.t t y d _ e H ( P.*X#.=.c.:Xr.B.8...2.;X<X@X[ ( Q iXiXdXsXiXaXaXaXsXsXdXdXsXqXkXhX] B.V.8.9 ",
"f.g.d.g.g.f.>.>.} } 6 ..s.l.g.g.d.X...7.t 7 e e ] L.*X%XX.f.c.'.9.d 9.r.;X=XJ.H.( gXMXMXMXmXmXCXmXzXzXkXkXkXG.G.K.K.` B.V.e.d d ",
"+.+.+.| X.X.q.a.a.a...6 9 2.s.z.v.s.6.d t e e ' ' &X=XT.X.g.:X,X9 d @X=X*XP.G.lXSXAXKXSXSXBXP.H.U.U.J.J.@X@X@X@X#X#X#X#Xw.6.7.d ",
"6  .$.Z.S.v.z.s.a.a.k.0.9 9 w.w.j.:X;X9.7._ ) ' B.<X;X2.y.v.,XT.7 B.IXPXP.zXnXAXAXDXFXBXP.U.$X3X3X9X4X>X>X[.XXXX'./.i.3.0.8.y + ",
"#.k.S.:X'.}..XXX/.5.w.A.8.9 8 e.z.:X:Xw.e.7.d B.#X:XZ.X.l.:X).4.p *XVXBXnXSXAXSXFXY.$X9X4X8X+X+X+XOXoXoX X X{.`.W.i.i.s.6.5 + 1 ",
"X.y.i.i.Q.W.~. X X,X5.w.V.9.y 8.z.:X:Xv.e.@.d #X;X:X=.>.v.,Xt.p =XI.BXnXAXSXGXFX3X4X5XOXOXOXOXoXoXoX.X.X,X,XXX`.].p.c.l.0.@.y + ",
"X.i._.!.{. X~.[. X X).4.z.t.d d t.'.:Xv.8.t 9.;Xv.c.=.u.:X:Xp @XPXBXbXKXSXGXI.2X8X5XOXOXOXOX.XXX_.j.i.3.2.w.t.t.s.y.d.l.l.Z.N.e.",
"l.j._.!.W.{. X[.[.[.[.4.z.t.s s w.'.:Xj.8.d 9.1Xv.u.=.x.:Xt.f *XBXSXAXAXDXY.8X5XOXOXOX|.^.~.W.(._.i.3.3... . .@.0.0.3.s.w.e.e.k.",
"w.l.c._.!.^.{.XXQ.[.[.5.t.r._ s t.].:Xz.' a r.1XS.y.y.v.;Xg &XVXmXAXAXSXU.8X5X+X~.~.^.^.|.OXOX|.|.].c.v.g.,.@.y a d 2.2.d a t 6.",
"9 q.x.c.].!.!.}.Q.[.(.5.w.B._ ' r.).:Xt.) ) B.<Xl.X.f.:X#Xg PXCXKXAXSXP.2X5X X~.[.(.!._.].XX{.~.Q.`.].p.h.D.n.q u u a 7 ) S e e ",
"9 ..g.x.x.].!.!.i.)./.5.8.d _ r.4.;X;XB.) u s <XA.X.g.:Xr.` HXzXAXAXP.3X7XW.`.i.i.j.g.g.Z.Z.z.).>X,X,Xj.y.a.#.8 3 S u u ^ / N < ",
"9 ..h.h.x.c.p._.i.z.).2.M.y d 9.5.>X#Xs ' a 7 V.A.X.d.:Xf H.BXnXAXDXI.7X(.i.y.g.f.f.,.m.m.%.+...9 9.;X1X,Xz.3.9 3 D Z P W wXR C ",
"} $.f.f.x.x.u.v.3.z.k.9 7.8 2.5.>X%XJ.' ' s 7 d A.X.s.:Xs L.zXDXDXP.2X).i.u.-.h.f.<.,.m.m.n.+.@.r 5 7 8.>X,Xz...0 c D U wXwXE L ",
"X.>.=.f.f.f.g.y.3.A.0.6 8 6.5.XX1XE.J.L.r.r.r.9 t.2.s.;Xa BXzXnXBXI.6X5.d.h.h.<.<.,.m.n.&.+.+.b.@.r w 5 p [.,XA.w 0 c T W U P L ",
"| | =.g.f.-.h.=.a.a.6  .2.t.,X,X@X' I.I.B.t.t.t.6.6.5.;X) NXbXnXP.2X#Xw.g.<.D.m.:.%.&.+. .@.@.@.0.N.N.8 5 p ;X1X8.o 2 D { D B J ",
":.,.>.=.-.-.>.>.a.} @...z.5X,X%Xu H.VXI.B.;X).z.w.2.5.#X) kXxXzXI.=X2.l.D.<.O.O.o.o.w r t M.N.A.e...Z.A.7 + w.;XV.5 1 3 ) ) k : ",
":.:.>.:.=.-.,.>.X...0.z.5X5X3Xg A kXZXPX&X#X>X,X).2.2.#XF kXdXkX*XT.k.d.X.+.+.n.n.b.b.n n n b.6.;Xt.3.1XC.o p >X#X7 7 @ 3 2 % $ ",
"&.&.&.%.:.,.:.X.X.3.z.5X X4Xf i ~ F.NXVXPX-X>X,X,XT.9 B.F hXjXG.$XT.k.q...e.@.&.n.n.M.n n m q y 9 ).j.S.7.o 2.;Xt.9 9.s 3 < % , ",
"+.&.| O.>.| } | y.3..X X5XR.u H H A A H L.*X%X>X7X>Xr.B.u ( gXG.%Xt.t...t.t.k.A.A.N.M.M.b.n m 0 d 2.).5.5 9 z.;Xt.5 M.C.) S k N ",
"8  .+.&. .6 } $.y.i.oX~.7X7 u u ) ` H.` ` J.@X=X3X6X1Xr.u ^ ( K.#XT.2.t.).z.5.3...7 0 e e - c b M.8.).).k.S.S.w.d o _ uX{ Y P R ",
"8 8 e.0.5 5 #.l.3.XX5X5X%X@ @ f #XT.%X=X3X*X*XJ.*X=X6XB.3 Y ! ] -Xt.5.).Q.Q.,X,X1X#X` F H { D * 0 V.A.z.l.k.0.t 5 O ) ] ^ ! pXpX",
"t @.e.8 5  .0.3.i..XOX4X#X@ f #X:X,X8X2XUXUXUXUXVXI.@X-X1 D R H B.t.T.(.W.oXW.5.4.@XH.A Z ( ( S + 5 9.w.w...6 + X > N Z G.CXvXQ ",
"@.7.B.5 6 ..s.i.`. X+X+X%X7 t.:X'.>X3XUXHXHXHXGXHXVXI.J.) 2 ^ H B.t.).Q.OXOXW.5.' ) ` F G ~ hX] @ + o + + + o X 2 k Z G.CXmX! L ",
" .M.7.5 8 #.s.i.(.oXOX+X%Xp ).:X].t.*XHXLXLXSXSXGXGXVXL.] < Z H r.T.[. XOX^.Q.r.` D ^ ^ ~ Q gXK.IX&X) 3 3 a ) F N B ( ZXvXqXE L ",
"..V.y + ..3.s.j.'.XXOX+X4Xp T.).5.4.H.HXLXKXLXLXSXKXGXZXVXV j F f ).[. XoXoX5X%X) ^ eXqXiXQ jX( L.*XPX&X[ ) D M L E F.! I I U l ",
"2.V.0 + #.3.i._.`..XOX5X4XE.E.>X>X%X] HXLXLXSXlXbXbXbXmXZXNXj i 7 ;X).XXoX5X4X$XK.hXjXsXdXiXjX~ G i < < , N P W ! ! ~ E rXtXJ J ",
"3.V.+ + #.3.i.].].`. X5X+X[.E.g g H.NXGXFXFXlXbXJXJXJXMXMXCXN 1 @ #X).XXoX4XU.G.kXqXQ iXxXaXpXqX~ ~ ! / R M M C ( ! G C I I L I ",
"s.8.O - 0.3.i./.`..X.X XOX+X%X$XU.U.P.BXPXP.zXMXMXMXMXxXMXzX] 4 @ B.).(.,XR.K.zXiX0XQ dXxXdXjXjXzXdXsXjXpXqXW G A Z ( ( T rXW L ",
"q.6.O O 9.3.3.z.XX(.XX.XoXoX4XR.R.%X-X-X=XI.BXzXG.K.G.F.gXgXNXk 1 s ;X/.,X@XF.fXiXxXMXMXMXmXzXmXMXMXmXMXzXgXpX! P z c ) ) c S N ",
"0.@.O O 8.w.3.i.XX{.{..X|.|.oX X X X5XT.p J.H.I.*X$X*XH.H ( ( Y < e ;Xi.>X@XkXcXxXMXMXMXmXCXzXCXHXGXCXMXzXdXdXpXW T c 3 e e 1 2 ",
"8 t X 1 d V.0.3.`.{.|.{.}.|.{.oX|.^..XT.f ` $X$X>X[.R.%XJ.F ( Y N 4 V.t.;X-XhXfXbXbXmXmXCXkXgXG ] VXBXzXnXbXbXiXqX/ Y > 1 - - + ",
"5 _ X 1 e V.0.3.i.`.{.{.{.!.}.W.|.^.~.[.@Xf %X X{.5XoXR.%Xa F Y N 3 7 V.t.-X] dXbXbXmXmXkXkXeXM u J.VXBXnXbXbXxXjXwXU h # + 5 0 ",
"o e - = 3 M.e.a.y.j.(.`.!.!.W.(.(.).T.r.r.r.[.W.^.|.5X XR.f H M Z F O 7.w.V.[ G.dXlXmXCXkXeXrXT 1 ' PXL.kXfXaXxXvXwXL z ; 0 q q ",
"o X b # 3 a V.q.=.d./.Q.Q.}.W.(.).T.T.;X;Xt.{.W.}.|. X X).r.i M G ( > e 9.9.B.` G.F.hXkXkXeXrX{ - B.-X[ G.dXaXaXsXwXI V ; q q 0 ",
"X . 2 & > 3 M.e.$.a.3./.].i./._.:X:X,X).i.`.{.W.}.|. X X/.t.u M ~ kXV > - d 9.M.' ] ( ( ( hXT 3 7 B.@XJ.kXxXxXcX0XwXI V ; q w 6 ",
". * * $ > 2 a V.$.,.a.s.j.j.j.j.i.y.i./._.!.!.}.}.`.{.(./.r.S j Q zX! V > e 7 t n _ { T D D 3 @ p T.V.' G.Q sXsXwXI I z ; 0 0 5 ",
"* $ : % : < 3 s N.:.>.>.d.l.y.x.x.p.v.j.j._._._.].]./.5.;Xd < J iXxXjXW D 2 1 1 3 e e e 3 - 7 t z./.t.B.L.( R ! rXU K h 2 - . . ",
"& $ k z % , , 1 7.n.:.,.d.d.f.f.y.u.y.z.l.v.c.c.p.y.5.;XB.@ k wXxXxXsX! K D S 3 e 0 5 5 7 d w.)./.]./.;X=X*X` A P K v h &   > D ",
"& % : z V , , k - M.n.%.:.,.h.h.f.d.s.k.k.k.a.=.=.y.k.V.a 3 P jXaXMXaXsXE ^ F ) d 6.k.z.j./.(.(.W.(.XX:Xz.T.=Xg N V h % $ h Y P ",
"& & h z P B j V k b M.b.&.%.:.*.*.X.X.X.X.X.X.>.d.Z.N.e S Z ! sXxXxXxXaXE R ^ ) d e.k.'.'.].}.{.~.W.(.'.].i.).f < z h % : V P R ",
"& & : j P P l V ^ : S ) _ @.%.,.;.;.;.;.;.;.,.:.&.r 0 3 N ! iXfXxXiXxX0XW R ( H ` ' w.l.'.].}.{.{.{.(.].'./.).#X1 k % % N P P P ",
"& & % j K / B j eXM , S ) _ y b.&.%.%.:.m.%.&.@.q e S k L E dXiXxX0XxX0XW ~ gXG K.` V.q.v.].].}.{.{.`._.]._.j.;Xe & $ % V R P L ",
": : % z B W W j E eXl x k F ) c b b b e 0 e 3 c S D : B W jXiXiXiXiXqXE W ~ gX~ G.K.C.e.s.'._.].}.!.!._._.p.i.A.e # * > B C L C ",
"% : % z B W eXj J vXK l x z V V V c c c c D V V j j L U eXE 0XsXQ qXE I W E pX~ F.NX[ V.3.v.c.p.].!.!._.p.p.y.k.0 . # k B C C B ",
"* $ % x B E qXl B vXU T l : x j , : h k z V l j B L W rXI wXwXI E W L L L E qXQ gXNX] C.#.f.c.p.p._.p.p.p.x.u.q.5 ; & h B B B j ",
"  * > : B L W B J vX/ U J j B l N V V V z z V Y T T D V K U I tXW L L L L E wXQ jXgXNX[ $.-.x.x.p.c.p.p.x.x.y.q.+ - = & l B j : ",
"    > : , / T : J vXL U C j V D V V K K V D c c = = . * > k V K l B B B J E qXE jXjXNX) &.,.h.x.u.x.x.u.u.f.a...o ; # & h x x : ",
"$   $ $ j V z : L hXP P B V V z V z k k 2 ; 0 0 0 e 3 1 * $ $ : x l B L E E 0XqXsXqXyX_ &.:.h.u.u.x.u.u.f.-.a. .o ; = # > : : : ",
"$   $ > D N % : ( / B M N Y j , > = - 0 0 w w q 0 - > k k : $   z Y P P E Q 0X0XaX! ] _ o.:.<.-.-.h.-.-.<.,.$.6 o = ; = & & % % ",
"$ $ $ & : $ : Y ( M , N N N : < = - 0 w w o.o.w - 2 D Z V x $   : V P L E E Q 0XiX! ) n } :.<.1.-.<.-.-.<.:.$.6 o = ; ; # * * * ",
"> $ $ $ $ : N ^ M , , N , % * = ; 0 q w w r 0 + 3 F ^ R V k <   : j B L R E E pX~ ^ b w o.:.1.1.1.<.1.1.1.:.&.6 o . ; ; # # *   ",
"c : > h k D D : : , : > % * = ; 0 0 0 q q q 0 1 D P P C Z V > $ j B V K P P ~ ! Z F q 6 %.;.;.1.1.1.1.;.;.O.&.6 o X = ; # # . . ",
"x : k k : : : : % % $   * # ; - 0 0 w q q 0 ; > V P W L B B j j j B B B K P P Z S e w o.;.;.*.;.*.;.;.*.;.| +.8 + X . O # # . X ",
": : : : : : % % $ $ * # # # ; - 5 5 w w q 0 & h K J J L P B B B B M B V K V B N c 0 6 %.| ;.| ;.*.*.*.*.;.| +.6 - X o . . # . X "
};
