/* XPM */
static char *b7a7f953eee64cc2c5f8c467e46db1e3d9okI97pEPOsvi8y[] = {
/* columns rows colors chars-per-pixel */
"64 64 256 2 ",
"   c #753113",
".  c #6F3131",
"X  c #622A26",
"o  c #73451B",
"O  c #564A31",
"+  c #684638",
"@  c #784839",
"#  c #785737",
"$  c #70502A",
"%  c #6F6F39",
"&  c #546029",
"*  c #4D344C",
"=  c #6E344E",
"-  c #6C3771",
";  c #573364",
":  c #354E76",
">  c #2E6767",
",  c #554C55",
"<  c #764648",
"1  c #785748",
"2  c #674A59",
"3  c #7A4957",
"4  c #695557",
"5  c #785659",
"6  c #674F49",
"7  c #556D56",
"8  c #736B4F",
"9  c #555270",
"0  c #6C5969",
"q  c #795566",
"w  c #785A77",
"e  c #6B4C72",
"r  c #566C76",
"t  c #6A666A",
"y  c #776768",
"u  c #686978",
"i  c #776677",
"p  c #717673",
"a  c #34454D",
"s  c #8C1915",
"d  c #AE1109",
"f  c #8F2F16",
"g  c #AC290E",
"h  c #8C312D",
"j  c #AC3927",
"k  c #961A36",
"l  c #C61D06",
"z  c #884728",
"x  c #8C5033",
"c  c #886A38",
"v  c #A24835",
"b  c #8A324D",
"n  c #8F356C",
"m  c #895150",
"M  c #8C6C51",
"N  c #894E71",
"B  c #876B70",
"V  c #A94850",
"C  c #59883F",
"Z  c #71894E",
"A  c #6C8D73",
"S  c #5E9D67",
"D  c #3FB162",
"F  c #8B9368",
"G  c #193698",
"H  c #31309C",
"J  c #391AB0",
"K  c #1C34A8",
"L  c #2B39AA",
"P  c #3637A7",
"I  c #372ABA",
"U  c #3838B7",
"Y  c #2F2EAE",
"T  c #2B179A",
"R  c #543995",
"E  c #733E8F",
"W  c #5018B1",
"Q  c #4839A9",
"!  c #4828B9",
"~  c #4837B7",
"^  c #5936B6",
"/  c #532CAE",
"(  c #6B31AF",
")  c #641EBF",
"_  c #33519B",
"`  c #34708E",
"'  c #1451AB",
"]  c #2748A7",
"[  c #3747AB",
"{  c #2746B7",
"}  c #3747B8",
"|  c #2857B9",
" . c #3857B9",
".. c #3456AC",
"X. c #2866B7",
"o. c #3767BB",
"O. c #3571B1",
"+. c #186DA6",
"@. c #51568F",
"#. c #675789",
"$. c #694B99",
"%. c #744A97",
"&. c #685897",
"*. c #765699",
"=. c #714F88",
"-. c #587597",
";. c #526D92",
":. c #696A85",
">. c #766785",
",. c #677889",
"<. c #676898",
"1. c #6A7897",
"2. c #787A99",
"3. c #776F90",
"4. c #4446AA",
"5. c #5547A8",
"6. c #4748B8",
"7. c #5648B8",
"8. c #4858B9",
"9. c #5659B8",
"0. c #5256A9",
"q. c #6749AA",
"w. c #7549A7",
"e. c #6757A9",
"r. c #7758A8",
"t. c #6757B7",
"y. c #7250B7",
"u. c #4A77A8",
"i. c #4968BB",
"p. c #5965B9",
"a. c #4678B7",
"s. c #5877B8",
"d. c #536DA9",
"f. c #6769A8",
"g. c #7966AB",
"h. c #6879A9",
"j. c #7778A9",
"k. c #6967B8",
"l. c #7666B7",
"z. c #6878B8",
"x. c #7A76B7",
"c. c #3A2FC8",
"v. c #4828C6",
"b. c #5033C8",
"n. c #6937C5",
"m. c #5A18C5",
"M. c #3848C4",
"N. c #3A59C5",
"B. c #2F56C8",
"V. c #2667C5",
"C. c #3967C7",
"Z. c #3776C7",
"A. c #3B6CD6",
"S. c #3978D6",
"D. c #2B77CA",
"F. c #2E7CD2",
"G. c #4647C6",
"H. c #5347C8",
"J. c #4858C8",
"K. c #5559C7",
"L. c #4858D5",
"P. c #5355D4",
"I. c #6F52C9",
"U. c #4767CA",
"Y. c #5867C5",
"T. c #4876C8",
"R. c #567AC7",
"E. c #4967D6",
"W. c #5767D5",
"Q. c #4977D8",
"!. c #5777D5",
"~. c #6668C6",
"^. c #6777C5",
"/. c #6768D6",
"(. c #7273D0",
"). c #5777E7",
"_. c #4C73E5",
"`. c #6C76EB",
"'. c #5D51E6",
"]. c #953794",
"[. c #8D38B2",
"{. c #AA34AB",
"}. c #A73192",
"|. c #8B4F93",
" X c #856786",
".X c #896B92",
"XX c #8747A8",
"oX c #8657A7",
"OX c #8A48B8",
"+X c #8957B7",
"@X c #974CB0",
"#X c #A846AE",
"$X c #8869B8",
"%X c #8872AE",
"&X c #AA63BF",
"*X c #8C32C7",
"=X c #9257C7",
"-X c #906CCD",
";X c #9B69DA",
":X c #358CB4",
">X c #2E9CA3",
",X c #558B94",
"<X c #728893",
"1X c #5788A8",
"2X c #4888B9",
"3X c #5987B8",
"4X c #5094AF",
"5X c #6887A9",
"6X c #7988A9",
"7X c #6787B8",
"8X c #7886B9",
"9X c #6A96B8",
"0X c #7096AF",
"qX c #52A9B4",
"wX c #6FAAB7",
"eX c #62B190",
"rX c #3A84C9",
"tX c #3A96D9",
"yX c #308ECD",
"uX c #35A8D0",
"iX c #38AFE8",
"pX c #2D93D3",
"aX c #4888C7",
"sX c #5989C7",
"dX c #4998C9",
"fX c #5994CA",
"gX c #4787D7",
"hX c #5787D8",
"jX c #4697D6",
"kX c #5796D8",
"lX c #6787C6",
"zX c #6E90D1",
"xX c #52AECF",
"cX c #6CABD1",
"vX c #4986E6",
"bX c #5898E8",
"nX c #5593EF",
"mX c #6D91EE",
"MX c #54A7EA",
"NX c #52B1EE",
"BX c #6DAFEC",
"VX c #36CBD6",
"CX c #2ED4EA",
"ZX c #3DE8EF",
"AX c #52CED1",
"SX c #52CDF5",
"DX c #4CE2F5",
"FX c #6BC5E5",
"GX c #4FC998",
"HX c #898D95",
"JX c #8486B8",
"KX c #898FAE",
"LX c #989895",
"PX c #888ECE",
"IX c #8691EB",
"UX c #82B2E5",
/* pixels */
"d d g g d g x c x c Z S D C o $ Z & # . 1 m X y A 7 7 A GXD t 2 <X,.u -.AXxX9Xj.j.j.JX%X(.IXmXhX!.] T.BXZXDXrXG L { B.S.| B.nX' ",
"d d g g s f o     z & & S C & F Z & x   . m @ 6 A A 4 7 GXGXp 0 u <X<XwXqXAX4X8X<.JXg.$Xl.5.4.U.U.i...kXSXSXBX .W.E.E.mXmXB.A.nX",
"d d g g f z x   f f   o % % % % # x h s X m @ 1 p 7 6 7 eXeXp w HX,.0XqXAXqXqXcXJXoX+X+Xw.I./.Y.K.IX~.] tXFXUXU.J.} L L.mX).} J.",
"j g g f   c c   f g f   $ % % $ x v s s h m < B 4 y 6 t eXA ,  X:.0XqXAXqXqXAX4Xf.+X=XOXy.I.Q 4.K.8./.[ ] hXQ...J.U K K { E.J.U ",
"v j g f $ % c $ f v x $ % % % c v s h . m 5 5 5 5 5 i .X>.u >.:.,XwXVXVX>X>XAXxXj.$Xy.I.I.7.9.Y.8.[ } K.P P L J.`.M.{ B.{ B.vXvX",
"    f o % Z c z z o o $ 8 F x   h s h m 6 t y 0 y i ,.,.>.>.:.<X4XqXDXAXxXqXAXqXx.y.I.I.H.6.i... .U.N.W.P Q } J.G.P.mXBX).{ A.nX",
"f   $ % Z % z f   & & % . h h f   h m y 7 p t p <X,X,XqX-.-.-.1XqXAXuX:XO.BXSXqXf.y.I.! G.Q.Z.MXgX| A.mX} G._.| E.L.).`.mXN.M.J.",
"j f % Z Z % f   c F S %   s s h h m B , HX<Xr <X<XwXAXAXwXzX9XcXAXxXO.o.o.O.FXxX(.y.^ H.E.S.tXyXnXvX' S.E.E.nXvX).L L } `.} ~ I.",
"j f z c % % z   8 F S & X h s k b m 5 t <X,X,X,XHX2.qXcX7XJXz.zXBXdXo. . .N.T.R.q.R 7.W.A.D.tXD.V.S.V.S.| Q.nXnX).L U U K.6./ ( ",
"g j f x % % z f o 8 A Z 1   h V . B 2 3.,X,X4X0X3.j.9X4Xd.f.k.zXBXo.N.G.G.G.} i.5.~.W.N.A.vXMXvXS.nX' vXvX' ' S.U.`./.P K.^ ( ( ",
"d j   $ x x z   s h M # M @ m m 5 B 2 3.,XqXwX5Xh.8XcXlXlXk.k.~.hXC.} U v.b.J.J.8.Y.C.A.vXA.C.G  .U.Q.S.BX' ' vXU.mXmX4.I.( ( ( ",
"d g f c o x x z f s . + 6 O . < t p i <X4XqX9Xh.9XlXlXs.lX9.7.K.U.N.K Y I I L.N.W. .Q.S.C.B.U.J.U.!. .| S.F.S.S.C.U.!.4.t.q.^ ( ",
"d s z x   z x M . h . + 7 7 6 4 p r ,.0XqXwX5XlX3XlX0.5.~.9.5.I.K.} { A.A.{ M.N.M.N.nX_.N.E.U.J.E.).W.} ).B.A.vX| U.Y.4.i.hXY.~.",
"d d f h   $ O # # m + 8 LXeXp t LXr ,.0XwX9X8XlX3XfX0.H ..8.9./.K.} Q.)._.E.{ N.W._._.' N.W.} L U.] } J.N.).B.| C.hX9.9.T.bX!.Y.",
"d d g f x # O O 1 # O F LX7 t <X<Xr <X1.j.<.lX3XO.kXhXkXMXnXU.J.} } W.W.E.E.M.} L.L.N.B.E.P.7.K.N.mXL.U L.E.V.S.vXQ.8.9.p.Y.Y.9.",
"d d g f $ # M 8 # M + 1 O 6 t t <X<X1.%X%Xg.PXs.O.aX+.X.tXS.C.N.} J.H./.!.J.J.L } M.L.E.L.[ K.8. .U.`.L.K _.nXNXnX..i.Y.8.zXzXY.",
"d d j z # $ @ @ + 1 M . . b N w 6Xh.JX&.r.~.!.T.U.o.gXrXD.S.N.} G.6./.W.mXQ.N.U.J.L.J.} [ K.~.~.Y.8.!.Q.o.X.iXSXY.0.T.hXT.hXhXo.",
"f f h z m 8 @ @ 1 O B . . N =  Xj.h.%X*.e.(.!.U.U.hXrXD.S.C.N.P.6.H.4.} 8.E.U.U.W.J.6.6.Y.Y.p.9.Y.Y.i.U.T.MXSXiXi.0.R.kXhXT.jXgX",
"% % $ $ 8 8 + + 8 7 A A p B q >.6X6Xg.$.0.lXR.i.Z.nXD.V.rXZ.V.C.} H.P 4.Q 9.W.U.W.H.7.7.Y.p.p.p.t.~.Y.Y.8.hXNXNXzX~.^.p.~.R.MXiX",
"C Z $ % 8 # + 1 6 A A A p i 0 :.6XJXg.$.@.sXsXaXZ.S.V.V.S.S.S.| } G.U./.K.7.Y.W.P 6.I.I.~.(.(.(.l.t.9.~.i.i.Z.gXi.p.^.p.k.R.kXNX",
"o $ $ M x @ @ 1 1 8 t , = q u ,.>.%X%Xe.d.2XxXdXgXB.{ B.| ' | !.} G.nXmXW.8.8.W.!.!.~.I.l.y.w.w.$Xt.k.Y.~.8...i.~.~.R.R.p.0.sXBX",
"o $ # # @ x m + 1 1 t y = 3 <X,.=.|.g.8XcXxXFXtX'  .M.N.).nXQ.U.~ G._.).} 9.6.K.!.8.5.q.y.w.w.w.w.l.(.9.Y.Y.Y.p.t.k.^.lXk.k.sXkX",
"x M M # % 8 1 < m y 7 y 3 = KX2.|.|.j.cXBXdXMXX.C.C.N.E.L.L } /.! ! b.b./ ^ y.7.7.5.q.w.y.q.q.e.w.w.k.p.^.(.~.9.t.l.(.e.%.r.lXcX",
"  o # O 8 6 + 1 5 y p , q w u 2.|.r.9XcXxXX.T.' vXgXC.E.J.P.`.b.! W W W n.^ I.y.7.q.5.R 0.^.zXIX(.e.e.k.p.Y.8.k.(.e.e.$.oX%.f.@.",
"  x x . M + < 5 5 4 t p HXu :.2.j.7XqXFXfX..8.K Z.rXkXT.).M.c.J v.! '.b.~ ~ H./.^ Q 0.R.kXBXBXFXBXcXz.e.k.~.R.kXzXs.z.d.$X*.*.R ",
"$     m @ < 6 4 q 0 t <X<Xu :.0X9X9XcXaXbX] K.N.Z.MXX.C.N.Y v.b.v.b.v.J b.U K./.I.(.zXmXzXaXO.aXfXsX^.l.t.k.a.fXd.0.d.7X&.$.=.%.",
"& O @ M + B y 4 y i r <X:.u ,XwXqXcXlX8.!. .U.U.bXO.X.S.} b.b.v.v.b.! ! ! ~ L.J.(.(.y.q.t.q.q.q.w.%.r.l.e.k.s.zX$.$.&.f.9 &.@.f.",
"Z 8 M + 6 y B 2 q i u r u :.<XwX4XcX0.9.!.vXT.Z.rXrXyXMXW.J v.v.b.! ~ H.! ~ M.N.] 6.q.R ( ( [.[.].E $.l.e.k.z.lXoX- %.=.#.g.h.-.",
"F 8 m X m < m = b N i u :.:.1.6X5Xh.0.6.U.nXbXjXMXyX+.bXQ / J I H.P P.Y P.M.{ Q.]  .~.t.9.5.[.[.[.w.$.l.e.e.z.f.%X- E =.=.&.@.@.",
"O O m . B = q 3 b b B <XKX:.<.JX8Xf.l.4.] gXtXtXNXyXpXjXG J U P.} J.mX} } J.N.A.nXbXmXi.i.~.OX( E l.k.k.r.$.g.&.#.=.- =.9 <.-.;.",
"& Z M + 5 , <Xt n n i KXKX,.-.8X8Xk.l.0._ rXtXD.uXSXiXNXmXJ.`.J.] !.mXW.Y P.E.| MXNXNXkXi.~.-Xq.q.l.zXz.r.%.%.#.@.<.- =.#.h.9XfX",
"D eXy + B p HXi N n e 2.2.1.<.JX8Xx.f.s.xXjXBXX.+.iXuXiXC. .Q.] C.!.N.U./.6.J.| V.yXtXBXT.4.p.t.q.l.UXd.*.%.$.&.6X<.; =.#.@.: -.",
"D S 8 . .Xi e  XN N n q .X>..X%X6X0X1XqXAXAXBXo.| Z.yXX.{ L N.Q.!.U.W.} /.6.J.J.[ [ } E.E.U.hXi.t.q.zXd.#.*.e.@.#.e - - <.;.* * ",
"> A 3 . B w - N w N n N w >..X.X1.0XqXqXAXAXsX[ } U.bXX.E.M.L.`. .8.W.K.6.~.[ K./.H.} L J.!.bXO.t.y.^.z.e .Xj.f.#.e e * -.1.0 X ",
". m k =  X Xn n N B N N w >..X>.g.j.7X4XxXFXp.^ ^ 6.bXV.B.M.L./.6.6.[ /.H ~.6.J.P.P._.} Q 8.bXbX9.y.e.%Xe =.<.<.e e <.: h.@.u , ",
"k b . N .X Xn n  Xw N q 2.<X2.#.oX%Xx.1XqXcX0.Q ^ P gXtX{ M.G.Y W.6.K.`.4./.P.U G.M._.U.4.4.tXNX/.t.$.%X|.- #.@.#.@.0X-.5X: 9 u ",
"k = 2 <XHXe n n  Xe B 2 ,XwX<X:.*.oX%X5X4XcXfXa.lXi.jXjX .K.W.J.mX8.mXp.4.`.H.! H.M.C.U.[ ..tXSX!.k.@.x.*.=.*.@.d.u.4X1X-.9 ; = ",
"= q p HX.X- n N .Xi  Xe r UX0X2.*.oX*.JX5XqXcXBXBXmXfXO...[ W.mXmX8.9.0./.`./ ! b.G.E.C...X.iXSXi.k.&.g.$.g.g.@.2XdX:X4X;.9 = = ",
"A <Xp .X Xw N e 2.1.>.>.e KXj.j.oXXXoX%XJX1X1X7X3XlX^.0.i...P /.~.9.0.(.IX/.! ! b.H.W.| C.o.NXjX0.%.%.$.R g.r.@.jXuX>XqX;.9 , 5 ",
"eXA , N w .X.X3.6Xh.:.|.n |.|.oX@X@XoX*.JX0X5Xh.7Xd.f.z.zXkX_ 0.t.t.(.(.K.~ ! ! ! H.).| U.X.NXjXk.$.oX$.@.&.&.@.jXpX` 4X;.;.9 y ",
"p 0 = N HX6XKXj.2.<..X|.|.].].].#X@X%X%X6X6X5Xh.j.j.8X7XxXBXfXsXp.k.;X^ ^ W ) W ! P.).N.U.o.BXkXIXe.g.x.@.#.3.9 2XuX` -.@.#.0 , ",
"LXq n .XKX1.<.j.JXj.%X|.|.].}.}.{.#X|.*.2.6XJXJX%X*.g.h.3XcXcXR...IXI./ ) n.) W H.L._.N.U.T.MXjXsXk.f.<.<.<.#.9 u.:X> ;.9 >.>.u ",
"N - - %X%X<.%Xj.JXj.$X|.@X|.}.}.{.{.}.@X+X$Xg.r.oX+X+Xw.l.l.~.9.R.mX/ W W W W ^ W.E.Q.C.C.vXtXdXd.f.<.;.h.j.9 9 -.;.` -., B i u ",
"|.|.3.j.<.%X%X&.g.r.+X|.@X#X#X{.{.{.{.#X@X+X-X;X=X;X;X=X+XXXw.t.mXY./ / ! I J } E.Q.A.C.V.MXiXtXu.@.@.#.&.<.u 9 <.@.u.-.2 3 0 4 ",
".X|.*.g.<.JX%X$.XX@X@X@X].#X#X&XXXXXoXoX+X+XOXOX=X=X-X-XoXw.+XI.(.7.H T U M.A.nXA.Q.o.o.V.MXiXiX2X: 9 e - - e 9 :.: 4X,X< . < 4 ",
"e >.>.j.j.8XPXg.[.[.#X#X{.{.@X+X;X-X%X%X$X+XOXOX[.( y.~.$Xg.r.t.;XQ T P.`.mXnX_.A.Q. .o.Z.MXNXNXcX;.@.e - = 2 u 9 9 qX,Xm . = 5 ",
"N  XKX6X0X9X3Xz.r.[.#X{.#X@X[.XXw.g.JXPXlXl.XXOX[.OXOXw.%X8Xd.^.I./ G.).} L G.} vXZ.i.o.rXjXiXNXzXh.f.#.= = 2 0 2 e 1.:.m . 6 y ",
" X>.1.5X0X7XzXzXlXr.OX[.=XOXOXOX+Xr.<.5XlX^.+XOX=X[.[.( e.PXBXUXI./ W.B.} J.L K nXZ.i.d.2XaXT.zXd.;.s.;.= = 0 2 2 3 ; 2 m < 4 .X",
",.6X5X6Xj.h.lXfXcX9Xg.+X-X+Xw.XX[.OXq.f.fXfXk.w.[.[.*X( ( 9.R.mX~ ~ P.N.o.gXiXiXNXX.R.i.s.f.@.e.@.a.xXu.= . 2 9 0 q = = x @ 2  X",
"0X0Xj.JXx.l.k.u.cXcXf.y.l.l.;XOX[.( ( 0.kXBXs.5.( ( ) n.^ 7.Y.!.H H.P.M.Q.jXiXSXtXX.kXfXz.&.E =.x.fXxX:X= . 0 , t q b V m @ . B ",
"0X5X*.$Xr.(.I.4.s.cXp.Q y.=X;Xn.I.n.^ Q hXBXY.4.4.9.8.Y.mXIX`.6.Y G.G.M.Q.gXZ.gX' aXNXaXk.%.=.- f.kXVX>Xa X q * 2 5 h h x m x z ",
"9Xh.%.XXy.;X/.~ _ zXmX4.^ I.n.n.n.! ~ P o.rXO._ sXBXmXi.[ 4.^ J U U N.Q.vXQ. .] X.jXNXaXf.E - - : 2XVXuX> , >.e 0 4 . h x z f g ",
"7X8XoXXXw.PX(.4.R t.mXzX5./ ) ) m./ 6.hXSXVXVXSXkXT.} H Y ~ / W b.M.vXMXvXS.U.o.rXjXNX2X0.$.e ; -.qXiXiX:X2X;.9 :.u t y h g g l ",
"h.PX$X%.%.PX(.4.^ 7.9.mX(.4./ ! W Y ] :XVXZXDXNXX.{ U I I b./ / ~ E.jXMXjXD.o.Z.tXNXMXO.f.*.9 ;.0X` +.:XNXkX-.:.9 u -.,.x g l l ",
"-.JX$X*.h.PXzX6.^ n.W 7.BXdXO.a.!.T.O.O.uXSXNXO.] U v.v.c.b.b.~ 6.R.a.rXMXtXO.R.kXkXD.aX%Xe ` cX2., a ;.5X;.9 0 6 , ` 0XN h g g ",
"-.8Xh.@.lXcXzXP v.m.W J aXNXxXBXMXT.T.O.aXbXT. .N.G.b.'.).L.G.U Y.R.u.a.kXkX3XsXR.T.gXmX@.9 9X1X9 * * w u a 4 5 < t 4X9X3 f g g ",
"lX3X3X3XcXT.!.6.! m.W W 6.mXBXdXrXQ.U.} L } }  .Q.N.N.U._.N.G.6.^.@.s.s.s.3X7XsXR.T.mXu.: 5X1X-.:.i 0 >.i , < < q :.3X1.h g g g ",
"zXu.zXBXi.] !.U.J m.m.m.W U  .| C.N.U T U L  .mXvXgXgXU.C.C.U.!.s.s.lXd.z.;.d.a.a.cX7X: ` qX,., 0 2 2 q 4 6 3 5 0 1.1Xr f g g g ",
"cXu.0.7.4.i.fXa.L.I J W v.v.I c.Y I b.P.U.hXQ.Q.vXbXnXo.' o.Z.kX..lXzX_ u.s.sXa.fX7X: r 4X,X2 = < @ . @ 3 2 9 ,.;.-.1X9 f g g g ",
"fXzX[ H 9.zX2XfXQ.).H.J J I v.v.'.`.`.{ C.o.o.o.o.gXT.C.T.bXkXrXaXsXBX2X` fXkXO.` ;.9 :.1Xr . h . 4 + + m q r 9X3XO.4X,.f g g g ",
"d.zXfXdXgXZ...R.hXU. .J.L.c.P.`.`.`...| Z.gX..i.T.bXgXZ.T.mXBXkXbXO.dXxXO.u.fXa.@.#.#., <X, . . 9 1X,Xr 3 3 u 1XdX:XuX4X3 f g d ",
"q.e.lXBXjXD.Q.] !.hX!.N.M.N.M.G G ' jXNXNXO.4.9. .mXmXhXp.p.R.i.hXaX:XdXdX+.dXfXz.<.9 u u * b . ,.4XqX1X2 * t ;.4XuXpX:X>.h g l ",
"*X( 5.z.R.hXBXX.] J.hXT.] G ] ' yXSXDXDXDXtXH I.7.~.~.9.q.w.q.0.fXdX2X:XxX:X:X4X:X3Xd.6X, 4 m = 0 ,.;.5X1.9 t y u 1XpXpX1X4 f l ",
"*X*X( 5.8.' NXMXG P o.aX!.hXBXSXDXCXCXCXCXyX[ I.7.t.(.e.w.[.E g.cX:X2X:XuXiX+.4XxXxXa.: , y q 2 * 3.9 ;.zX1.0 . 6 r tXiX4Xp f d "
};
