/* XPM */
static char *_a628df778b442ecc066a466aed5993bLvR3FfKSQlWCt5bZ[] = {
/* columns rows colors chars-per-pixel */
"64 64 256 2 ",
"   c #150408",
".  c #0A0516",
"X  c #130816",
"o  c #15130E",
"O  c #280203",
"+  c #340100",
"@  c #3C0300",
"#  c #340C14",
"$  c #070227",
"%  c #140A26",
"&  c #161426",
"*  c #060533",
"=  c #100C33",
"-  c #2F0939",
";  c #4B0100",
":  c #430500",
">  c #570701",
",  c #591603",
"<  c #4D130F",
"1  c #670800",
"2  c #681602",
"3  c #7C1D01",
"4  c #761805",
"5  c #6F1711",
"6  c #792407",
"7  c #7A261A",
"8  c #6C2A0F",
"9  c #58153A",
"0  c #4D0B30",
"q  c #681930",
"w  c #772928",
"e  c #762838",
"r  c #712E34",
"t  c #5A2725",
"y  c #764127",
"u  c #0A0148",
"i  c #16025B",
"p  c #150451",
"a  c #2F0D55",
"s  c #180168",
"d  c #190276",
"f  c #0F0063",
"g  c #270769",
"h  c #270A78",
"j  c #381779",
"k  c #2F1271",
"l  c #3A2378",
"z  c #4F1650",
"x  c #552353",
"c  c #752846",
"v  c #7B3649",
"b  c #672859",
"n  c #752D58",
"m  c #6E355E",
"M  c #7A3659",
"N  c #692449",
"B  c #471B77",
"V  c #4A196D",
"C  c #5B296A",
"Z  c #57287A",
"A  c #512978",
"S  c #672A68",
"D  c #6A336B",
"F  c #773868",
"G  c #642B79",
"H  c #6C3473",
"J  c #64327C",
"K  c #693579",
"L  c #753975",
"P  c #732E64",
"I  c #641E48",
"U  c #7D4659",
"Y  c #7C4470",
"T  c #851B02",
"R  c #871E17",
"E  c #8A2501",
"W  c #872606",
"Q  c #952A03",
"!  c #973609",
"~  c #872917",
"^  c #8B3519",
"/  c #983717",
"(  c #8F310C",
")  c #A63908",
"_  c #A63C17",
"`  c #AA3208",
"'  c #862B26",
"]  c #8A3428",
"[  c #983928",
"{  c #8A3737",
"}  c #963B38",
"|  c #822E38",
" . c #A43D24",
".. c #A53A30",
"X. c #974619",
"o. c #A9451A",
"O. c #B7481A",
"+. c #B24910",
"@. c #9B4429",
"#. c #9C443C",
"$. c #9A4538",
"%. c #924D32",
"&. c #A3442B",
"*. c #AB4B2C",
"=. c #A94725",
"-. c #B74A26",
";. c #B85529",
":. c #A74837",
">. c #B44D36",
",. c #AB5439",
"<. c #B75537",
"1. c #A95229",
"2. c #B46335",
"3. c #C7521C",
"4. c #DA5817",
"5. c #E65B1A",
"6. c #D86218",
"7. c #EA641A",
"8. c #F3641A",
"9. c #C75729",
"0. c #D75B29",
"q. c #C75C35",
"w. c #D65D37",
"e. c #C34E30",
"r. c #E55C29",
"t. c #EA5D31",
"y. c #CB632A",
"u. c #D96429",
"i. c #C96439",
"p. c #DC6B3B",
"a. c #D66737",
"s. c #D7713C",
"d. c #E3632B",
"f. c #EB632C",
"g. c #E96526",
"h. c #F36327",
"j. c #E36432",
"k. c #E56837",
"l. c #EC6F35",
"z. c #893A49",
"x. c #943D47",
"c. c #833C5B",
"v. c #853A54",
"b. c #883550",
"n. c #833C64",
"m. c #823D71",
"M. c #984547",
"N. c #8B4357",
"B. c #964756",
"V. c #94504D",
"C. c #A64C47",
"Z. c #A85645",
"A. c #B85948",
"S. c #A34A53",
"D. c #AA5758",
"F. c #B55D58",
"G. c #B54A47",
"H. c #BB6447",
"J. c #B56657",
"K. c #894568",
"L. c #954A66",
"P. c #97556B",
"I. c #874778",
"U. c #954C76",
"Y. c #995476",
"T. c #8D5271",
"R. c #A75867",
"E. c #A25875",
"W. c #A44F66",
"Q. c #B16362",
"!. c #C65C47",
"~. c #D15B4B",
"^. c #C76548",
"/. c #D76745",
"(. c #C56656",
"). c #D66F4B",
"_. c #E66A44",
"`. c #E17447",
"'. c #C05D60",
"]. c #1E0085",
"[. c #280B88",
"{. c #2D1288",
"}. c #361788",
"|. c #2C1399",
" X c #371997",
".X c #2C0B92",
"XX c #3B2489",
"oX c #3D2398",
"OX c #391AA5",
"+X c #3417AA",
"@X c #3D23A9",
"#X c #3F23B1",
"$X c #461A88",
"%X c #451D97",
"&X c #541E84",
"*X c #482587",
"=X c #532B8B",
"-X c #5B2D8B",
";X c #572885",
":X c #5B3288",
">X c #42239C",
",X c #4B259B",
"<X c #4B2C9C",
"1X c #482897",
"2X c #532A94",
"3X c #552897",
"4X c #583498",
"5X c #4C3299",
"6X c #622B86",
"7X c #673687",
"8X c #743A86",
"9X c #663897",
"0X c #743E94",
"qX c #431FA7",
"wX c #4324A3",
"eX c #4B2BA3",
"rX c #4323AB",
"tX c #4B2CAC",
"yX c #4729A5",
"uX c #542CA6",
"iX c #4B33A8",
"pX c #5836A8",
"aX c #4C2CB4",
"sX c #4B2CBB",
"dX c #4526B5",
"fX c #522DB6",
"gX c #4C33B7",
"hX c #5333B4",
"jX c #5433BC",
"kX c #5A36B6",
"lX c #663AA8",
"zX c #623CB6",
"xX c #784287",
"cX c #734497",
"vX c #5E43AA",
"bX c #6A43A9",
"nX c #59409E",
"mX c #4C2DC3",
"MX c #4C2CCC",
"NX c #4526C4",
"BX c #522EC9",
"VX c #4F31C5",
"CX c #5333C3",
"ZX c #5332CC",
"AX c #5A34C6",
"SX c #4D2BD3",
"DX c #4C2ADA",
"FX c #522DD7",
"GX c #5533D6",
"HX c #4F30D4",
"JX c #633CC6",
"KX c #4F2AE4",
"LX c #6141C0",
"PX c #894B86",
"IX c #914E84",
"UX c #8754A1",
/* pixels */
"* $ $ % O O : > > > @ O X . $ * * * * = $   8 9.k.r.g.y.> 8 w.d.i.( 1 a.t./.V.+ ! u.t.t.r.f.p.i.i.A.H.5 w D.R.q b.P.T.0 F U.I.0 ",
"% % X # t %.,.<.<.<.$.%.t # # X . & % X   < @.k.d.d.j.o.; @.a.j.y.2 ! a.j./.2 , y.g.r._.w.-.( 1.^.^.A.} 5 D.R.q c Y.T.0 M U.I.z ",
"O O 8 Z.^.^./.a.w.j.k.p.i.<.@.8 : + + @ 5 >.p.g.8.5.a.4 > ^.j.j.o.> i.a./.-.; X.6.8.h.9.8 + O + ^ A.!.G.> D.R.q c Y.T.0 n U.I.z ",
"; $.(.^./.w.q.w.w.0.0.r.f.j.a.a.;.1.o.-.w.k.d.5.8.6.,.; / p.d.u.3 3 a.k./.3 4 y.7.h.4.4 @ < w , ; @.~.G., P.P.r c Y.I.0 P IXI.x ",
">.<.(.Z.~ 4 4 2 2 ^ <.q.0.r.f.r.j.d.d.g.g.r.r.f.g.j.7 ; 0.g.k.;.; 1.w._.;.> +.j.d.a.6 > / ^.`.q.2 6 (.G.5 N.P.q c U.I.0 F IXPXx ",
"a.q./ 4 [ Z.Z.Z.Z.6 1 E O.u.f.f.h.h.8.8.8.g.f.r.d.a.> 2 0.7.p.! > i.u.j.! 2 4.g.p.( ; / p.l.r.w.*.1 G.'.w v E.N N U.U.9 P PXPXx ",
"1.( ! q.^.H.^.).w._.q.6 2 X.y.u.5.5.8.7.r.f.h.t.a.X.; X.g.g.a.4 E a.u.y.2 ! 7.7.<., W a.d.5.0.a.^.4 ] Q.e e E.M 9 U.U.N z PXPXH ",
"6 =.i.*./ E E E O.9./.^.^ , ( s.k.g.5.7.f.f.r.t.).2 > ;.f.u.<.> _ u.y.;.> ;.g.d.6 > a.u.g.g.k.w.~.:.7 Q.z.e L.K.0 U.U.P 0 I.PXL ",
":.(.^ 6 *.<.*.*.7 6 1.^.)./ > 7 i.u.7.8.7.7.g.a.%.+ Q j.t.k.1.; 0.f.p.Q T i._._ 1 1.u.6.g.f.0.j.~.A.8 V.B.e v.Y.9 M U.K.0 D PXPX",
"(.~ $.J.,.<.G.J.J.Z.2 =.i.).@.> ~ i.u.4.8.7.4.i., @ -.f.k.a.6 2 r.h.q.2 -.).>.1 _ a.l.7.y.-.O.e./.(.7 { R.q v.E.c.0 K.Y.b z I.PX",
"' C.:.] ~ 7 w ' :.A.<.T -.q.a./ @ w 2.u.4.g.a.@.O , a.d.j.q.> / h.h.1.2 i.a.W / k.u.0.q.8 O + , ,.(.:.5 F.B.< P.L.9 M U.I.z D PX",
"#.C.} } S.D.D.{ R ..(.>.4 q.0.a.8 + , ,.y.9.^ + + @.u.d.a.-.> ;.g.0.6 X.s.+.3 i.u.k.-.1 + < , ; 2 H.!.~ } R.r r L.L.0 n.U.I.0 Y ",
"D.| B.W.B.M.C.(.:.R ..(./ E _.q./.6 O + : @ + @ W u.5.g.a.3 3 i.a.+.3 H.H.6 9.a.q.W > 1 ! i./.e.4 ( !.G.5 M.R.t v.P.v.0 K.I.m 9 ",
"| B.x.q q 5 5 [ F.:.7 A.A.4 _ /.w.i.w O   O O > 9.g.5.f.i.> o.p.s.Q _ ^.^ X._.O.1 3 &.^.j.g.r.j.-.1 &.(.] ' V.B.q v.R.b.9 K.Y.N ",
"M.M.w M.D.D.S.5 #.F.] ^ (.&.2 ^.0.j.^.&.2 > 8 2.u.g.r.u.! 1 0.u.;.E ;.-.! i._ T 9.w.a.u.5.5.7.d.p.o.6 ,.(.7 { R.N.q b.E.M I n.Y.",
"B.| M.D.M.D.D.V.5 D.Z.4 A.^.6 / j.r.w./.a.i.i.s.u.f.r.0.1 ! p.u.E =.i.Q q._ _ q.w.u.y.u.f.g.u.u.w./.( 8 A.A.7 { D.B.q z.Y.M q K.",
"z.b.B.q < < B.R.w { A.~ [ (.@.4 0.r.j.u.d.d.u.d.f.r.j.Q 1 ^.i.o.E q.=.-.-./ ^. .( W 6 W _ ;.i./.i./.H.6 ~ ^.>.~ ' D.S.e v P.c.q ",
"v L.q M N.v q V.S.7 Z.:.W ^.A.T _ w.0.j.g.5.l.4.0._.O.1 o.i.i.W ;.;./ >. .>.&.&.<.A.A.@.2 > 4 3 q.i./.^.Q W ^.A.' ] M.B.e c B.L.",
"K.c M L.Y.L.v q D.{ [ A.6 &.(.&.; =.k.4.r.f.4.g.p.;.2 6 /.a.! _ i./ >./ <. .&.*.[ @.*.^.).;.E 1 > o.0.w.;.~ ~ A.A.] ' S.D.{ c N.",
"K.n Y.U.Y.Y.N.e M.S.7 A.@.W ^.^.8 , 1.`.a.k.0.a.O.4 2 H./.-.Q i.o.*.&.>.[ :.[ :.:.,./ / ;.`.s.q.Q 1 ` a./.<.~ R :.(.C.7 { D.B.e ",
"M n.U.9 9 n P.v.e S.' C.,.3 >.(.2., : X.2.2.2.^ 1 4 q.i.^.W <.=.=.*.&.&.C.} C.[ :.[ >.;.! ) 9.a.k.O.1 6 q.).q./ W [ F.A.] ] M.C.",
"n n.N 0 0 0 L.L.e M.#.] !.[ W ^.H.2.8 + > > ; > E q.p.q.W <.*._ *.&.$.#.M.M.M.M.} :.[ =.q.+.Q 3.u.p.<.2 4 9.i.).=.W ~ A.J.$.] &.",
"n I.0 I.IXn 0 E.z.z.D.~ G.A.3 &.~.~./.=.3 3 Q e././.A.~ _ ;.=.&.&.} #.M.x.M.z.S.C.:.>.=.) O.3.Q ) ).u.u.) 1 =.i./.w./ 4 @.(.>.~ ",
"P b F Y I.U.I M L.w D.] [ !./ 4 !.~.w./.).!.).w.~.<.4 @.q._ =.*.$.M.M.M.N.z.B.z.M.#.&.=.-.O.O.q.Q Q 3.j.p.o.2 ( q.w./.;.W W *.).",
"L b L I.I.Y T.9 L.z.x.Z.5 A.A.~ 3 *././././.^.<.^ ^ &.<.*.&.&.&.#.M.B.N.v.c.c.v.M.} :.*._ q.! -.s.) Q ) y.`.3.Q 4 o.q.a.p._ T / ",
"Y x PXPXL Y IXb c W.w F.$.6 (.A.W 3 T  .-._ / ~ ^ H.>./ :.C.} #.M.N.v.M M M c.v.z.#.:.*.;._ q.! _ p.;.! Q +.k.p.-.3 E ;.p.p.;.( ",
"xXC PXC - z D Y.N L.z.{ D.] ] A.!.-./ T T R [ ,.^.(  .A.$.{ M.B.c.n.F F F F M v.z.M.:.*.*.=.*.i.) Q ;.i.O.Q Q O.a.a.+.T Q ;.p.p.",
"8XG 8Xa z z z F K.v W.w M.D.w ] >.!.^.H.J.(.A.:.[ <.:.' M.B.N.c.P L L H H D M N.M.#.&.=.=.<./ o./.+.E o.a.a.-.` Q O.a.i._ E ) y.",
"8XG J a cXxXS z I.N v.B.| } Q.{ 7 ' ] %.y w ] [ :.} M.B.B.v.c.F L K J C C D M N.M.@.*.o.-._ /.( ! ).a.` Q o.y.a.O.` ` 9.a.;.Q T ",
"8XZ 6XV cX0XPXL b K.n v.B.z.M.V.D.M.%.%.V.V.#.#.#.x.B.N.c.c.F L 7X:X;XZ J H U z.#.&.-.+.9.E /.^.! E 9.k.-.) Q ) w.w.O.Q ) y.q.-.",
"0XZ Z Z cXcXcX8XL I K.c.v N.z.{ { } M.#.} } } x.} M.x.b.n.F H 7X:X*X=X=XV C Y N.C.=.O.) u.O.T i.i.Q 3 ;.`.q.9.) Q ) s.a.) ! 9.a.",
"7X6X;X;X0X9XV G L m.n n L.v v.B.S.M.x.S.S.x.x.x.B.z.v.n.F K :X=X2X*X*Xl - - U S.:.-.9.` 3.9.T q.a./.6 ; =.`.0.k.3.) T _ `.;.Q +.",
"7XZ -X*XbXj p a V C L F P F K.v z.z.z.b.z.N.N.v.M F F H 7X-X2X1X1X*Xl =   # V.,.-.O.9.` q.9.4 i.a.^.] + : &.k.5.8.5.3.Q ( i.9.Q ",
"7XZ -X*X4Xk $X4X-XA V S L L F M M M c.N.c.M F F F H J :X=X<X,X<X1Xl p .   y 1.=.-.O.e.Q /./ o.;.;.^ , > w :.w.f.5.h.0.a.! E y.s.",
"7XA -X=X4Xg pXzXlXbXxXK G G S L L F P F F L H H J Z ;X2X1X>XwX>XXXi $   < %.1.o.O.-.=.*.>./ ,.:.[ } C.F.(.(.!.w.r.r.f.k.0.Q E i.",
"6XA -X*XbXg <XpXpX2X;XA ;X7X8X7XJ K K D C Z :X:X-X=X,X,XwXwXwX1Xk * . O r ,.1.O.O.-.&.A.[ C.} x.z.x.} } } G.A.!./.0.t.4.k.a.T @.",
"J Z 2X}.pX}. XkXzXs g j 3X$X;XB -X=XA Z =X2X2X,X1X>XwXrXrXrX<XXXu .   t $.=.-.O.=.=.,.M.z.N.b.v.K.K.B.x.} { { { Z.^.k.k.u.q.&.> ",
"C Z 4X XuX>X{.pXuXh %XkXJXkX4X4X,X%X*X=X5X<XwXrXwX XrXdXrXrX*Xa $ . O %.,.-.-.o.=.$.M.z.N.M F F D m M z.z.z.N.N.w $._ 9.p./.Z.: ",
"C Z uXqXrXtX[.<XiX{.OXCXAXaXh h OXaXuX1X X X#XdX@XOX#XdXrXeXB = . O t C.>.-.=.&.$.M.v M F F L L L H m n n.K.M v B.M.^ ( *.&.2 ; ",
"C Z %XrX XjX XoXhX X.XmXBXrXf oXCXZXwXh {.jXmX|.rX@XrXrXwX2XV X O @ %.Z.>.*.*.$.M.v c.F L H K J 7XK L L D b m K.v e M.#.~ 5 5 w ",
"A Z ,XfX.XgXgX[.rXaX.XrXVXrXd oXmXBX.Xh hXaX|.dX@XwX,X1X2X:Xx # t y #.:.:.:.M.M.M M F L L 8XG Z G G G Z G H D P M v.z.z.M.F.Q.F.",
"Z 9X}.kX X XjX@X|.gX X XsXgX[.{.BXBX.X{.hXrX|.aX X1X2X2X-XK U r %.$.Z.C.M.M.N.M F L G G G G 7X7X6XZ 6X7X7XJ G D m.M c.L.v.| { S.",
"Z 9X$XuXaX[.@XgX|.@XtX X|.gXiXd dXCX X{.uXwX XhX%X=X2X-XJ H U V.V.M.M.M.x.v.F F H Z 7X6X6X9XB B ;X9X9X*XB Z 7X8XS D P n c.L.N.v ",
"Z ;X3X.XLX@X[.@XgX|.@XdX+XOXiXoX.XJX%Xh kXuX{.pX2X=X;X6XK H M v M.x.z.N.c.F H H Z 9X-X-X&XB 9X9X4X*X=X9XbX-X;XA 7XK L L F M M v.",
"8XA 3X{.tXhX X|.@X@XrX+XdXOXoX<XwX XeXeX XeXpX$X2X=X;X7X7XL F M v.v.c.K.L H G J 7X&X2X2XpXlX}.j j XXl k j =X4X:XA Z G D D F Y Y ",
"J A 3XuXh yXjXrX|.rXtXOXdXdXwXoXyXwX>X<X<X,X,X2X2X-X-X6XJ G H L F F F L K J J 6X;X4X2X2X1X{.1X2XvX4XnXnX4X*XB =XcX;XA J K D b m ",
"Z :X=X4X}.{.aXVXsX+X XtXdXOXOXwXyXoX>XyXeX,X,X3X2X-X-X;XZ G J K H H K J J :X6X6X-X2X2XXXoXpXpXpX*X*X*X*X4XlX9X;XB 6X9X:XZ H L F ",
"7X7XA B bX{.].#XmXCXwX.XOXaXdXOXoXoXyXyXwXeX<X,X2X2X-X;X-X6X6X6XJ J :XZ :X:X-X3X2X2X1XoX<XiXoXs k k h [.h }.-X9X6X&X*X7X7XG S S ",
"L C cXB 5XvX X]..XqXjXjXOX+XOXdXwX>XwXwXyXyXeXeX1X1X2X=X=X-X-X-XA 9X4X4X;X:X,XuX,XpX XtXiX{.h eXkXhXjXJXuX}.k j 4XlX-XA A 7X8X8X",
"S xXC :Xj eXtXgX X[.]. XaXjXdX@XoXoXoXoX>X>X>X>X<X<X2X2X2X=X=X;X9X*X2X*X:X*XeXrXuX XeXkX[. XtXtXjXAXAXfXpXvXpX1X}.%X2X:XZ A B &X",
"L D K Z -X}.eXhXjXaXrX X.X[. XiXoXwXyX<X<X<X<X<X1X1X1X,X,X3X3X2X*X=X:X*X*X4X<X<XeX XpXoX[.tXGXZXAXtX,X1X5XpXkXkXfX%Xj B 7XcXlXuX",
"I.P H G :X2X}. XtXhXjXhXaXtX X.X|. X X X X X X XoX>X>X,XeXeXeX3X*X=XB 4X4X1X}.kX XeX5Xs tXCXZXmX{.s f s s h }.pXkXzXlX*Xj B $X3X",
"N m.S K Z 4X2X}. XeXhXaXsXZXGXHXMXMXMXNXNXNXNXsXdXrXrXwX>X%X%X%X,XuX1X}.1X*XpX}.OXtXl k jXZXdXh i h  XwX Xh g i j *XpXlXlXlX2X$X",
"n.M F S 7X;X4X2X{.h [.|.rXsXNXNXmXNXNXNXNXNXdXdXsXsXhXhXpXuXpXpXeX X XkX,X}.4X}.aXaXh 5XCXmX[.f XX<XjXCXCXkXpX5Xg h }.1XuXpXlXbX",
"W.v.M F H J A 4XvXeX}.h d s s s f f s s d d d d d d h h h {.{.{. XwXtXaX XtX1X}.tXrX[.gXCX Xi k hXjXCXZXZXZXBXCXAXtX}.k g g j $X",
"c L.n n.F C 7XB *XpXkXpX1X1X}.j }.}.XXoX>XyXiXiXtXtXtXtXtXyXyXeXiXpXaX.XsXsX.X<XhX[.+XVXCX[.s 5XjXZXMXMXMXFXFXFXMXCXkXpX5X1X$Xj ",
"b.b.L.n m.H C 7X;Xj 2XpXzXfXAXCXZXZXZXZXVXMXSXSXDXDXDXSXMXjXhXpX*XXX].dXjXOX.XjX<Xh MXMXdXd  XhXCXNXSXFXFXGXFXHXBXBXZXZXZXAXAXAX",
"R.e c.U.I I.H C 7X9XB }.uXkXAXAXMXSXHXSXSXSXDXDXDXDXSXMXsXrX Xh g k wXsXjX].mXCXXXh MXSX@Xd @XCXFXGXGXmX#XOX X{.>XyXtXjXjXCXjXjX",
"E.L.q L.N.I I.H V 7X9X4Xg k j 2XhXjXCXMXMXMXmXsXgX>Xh s i f s s  XwXAXjX{.[.ZXdXh j VXMX Xd sXHXDXFXdX{.i * * $ $ $ = a k l l *X",
"M L.L.q N.K.9 I.xXV B cX9XA k g j  X>XtXhXeXoX}.f u u i g }.yXhXjXCXjXwXs iXmXVXs XXZXMX[.d VXDXDXGX Xu $ . . . X X . . . $ $ * ",
"0 T.P.v c L.n.I L xXJ V 9XbX9X2Xh g i p = * * * u s }.rXmXZXFXDXSXBXtXd {.hXsXdXs >XFXMXs g CXSXKXmXg $ . X & & % X X X . X % % ",
"# 9 P.P.e N E.n z L xXV B =XlXlXzX4Xj a p p a a XX>XaXVXDXKXKXKXDXmXh s tXsXsX[.h tXDXMXs j CXSXDX#Xu . o o & % & & & & & & X X ",
"# # U P.N.q v.IXF x K UX7Xa V 9XlXzXzXkXkXfXfXsXCXZXGXGXFXDXDXSXdX{.u j mXGXCX[..XsXDXNXf XXVXSXHX X* X o o & & = & & & & & & & ",
"# # 9 P.P.v.0 K.IXS z 7XcX7Xa a pXkXAXAXZXFXFXFXSXSXSXSXSXDXDXHX Xf i 5XmXSXsXd  XsXSXNXs <XmXSXMX.X$ o o o & & = = & & & & & & "
};
