/* XPM */
static char *result[] = {
/* columns rows colors chars-per-pixel */
"64 64 202 2 ",
"   c #010102",
".  c #06020C",
"X  c #04081A",
"o  c #020521",
"O  c #050A23",
"+  c #03102C",
"@  c #06083A",
"#  c #081D3D",
"$  c #081D4D",
"%  c #05155B",
"&  c #062245",
"*  c #0D2E5E",
"=  c #0A2C64",
"-  c #0A3667",
";  c #082678",
":  c #0C4171",
">  c #BF2A2E",
",  c #BE2533",
"<  c #C70909",
"1  c #D00606",
"2  c #C71608",
"3  c #C61A09",
"4  c #C4111F",
"5  c #EB140B",
"6  c #F1150B",
"7  c #D32619",
"8  c #EA250B",
"9  c #F12F0B",
"0  c #EB2D1F",
"q  c #EB3512",
"w  c #D9242C",
"e  c #C5382E",
"r  c #E03432",
"t  c #EA470F",
"y  c #F5480D",
"u  c #F4520F",
"i  c #E44B19",
"p  c #F24D15",
"a  c #F14F1B",
"s  c #F25715",
"d  c #CC473A",
"f  c #E64E26",
"g  c #E55529",
"h  c #F15D25",
"j  c #E44733",
"k  c #EE6434",
"l  c #B73848",
"z  c #B84D66",
"x  c #A85C77",
"c  c #AD6875",
"v  c #CB4943",
"b  c #D44A44",
"n  c #C85558",
"m  c #CA605F",
"M  c #DD6855",
"N  c #E76443",
"B  c #E36854",
"V  c #C75764",
"C  c #CE6A6E",
"Z  c #D57776",
"A  c #0A2C86",
"S  c #0A3C88",
"D  c #0E5589",
"F  c #185996",
"G  c #1159A6",
"H  c #0A62A2",
"J  c #086BAF",
"K  c #1064B0",
"L  c #0B70B8",
"P  c #2464A5",
"I  c #087CCB",
"U  c #1778C6",
"Y  c #0B7FD4",
"T  c #8F618D",
"R  c #9D6E99",
"E  c #A86587",
"W  c #B76D82",
"Q  c #A67896",
"!  c #AB7FA3",
"~  c #C57888",
"^  c #7586BA",
"/  c #1783C9",
"(  c #0986DD",
")  c #018DDD",
"_  c #188BD6",
"`  c #0392DF",
"'  c #2585CC",
"]  c #208ED8",
"[  c #328FD2",
"{  c #2792D9",
"}  c #028DE3",
"|  c #078AE4",
" . c #0294E4",
".. c #0B96E5",
"X. c #0399E6",
"o. c #0B9AE7",
"O. c #0195EC",
"+. c #0A95EA",
"@. c #029BEC",
"#. c #0B9CEB",
"$. c #1898E5",
"%. c #149BEA",
"&. c #1B9DEB",
"*. c #0196F1",
"=. c #029CF3",
"-. c #0A9DF3",
";. c #029EF9",
":. c #2597E6",
">. c #359DE9",
",. c #07A1EE",
"<. c #0BA2EE",
"1. c #14A2EE",
"2. c #03A2F6",
"3. c #0CA3F4",
"4. c #0EA8F7",
"5. c #04A3FB",
"6. c #0BA6FB",
"7. c #06A9FC",
"8. c #0CA9FB",
"9. c #13A5F5",
"0. c #1BA4F4",
"q. c #15A8F6",
"w. c #19AFF7",
"e. c #12A7FB",
"r. c #19A7F9",
"t. c #14AAFB",
"y. c #1BACFB",
"u. c #14B1FA",
"i. c #1CB1FB",
"p. c #2FA3EA",
"a. c #39A5EB",
"s. c #2EA3F5",
"d. c #24AAF6",
"f. c #2CAAF6",
"g. c #23ADFB",
"h. c #2BAEFB",
"j. c #30ACF7",
"k. c #33AEFB",
"l. c #3BAEFC",
"z. c #24B1FB",
"x. c #2CB2FB",
"c. c #2CB9FB",
"v. c #33B2FB",
"b. c #3BB3FC",
"n. c #35B9FC",
"m. c #3CB9FC",
"M. c #4B96DD",
"N. c #679FDF",
"B. c #7C9AD6",
"V. c #739BDA",
"C. c #489CE6",
"Z. c #5AA2E6",
"A. c #49A9F4",
"S. c #44AEFC",
"D. c #4BAEFB",
"F. c #58ABF6",
"G. c #44B4FC",
"H. c #4BB4FC",
"J. c #44BAFC",
"K. c #4CBAFC",
"L. c #5DB7F7",
"P. c #52B6FC",
"I. c #59B5FC",
"U. c #54BAFC",
"Y. c #5BBBFC",
"T. c #69A6EC",
"R. c #79A6E6",
"E. c #7BAAE8",
"W. c #65ABF4",
"Q. c #79ADF3",
"!. c #68B4F9",
"~. c #64BDFC",
"^. c #6ABDFC",
"/. c #7AB4F5",
"(. c #77B7FC",
"). c #75BCFD",
"_. c #49C0FD",
"`. c #57C2FD",
"'. c #5CC4FD",
"]. c #65C0FD",
"[. c #6CC1FD",
"{. c #72C2FD",
"}. c #7BC3FD",
"|. c #8684BA",
" X c #9787B3",
".X c #A484AB",
"XX c #B589A7",
"oX c #B291AF",
"OX c #AC97BB",
"+X c #C5838D",
"@X c #C18797",
"#X c #9998CA",
"$X c #879AD4",
"%X c #9C9FD4",
"&X c #8EA0D6",
"*X c #96A5D9",
"=X c #89AAE9",
"-X c #94A9E3",
";X c #87AFF4",
":X c #81BBFB",
">X c #82C6FC",
",X c #8CC6FD",
/* pixels */
"P.l.0.+.#.#.%.o.X.%.$.....#..... .@.@.@..... . .O.@.O.O.O. .O. .@.O.O.`  . .O.=.-.#.-.@.O. . . . . .O. .O. . . .O.*.O.O.*.O.O.O.",
"D.l.r.r.0.d.f.s.:.$.[ { &.O. . .O.O.O.O.}  . .@.=.O.O.O.*.O.O. .O.O.O.} } O.=.=.=.=.O.*.O.O.} O.@.O.@.@.@.@.=.*.=.=.*.*.*.O.*.O.",
"v.h.h.k.v.G.S.A.C.^ T ^ >.@.@.O.O.O.O.*.O.*.*.=.;.*.| *.*.O.O.O.O.O.*.O.*.=.*.=.=.@.*.O.O. . . .O.O.@.*.*.*.*.;.;.;.;.*.*.*.*.*.",
"P.H.H.H.I.P.S.F.|.4 1 l C.@.=.*.O.@.*.O.*.=.*.=.=.*.O.*.O.O.O.O.O.*.*.O.O.*.*.=.2.=.*.*.O.O.O.O.@.*.@.=.*.O.*.*.;.;.;.*.;.*.*.*.",
"I.P.G.Y.Y.G.D.N.l < < , M.*.=.=.=.@.=.*.@.*.=.=.;.=.*.O.O.O.O.O.-.*.*.*.*.*.*.2.*.=.O.O.O.@.*.O.=.=.*.=.*.@.*.=.*.;.;.;.;.;.5.;.",
"K.H.I.].U.G.D.|.< 2 1 z s.=.3.=.=.@.@.*.=.*.5.2.5.=.@.O.O.O.O.-.O.-.;.*.*.*.=.=.=.=.=.=.*.*.*.;.5.5.=.=.=.=.-.;.;.;.;.5.;.;.5.5.",
"I.].Y.].Y.I.I.R < < 2 $Xe.4.e.-.=.=.=.=.=.=.2.5.5.=.*.*.*.*.=.*.O.*.=.*.=.@.=.=.;.;.;.;.;.=.=.e.y.t.=.=.;.;.;.;.;.;.;.;.5.5.7.5.",
"I.].~.].Y.U.W.x 2 3 , F.6.2.5.e.2.2.2.=.=.2.2.2.2.=.=.=.=.*.=.*.*.*.;.=.=.=.*.2.;.;.;.5.;.;.;.6.r.e.;.;.2.5.3.;.;.;.5.5.7.7.7.5.",
"{.~.[.~.U.Y.R.l 3 3 Q l.d.r.6.t.t.5.5.2.5.2.=.5.5.;.*.=.=.=.=.;.2.;.;.;.;.2.;.;.5.;.5.;.;.;.5.6.e.;.;.6.5.;.5.6.;.5.6.t.8.6.7.8.",
"~.~.[.~.[.[.$X> 7 > B.l.h.h.t.r.6.5.5.5.5.5.5.;.;.;.;.=.=.;.;.=.=.5.;.5.5.e.6.2.2.5.;.;.;.5.6.b.k.e.;.5.5.;.;.5.5.5.6.7.7.7.t.t.",
"Y.].[.^.^.^.#Xe d c W.j.b.l.h.h.6.5.8.4.8.5.8.4.;.5.2.;.;.;.;.5.;.;.;.8.e.;.;.5.7.;.5.5.5.y.g.l.g.6.5.e.t.8.e.6.5.5.6.8.6.6.t.r.",
"Y.Y.].~.^.^..Xe v .XH.G.S.k.h.h.e.5.r.5.t.5.6.8.5.5.3.;.5.;.;.5.5.;.5.y.e.;.;.5.;.;.5.5.5.y.g.b.g.6.8.e.e.g.t.t.7.5.5.y.y.t.g.y.",
"P.P.U.Y.].!.Q e e #XG.G.P.l.k.h.e.e.r.8.r.y.8.8.5.5.8.;.5.5.6.;.2.5.8.5.5.;.;.7.5.5.5.5.e.y.g.l.k.t.e.6.t.y.y.e.t.8.7.h.l.g.g.g.",
"G.H.P.G.I.(.W b b =Xl.G.H.l.l.k.g.5.e.t.y.g.y.e.t.r.r.5.5.5.e.e.5.5.5.5.5.;.;.e.8.r.y.t.6.y.h.G.k.y.8.8.g.v.h.g.t.t.e.z.h.h.y.k.",
"P.P.U.I.U./.V b V =Xh.k.b.l.l.l.g.8.e.8.e.g.h.r.r.g.e.2.5.6.e.5.5.6.5.;.5.5.;.e.r.h.y.t.8.8.g.v.h.y.t.t.t.y.y.g.y.t.t.t.t.r.h.k.",
"'.[.Y.P.P.E.n b V T.l.k.l.k.k.b.g.y.r.y.y.x.h.e.r.6.7.2.;.8.6.5.5.;.;.5.;.5.5.8.e.g.e.t.e.e.g.v.g.8.t.t.g.y.g.y.h.g.t.8.t.g.g.g.",
"~.Y.U.K.P.&Xb b ~ F.l.k.H.l.l.l.h.h.g.g.h.S.v.g.k.g.6.6.t.8.8.g.y.5.5.5.;.5.5.e.y.t.t.e.8.t.y.x.i.t.y.y.g.y.t.h.g.y.8.8.h.h.v.g.",
"^.Y.Y.Y.Y.#Xf g XXI.b.l.S.S.G.G.l.g.h.g.g.G.H.G.l.h.y.y.y.t.8.t.8.7.5.5.5.5.;.5.e.6.y.y.y.t.h.g.g.t.g.z.g.t.y.g.y.g.y.t.h.k.g.g.",
"{.{.[.[.[.XXi i OXP.G.S.H.D.G.G.l.h.l.y.g.G.H.b.l.l.g.6.e.g.g.t.7.5.7.5.5.5.5.7.e.5.t.e.x.y.g.8.7.8.t.x.v.y.g.g.h.b.v.h.l.G.h.e.",
"}.}.{.[.).~ t f %XI.I.G.G.G.S.G.b.l.b.k.h.v.l.h.t.y.8.7.8.8.t.8.t.t.7.5.5.5.;.8.8.6.t.y.b.g.g.y.8.6.t.t.z.t.g.g.l.b.G.b.h.b.g.y.",
">X>X{.^.:XZ u k -XI.I.G.G.l.l.b.l.k.G.k.h.v.b.h.h.g.6.5.;.6.7.6.8.e.8.t.5.5.8.e.y.h.l.k.l.t.8.e.8.r.8.8.t.y.y.g.g.b.b.b.v.G.k.g.",
">X{.{.).:XC a j ;X!.Y.Y.P.l.l.l.l.k.b.b.H.G.G.l.l.t.8.6.5.e.g.y.8.y.t.e.5.7.e.g.k.S.b.H.b.v.g.6.t.y.y.y.y.y.y.h.v.v.h.k.l.b.b.g.",
"{.Y.Y.Y./.M y B Q.Y.P.I.H.D.G.l.l.k.l.b.H.H.S.H.G.l.k.y.7.y.h.y.8.e.8.5.5.2.r.v.H.I.G.l.v.G.h.6.t.t.y.t.8.8.7.g.l.b.l.l.b.k.h.g.",
"[.~.~.~.;Xk y B ;XI.G.l.b.l.k.k.h.y.G.G.H.H.P.I.H.G.h.h.t.r.r.8.5.e.y.5.t.y.b.D.G.H.f.v.h.l.t.6.7.t.h.g.t.8.t.8.t.h.g.h.g.b.k.h.",
"[.{.).).-Xh u B Q.G.G.G.H.G.b.h.h.k.S.H.H.H.P.G.h.h.y.t.y.t.6.5.e.g.k.y.y.y.h.k.k.G.k.v.w.r.e.7.8.e.g.g.y.t.t.8.8.y.h.x.g.b.k.g.",
"^.}.}.}.OXs p oX!.I.H.G.S.l.l.k.h.k.H.P.P.K.v.h.t.8.e.e.e.e.7.7.e.6.g.y.e.e.r.r.v.H.G.f.g.t.8.7.6.8.y.y.h.g.t.w.8.8.t.i.k.b.g.h.",
"~.!.^.(.oXh h *XI.I.P.D.G.G.l.k.k.l.G.P.H.H.h.h.h.y.t.t.6.8.6.5.8.6.t.y.g.8.e.y.U.Y.G.j.l.d.8.7.4.t.e.e.v.b.b.h.i.t.t.t.g.h.y.l.",
"Y.~.Y.(.@Xh N =XI.P.P.P.P.Y.H.G.l.l.h.y.g.v.k.e.g.g.t.t.y.t.6.8.t.y.h.G.b.h.g.H.~.I.G.H.l.h.g.5.8.e.8.h.f.h.b.z.t.7.t.8.r.x.t.x.",
"H.H.I.Q.Z s k *XI.D.G.S.H.S.U.H.G.h.g.6.h.k.h.y.g.y.e.t.t.t.t.8.y.h.G.G.h.v.h.H.H.P.P.P.D.h.b.8.5.5.g.S.v.U.b.t.5.5.5.w.x.y.8.g.",
"G.H.^.;XM s N -XI.G.G.S.S.l.G.G.k.l.h.r.h.g.y.g.g.g.y.t.y.y.y.8.h.h.l.G.G.k.b.H.G.H.L.P.H.b.G.g.y.5.h.P.Y.Y.b.z.t.y.g.v.b.g.y.t.",
"I.Y.).-Xk p Z !.P.l.k.k.k.l.G.k.t.g.e.8.r.e.e.h.z.g.v.h.g.8.t.6.w.h.S.H.J.b.b.l.l.G.H.G.G.G.x.g.r.e.v.U.].U.v.h.v.h.b.v.b.v.z.x.",
"P.Y.!.oXk p +XF.l.r.g.r.h.h.b.h.e.5.7.6.8.5.y.r.g.r.g.:.F - H -.5.y.G.Y.G.x.g.g.y.h.g.g.g.g.t.5.4.t.y.b.I.b.t.8.h.b.v.z.v.z.8.y.",
"H.H.W.@Xs y ~ D.g.e.r.y.g.g.g.s.e.5.;.5.8.5.e.e.y.y._ @       # ..5.k.P.U.z.x.w.6.y.t.y.y.y.3.t.r.t.6.6.h.e.7.e.G.Y.v.h.v.y.w.v.",
"G.H.T.m 9 0 #Xk.6.t.e.r.r.:.U $.6.5.5.5.5.;.8.x.v.h.&           * 3.r.l.b.x.m.v.5.8.y.t.r.e.e.4.t.7.5.6.6.t.4.g.b.U.g.z.x.z.a.' ",
"l.l.V.b 9 j R.f.8.g.8.8.r.; $ A ;.5.;.;.5.5.0.l.v.:.o           O %.5.g.v.v.v.z.2.w.y.t.g.h.k.g.t.8.t.0.U / 8.g.h.p.: ] z.1.* X ",
"r.j. Xf 8 V F.h.r.6.5.5.;.; @ % +.-.A | | | G ' g.:.$           + O.2.y.h.y.w.%.H / 8.t.t.v.P F p.y.8.K . O +.e.w._ + S 2.3.= o ",
"k.A.Q q 6 XXF.P.H.h.t.6.6.-.| -.5.6.Y -.( } ( -.8.8.0.H = & & = / =.3.g.r.8.%.#   . L 6.8.#.@ . J 8.5.#.: - 9.5.7.7.3.6.7.e.6.#.",
"H.Z.c 5 0 #X).}.^.G.l.6.5.5.5.5.;.;.5.;.;.5.2.5.7.8.t.8.8.2.3.2.=.#.k.j.h.r._ X   . L 8.6.5.I J @.7.5.5.7.8.t.8.8.t.6.7.7.5.7.5.",
"].R.n 8 0 *X,X>X!.G.g.5.5.5.;.5.5.5.6.;.;.;.;.5.6.7.t.8.2.7.2.e.4.h.k.g.y.e.k.' D H ;.5.5.5.5.7.7.t.t.t.t.t.8.t.t.t.t.8.8.t.6.7.",
"}.&Xd 8 r -X,X{.~.G.y.e.8.5.6.5.;.5.5.5.;.;.5.7.8.7.7.7.8.e.r.r.h.l.g.h.y.4.x.y.5.;.7.5.5.5.8.t.y.g.y.v.v.y.8.8.t.t.t.z.y.v.t.t.",
",X.X7 6 n Q.).Y.H.b.y.t.y.8.8.8.6.t.7.5.;.5.5.5.t.7.5.5.8.h.k.8.r.y.d.b.0.9.t.5.7.6.8.7.e.8.g.y.h.h.h.k.h.t.r.w.h.y.y.g.z.b.x.x.",
"].x 5 5 R F.P.G.G.b.h.k.h.t.t.w.t.y.y.8.t.t.5.t.t.8.5.7.7.g.r.8.t.w.G.H.m.v.q.5.7.e.8.e.y.6.t.h.b.x.v.h.d.h.b.G.l.y.w.v.v.K.U.m.",
"A.E 6 w B.S.S.G.H.H.b.v.g.x.g.g.g.x.y.t.u.g.w.w.i.y.8.7.6.y.g.x.x.h.U.U.G.m.i.z.g.y.y.g.h.w.b.K.P.z.k.b.h.h.v.j.h.x.h.G.b.K.K.m.",
"G.z 6 E H.h.k.b.G.G.v.z.r.v.v.k.v.g.t.y.v.x.z.x.i.t.t.8.t.y.y.x.x.b.I.K.G.G.i.x.J.n.v.b.v.G.K.K.b.x.w.b.H.b.z.b.G.b.b.U.K.`.K.J.",
"l.V b V.k.g.g.k.v.v.k.y.y.h.l.x.b.t.i.i.z.g.x.i.i.u.y.i.i.y.g.n.z.G.'.L.K.K.b.K.K.b.G.G.v.v.m.J.v.G.x.v.J.v.f.m.K.m.K.`.U.`.'._.",
"S.! $XH.G.v.v.J.J.b.x.x.z.x.b.z.c.w.n.x.b.n.G.v.z.u.t.y.i.i.v.G.v.G.K.I.J.K.J.K.P.H.n.x.i.x.v.n.v.K.J.G.K.J.K.K._.J.K.K.Y.`.`._.",
"P.I.I.Y.U.K.H.b.b.r.v.x.g.x.b.x.x.g.z.J.K.x.b.m.c.z.i.x.z.y.v.J.b.x.b.U.G.d.b.b.b.b.i.8.t.z.m.v.z.H.U.U.K.f.c.c.n.J.m.J.K._.`.J.",
"b.G.K.K.K.J.J.b.c.v.v.z.i.u.v.x.x.z.c.z.z.w.v.x.x.z.t.u.t.x.x.U.K.J.b.H.z.w.z.y.u.z.c.g.z.z.v.n.b.K.U.H.m.c.v.d.n.J.c.c.J.J._._.",
"b.G.G.n.n.n.h.x.g.c.G.m.z.z.x.x.x.z.x.u.i.u.c.v.x.z.i.t.7.x.x.m.v.v.G.G.x.u.z.u.y.z.w.x.v.v.n.G.K.K.U.v.m.n.c.z.n.J.i.w.c.c.J.J.",
"h.v.m.n.m.m.x.x.x.v.b.n.z.z.g.v.n.i.i.i.8.8.n.J.v.i.u.i.y.z.x.v.g.x.H.G.n.8.t.i.i.t.w.v.v.b.b.K.K.G.H.b.K.m.f.z.m._.m.n.c.z.J.J.",
"x.b.h.v.v.v.x.x.x.x.x.g.y.y.t.m.J.x.i.i.t.t.z.x.v.z.i.u.y.8.g.g.w.x.v.b.v.g.x.t.t.t.y.v.n.k.J.G.G.H.G.v.U.K.J.J.J.J.n.z.n.x.n.m.",
"t.g.x.v.J.n.x.t.8.h.z.v.y.y.y.z.i.7.8.u.t.i.u.g.z.z.t.8.6.6.5.5.5.t.y.y.y.t.x.y.v.v.h.h.x.h.G.K.G.G.b.d.K.K.G.b.K.m.z.n.m.m._.K.",
"x.x.z.v.v.z.i.t.y.8.8.t.8.z.x.y.8.7.8.7.8.u.i.z.i.y.8.7.7.7.7.;.2.6.8.8.t.5.t.h.z.h.x.h.g.v.G.G.x.v.v.g.J.G.b.b.J.m.v.v.x.z.v.J.",
"v.b.v.x.x.y.7.u.t.8.8.8.y.b.v.v.t.7.u.7.7.8.t.8.8.7.7.7.5.7.7.2.5.5.5.2.w.2.t.y.t.t.6.5.8.h.v.h.h.x.z.g.G.K.G.b.m.x.x.c.c.z.x.v.",
"g.g.y.t.8.7.8.8.t.u.t.y.r.b.v.G.y.8.7.7.7.7.8.w.8.7.7.7.5.5.;.;.=.5.6.2.2.2.2.5.7.5.5.5.6.8.d.y.7.8.8.8.x.v.x.h.v.b.b.c.n.z.x.b.",
"e.8.8.7.8.5.5.8.g.z.t.g.y.g.v.h.t.i.8.7.7.7.7.7.8.7.7.7.5.;.5.;.=.5.;.2.2.=.2.5.5.5.5.=.2.5.8.7.5.7.8.8.z.v.h.x.z.x.g.z.t.8.y.m.",
"7.7.7.7.5.2.7.2.8.t.6.t.f.v.h.r.q.g.8.5.5.5.7.8.8.t.8.7.5.5.2.2.=.@.=.@.3.-.=.2.;.2.5.5.=.5.5.7.3.8.6.8.g.h.h.y.g.h.i.t.8.7.8.y.",
"2.7.2.5.5.5.2.2.5.7.8.6.x.j.t.8.7.4.w.5.5.8.2.7.8.w.y.t.4.2.*.@.O.O.O.O.O.@.*.=.=.=.=.=.2.5.5.5.t.t.8.t.y.x.r.t.t.4.8.8.y.6.8.6.",
"5.2.2.5.5.=.2.2.5.8.t.w.k.h.t.3.2.2.8.2.5.2.7.2.t.y.w.y.2.=.*.2.O.} } } }  .O.O.O.*.O.O.=.2.2.2.5.e.t.8.8.w.y.y.g.8.6.6.t.5.5.8.",
"2.5.5.2.5.2.2.2.w.y.8.8.h.G.G.w.7.2.2.2.7.2.2.2.2.2.5.2.=.@.@. .} ) } )  .`  .O.O.O.O.O.@.@.=.2.2.,.5.6.6.4.y.t.4.7.7.6.5.5.5.7.",
",.,.2.2.2.5.3.8.y.h.w.3.9.d.G.d.2.2.t.4.2.2.,.@.@.@.,.=.@.@. .} ) ) ` ..X.o.`  .| } } O.O.@.@.,.2.@.2.2.8.t.r.4.2.7.7.5.2.2.2.5.",
",.@.X.2.2.3.<.q.d.g.3.,.2.9.d.d.<.,.<.<.q.<.X.X.@.X.@. . . . . .) ) ` X.X.` ` ) ) } } }  .X.X.,.@.2.@.2.2.q.t.,.2.2.@.@.2.@.@.2.",
"X.X.@.@.@.<.#.1.<.9.#.,.<.<.o.<.<.,.1.<.q.1.X.X.` X.X. . .) ) ) ) ) ` `  .X. .)  .O.}  .`  . .=.@.=.X.,.<.3.0.,.,.,.@.@.O.O. .O.",
"@. .@.X.@.<.o.<.@.@.@.X.1.1.#.X.,.X.1.<.<.X.X.`  . .X. .) ) ) ..` ) ` ..` ` ` ` }  . . . .@.3.0.d.#.@.X.%.&.1.X.X.` O.O. . . .@."
};
