/* XPM */
static char *result[] = {
/* columns rows colors chars-per-pixel */
"64 64 222 2 ",
"   c #707171",
".  c #717174",
"X  c #D30E1E",
"o  c #CE1A17",
"O  c #D61719",
"+  c #D5141C",
"@  c #D31C1C",
"#  c #E11F1F",
"$  c #D2221C",
"%  c #D7291E",
"&  c #CB3818",
"*  c #D30E25",
"=  c #D50F2D",
"-  c #CE1623",
";  c #D61526",
":  c #D31B23",
">  c #D5122D",
",  c #DA1732",
"<  c #CE2123",
"1  c #D42125",
"2  c #DB2829",
"3  c #DC3C25",
"4  c #DB342E",
"5  c #DA2E31",
"6  c #CC3C35",
"7  c #CB393A",
"8  c #DE3831",
"9  c #E1252E",
"0  c #E0352F",
"q  c #E12D30",
"w  c #E23535",
"e  c #D74C1A",
"r  c #D86D1A",
"t  c #DA741C",
"y  c #D94523",
"u  c #CE423B",
"i  c #D54A35",
"p  c #E04320",
"a  c #DA7724",
"s  c #DE7931",
"d  c #BB2943",
"f  c #B83241",
"g  c #CA3546",
"h  c #CB3746",
"j  c #D44949",
"k  c #D6534E",
"l  c #D8534E",
"z  c #C44050",
"x  c #D44C57",
"c  c #DA535A",
"v  c #D56B56",
"b  c #CF5A66",
"n  c #D25866",
"m  c #DD6A64",
"M  c #D4646A",
"N  c #DB7966",
"B  c #DD756A",
"V  c #CE7D75",
"C  c #E16E67",
"Z  c #BFB43B",
"A  c #E2A218",
"S  c #E6AA19",
"D  c #D58F30",
"F  c #C6BA3E",
"G  c #E7BE2B",
"H  c #FCDD04",
"J  c #F7D908",
"K  c #FADD0C",
"L  c #F3CC13",
"P  c #FBDF12",
"I  c #F6DB1C",
"U  c #FDE303",
"Y  c #FDEA05",
"T  c #F6E409",
"R  c #FBE40A",
"E  c #FBEB0A",
"W  c #FDF008",
"Q  c #F5E213",
"!  c #FAE413",
"~  c #FBE914",
"^  c #F4E31B",
"/  c #FAE31B",
"(  c #F7E91B",
")  c #FAEA1C",
"_  c #D5CA29",
"`  c #F9DE29",
"'  c #EED132",
"]  c #F8DF31",
"[  c #FBE322",
"{  c #FAEA24",
"}  c #FAE32C",
"|  c #F9E234",
" . c #F7E63B",
".. c #F7E73D",
"X. c #F9E43A",
"o. c #F9EA3D",
"O. c #A1964A",
"+. c #AAA148",
"@. c #90866E",
"#. c #CFB556",
"$. c #CD956F",
"%. c #DB8B75",
"&. c #DB8D7E",
"*. c #DBAC65",
"=. c #D1C747",
"-. c #EED545",
";. c #F9E545",
":. c #F7E847",
">. c #F9EB44",
",. c #F9E54D",
"<. c #F9EA4B",
"1. c #F8E652",
"2. c #F8E457",
"3. c #F6EB52",
"4. c #F8EC54",
"5. c #F4E65E",
"6. c #F6EA5D",
"7. c #F9EC5C",
"8. c #E9D377",
"9. c #F5E663",
"0. c #F6EA62",
"q. c #F8EC64",
"w. c #F4E66E",
"e. c #F6EB6B",
"r. c #F8EC6B",
"t. c #EFE776",
"y. c #F5E672",
"u. c #F8ED74",
"i. c #F6EF7B",
"p. c #F8F079",
"a. c #554E87",
"s. c #5A5789",
"d. c #545A94",
"f. c #595897",
"g. c #555B9B",
"h. c #625E8F",
"j. c #615E91",
"k. c #5C648E",
"l. c #5B6691",
"z. c #5E6494",
"x. c #54629D",
"c. c #62628D",
"v. c #68738E",
"b. c #626594",
"n. c #616B9B",
"m. c #65739D",
"M. c #5B5DA0",
"N. c #5564A1",
"B. c #5868A2",
"V. c #6571A1",
"C. c #9D9E94",
"Z. c #AFAC8A",
"A. c #8D8FAA",
"S. c #8E91A6",
"D. c #9493AB",
"F. c #9695AA",
"G. c #9B99AE",
"H. c #9496B1",
"J. c #9599B1",
"K. c #A39CB4",
"L. c #A5A3BA",
"P. c #A7A3BA",
"I. c #CF8A8B",
"U. c #D48B83",
"Y. c #D38C8C",
"T. c #D89181",
"R. c #D69596",
"E. c #D99699",
"W. c #E3AB9C",
"Q. c #E4AEA2",
"!. c #E2B4A8",
"~. c #E5BBB6",
"^. c #F6EE85",
"/. c #F6F181",
"(. c #F7F28D",
"). c #F5EE95",
"_. c #F7F294",
"`. c #F7F399",
"'. c #F9F499",
"]. c #E7D1A5",
"[. c #E6C5BC",
"{. c #E9C2BC",
"}. c #E6CABB",
"|. c #E8CCBA",
" X c #EFEBAD",
".X c #F6F4A4",
"XX c #F6F3AA",
"oX c #F4EFBE",
"OX c #F6F5B3",
"+X c #F4F3BB",
"@X c #E7C7C1",
"#X c #E8C9C1",
"$X c #E0DED2",
"%X c #E1E2C4",
"&X c #F3EFC4",
"*X c #F3EFCD",
"=X c #EFF3C3",
"-X c #F3F3C4",
";X c #F8F7C4",
":X c #F3F3CB",
">X c #E3E3D5",
",X c #E5E8D4",
"<X c #E3E4D9",
"1X c #EEF3D6",
"2X c #EFF3D8",
"3X c #F2F3D3",
"4X c #F2F2DB",
"5X c #EBEFE8",
"6X c #F3EEE2",
"7X c #EDF1E5",
"8X c #EEF3ED",
"9X c #F3F4E6",
"0X c #F1F4EC",
"qX c #F3F8EC",
"wX c #EEF5F3",
"eX c #EFF8F7",
"rX c #EFF6F8",
"tX c #EFF8F8",
"yX c #F1F6F3",
"uX c #F2F8F5",
"iX c #F2F6F9",
"pX c #F1F9F8",
/* pixels */
"U U U U U U H R H K T K K H K H J H K K H U U H H H H U H H H H H U J U H J U H H H J H H J J J J H J J J J H J J H H K J J H J ",
"6.0.6.0.0.6.0.9.9.9.D a D w.y.y.y.y.w.w.r.E U | 0.5.6.5.5.9.9.5.5.9.9.9.9.9.9.5.5.9.5.9.9.9.9.} K R 2.w.y.y.w.9.P H I w.w.w.w.w.",
"9X0X8X8XwX8X8X8X8X8Xb * 7 0XyX8X5X8X0X5X:XR U e.8X5X8X8X8X5X5X5X8X8X8XwX8X5X8X8X5X5X8X5X5X5X5X5.U ! &X5X8X5X5X1X/ U ..7X7X7X4X7X",
"0X0XyX0X0XyX8XwX8X8XM = g wX8XwXwXwX8X0X3X! U y.wXwXwX5XyX8X8XwX8XwXwX5XwX8X8X8XwX7X8X5X5X5X7X5.U Q &X5X5X5X5X3X/ U ..7X5X5X5X7X",
"yX0X0XyX8XyX0XwXwXiXM = 7 0XwXwXwXwXwXyX3X! Y u.wXwXyX8XwXwXwX8X8XyXwXwXwX5XwXwX8X8X8X8X8X8X7X6.U ~ -X7X8X8X5X2X( Y ..8X5X5X5X5X",
"0XyX0XwX0XyXwX0XwXiXM , g yX0XwXwXyXwXwX3XR Y u.wXwXwXrXwXwXwXwXwXwXwXwXwXwXwX8XwX8X8X8X7X7X7X7.U ~ -X8X5X8X7X1X( Y ..7X8X8X5X5X",
"yXyXyXyXwX0XwXwXyXwXn = g yXyXwXyXyXyXyX3XE Y u.rXwXwXyXwXwXwX8XwXwXwXyXwXwXwX8XwX8X0X8X8XwX8X7.U ! =X8X8X8X8X1X( U >.8X8X8X5X8X",
"yX8XyX0XyXyXwXyXyX0Xn = g yXyXiXyXiXyXyX3XR Y p.yXwXwXwXyXwX8XwX8XwXwXwX8XwX8XwX0XwX8X8X8XwX8X0.Y R =X8X8X8X8X1X( Y >.8X8X8X7X7X",
"yX0XyXyXyXyXyXwXwX0Xn = h iXiXiXiXyXyXyX*X! U i.rXrXwXeXwXwXwXwXwXyXwXwXwX0X0X0XwXqX8X8X8X0X8X0.Y ~ =X8X8X8XqX1X( Y >.8X8X8X8X7X",
"yXyXyX0XwXwX8XwX0XwXn = h iXyXiXwXiXyXyX*XR Y ^.eXuXyXwXuXeXeXwXwXyXwXwXwXwXwXyXwXwX8XwX8XqX8X6.Y ~ =X8X8X8X8X1X{ Y >.8X8X7X8X8X",
"yXyXyXyXyX5XwXyXyXwXn = h yXyXyXyXyXyXyX:X! Y /.yXpXeXeXeXeXtXwXwXyXyXwXwX0X8XqXyX8X8X8X8XwXqX7.Y E =XqX8X8XwX1X/ Y :.8X8X8X8X8X",
"yX0XyXyXiXiXyXyXiXwXn = x yXyXyXwXiXyXwX;XR Y /.yXrXeXeXeXeXeXtXeXrXyXwXwXwXyXwX8X0X8X8X8XwX8X7.U ~ =X8X8X8XwX1X) Y >.8X8X8X8X8X",
"yXyXyXyXwXwXyXyXyXyXn , x yXiXyXiXyXyXyX-XR Y /.rXyXeXeXwXtXeXwXeXwXwXeXwXwXwXwXwXwXwXwX8XqX7X7.Y E -XwX8X8X8X1X( Y >.0XwX8X8X8X",
"wXyXyXiXiXwXiXwXyXyXn > c yXiXyXyXiXiXyX-XR Y /.yXrXwXeXtXtXeXtXeXwXwXwXwXwXyX8X8X0X0XwX8X8X8X7.Y E =X8XwX8XwX1X) Y ..0X8X8X8X8X",
"yXyXyXwXwXiX0XwX8XyXn > x wXiXwXiXyXyXuX:XE Y i.eXwXeXuXtXtXtXtXtXtXwXeXwXeXwXwX0X0XyXyXyXyX8X4.Y E -XwX8X8XwX4X) Y ;.7X8X8X5X8X",
"iXiXwXiXiXyXiXyXwXyXn = n iXiXwXyXyXiXuX-XY Y i.eXuXeXeXtXtXtXtXtXwXtXwXeXuXwXyXwXwXwX8XwX8X0X7.Y E =XwX8XqXwX2X) Y :.8X8XwX8X8X",
"iXyXwXiXwXiXwXwXrX5Xn = n iXiXiXwXiX5XiX*XH R i.eXrXwXeXeXeXwXtXrXrXwXrXrXwXrXwXyX8XwXyXwXwX8X6.Y E -X8XwX8X8X4X^ Y <.0XwX8X8X8X",
"yXiXiXwXiXwXiXwXiX5Xx = x iXiXiXwXwXiXiX&XH U ^.rXuXeXeXeXeXtXtXwXwXrXwXiXrXwXrXyXyX8XwX8XwX8X6.Y ~ -XwX8XwX8X1X{ Y ,.8XwX8X8X8X",
"wXwXiXiXiXiXyXwXrXiXx = n yXiXiX5XwXiXiX-XR Y ^.rXrXrXrXeXtXwXwXwXwXrXwXwXwXwXwXwX8X8X8XwXwX8X0.Y ~ -XwXwX8XwX1X( Y 3.8X8X8X5X8X",
"wXwXwXwXiXiX5XwXrXiXx = n wXiX5XiXiXwXwX&XY R ^.wXwXwXwXwXwXtXwXrXwXwXrXwXrXwXwXwX0X8X8XwX8X8Xq.Y Q &XwX8X8X8X1X( U :.7X5X8X8X8X",
"L.L.P.K.K.K.P.P.L.H.z = z K.K.G.F.F.G.G.Z.U Y #.D.D.D.F.D.G.G.J.H.H.H.A.D.D.D.H.D.D.D.S.D.D.S.=.U T Z.H.H.H.H.C.^ Y _ S.A.A.A.A.",
"g.f.M.f.f.f.M.f.a.a.d = f f.g.g.g.g.f.f.@.Y E O.s.d.d.d.d.d.g.g.x.N.N.N.N.N.N.N.N.x.x.x.g.x.x.Z Y Q . x.x.x.g.. ^ Y _ l.x.N.B.B.",
"j.j.h.h.h.h.f.a.s.  g X f s.j.h.b.h.z.h.@.R Y +.h.c.b.b.z.z.b.z.z.z.x.z.n.n.n.V.z.V.n.b.z.k.b.F U T   z.l.l.k.. ^ T _ v.m.m.V.V.",
"<X<X>X>X>X>X>X>X$X$Xu % v <X>X>X>X>X,X,X XR U t.<X<X<X<X<X<X<X>X<X<X<X<X<X<X<X<X<X,X>X<X>X>X>X2.U ~  X<X,X<X,X%X( T ..,X,X<X,X>X",
"X.| | | ] | ] ] ` ` L L I } } } [ } } { / U U [ | | X.X.| X.] X... .| | | ] X.| | | ] | ] ] ] P H H ] ] ] ] ] } T U ! ] ] ` ` ` ",
"U U Y U U U U U U U H U U U U U U Y U U U U U U U U U U H U H U U U H U U U U H H U U H U H H H H H H H H U H H H H H H H H H H ",
"o.o.o.o.X.;.X.X. ...G S L ;.;.;.<.>.>.>.o.U Y } ;.;.;.;.,.,.;.;.;.,.,.;.,.,.1.,.,.,.,.,.1.,.,.[ R K ;.1.2.1.2.:.U K / 1.2.1.2.2.",
"qX9X9X9XqXqX9X9X9X9Xk % m 9X0X9X9X9XqXqX;XE Y (.qXqXqXqX0XqXqXqX0XqX0X0X0X9X9X0X9X0X0X0X0X9X6X0.R ! +X0X0X0X9X:X( U >.9XqX0X0X9X",
"uXqXuXuX0XiXiXyXyXyXx # m yXiXyXuXuXuXyX;XE Y _.yXyXuXuXuXuXuXyXyXyXyXyXyXyXyXrXyXwXwXwX0XwX8Xr.R ~ -X0X8X8XqX3X) Y >.qX8XqX8X8X",
"uXuXuXqX0XuXiX0XyXyXc 9 m yXiXyXuXqXuXuX;XE Y _.uXyXuXiX0XuXuXuXuXyXyXiXyXyXrXyXyXyX0XuXyXyX8Xq.Y ! -XyXqXwX0X:X) W >.qX0XwXwX8X",
"uXuXuXuXiXiX0XyXyXiXc 9 C yXiXiXyXyXuXuX;XE E _.uXuXiXuXiXuXuXuXiXuXiXuXpXyXyXwXyXyXyXwXyXwX8Xr.Y ~ -X0XwX0XwX:X) Y >.qXyX0X8X0X",
"yXyXiXuXiX0XiXyXyXiXc q C yXiXiXiXyXuXuX;XE E '.iXuXuXuXiXiXuXyXpXyXtXrXiXrXyXyXuXwXyXyXyXwX7Xr.Y ! -XwX8XqXwX;X) Y >.qX0X0X8X8X",
"yXyXiXiXyXyXyXyXyXyXc 9 C uXuXiXuXuXuXuX;XW Y '.pXuXuXpXpXpXpXpXtXtXeXtXiXrXrXyXeXwXuXyXuXwX8Xr.Y ~ -XyXqX8XwX:X~ Y >.qXwXwXwXqX",
"iXiXyXyXiXiXyXyXyXuXc 9 C iXiXyXuXuXuXuX;XE W _.pXpXpXpXpXpXpXtXpXtXtXpXiXuXeXrXuXwXuXwXyXwX0Xu.Y ~ :XwXwXwXqX:X) W >.0X0X0X8X8X",
"iXuXyXiXiXyXiXyXyXyXx 9 C uXiXiXuXuXuXuX;X~ W '.pXpXpXpXpXpXpXpXpXeXeXpXyXpXtXuXeXyXwXyXyX0XwXu.Y ~ :XwX8XwXwX3X{ Y <.qX0XwX8X8X",
"iXiXiXyXyXyXyXyXyXyXl q C uXiXyXuXuXuXpX+XY W '.pXiXuXuXpXpXiXpXeXeXtXuXiXiXpXyXuXyXyXyXyXwX0Xr.U ~ :XwX8X8XqX:X~ Y 4.qXwX8X8X8X",
"iXuXiXyXyXyXyXyXyXqXc q N uXyXyXuXuXqXuXOXW E '.pXuXiXuXiXiXpXtXeXeXeXpXtXiXrXrXuXyXuXwX8XyX0Xq.Y ~ :XwX8XwX8X-X~ Y <.0X0XqX8X8X",
"yXyXyXyXyXyXyXyXyXyXl q C uXiXyXqXiXiX0XOXW W '.iXiXiXuXpXpXpXpXtXeXtXpXtXyXrXyXwX0XwX0XyX0X8Xq.U ( :X8X8X8XwX:X~ Y 3.qXwXwX8X8X",
"0XyXyXyXyXyXyXqXqXuXl w B uXiXiXuXuXyXqXOXW W '.uXuXuXuXpXpXtXpXtXtXtXtXeXeXyXwXyXwX0XyX8X0X0Xr.Y Q :XwX8X8X8X3X~ Y <.wX0X8X8X8X",
"iXyXiXyXyXyXyXuXuXuXl 0 C uXiXiXuXuXuXuXOXY W '.uXuXuXpXpXpXpXpXtXtXtXtXyXuXyXyXwXyXyX8XwXyX7Xr.Y ( :XwXqX8X8X:X~ Y <.0X8X8X8X8X",
"yXyXiXyXwXyXyXyXyX0Xl q C yXiXiXyXuXuXuXOXW W '.uXuXuXtXtXpXpXtXpXeXeXeXrXuXyXyXyXyXwX8XwX0X7Xq.U ~ *X0X8XwX0X&X~ Y >.0XyX8X8XwX",
"yXyXyXyX0XyX0XyXyXiXl w B yXuXiXuXyXqXyXOXY Y '.uXuXuXuXpXpXpXtXpXrXyXrXiXyXrXwX8XyXyX0X0X8X7Xr.U ~ :XyX8X0X8X*X~ Y >.0X8X0X8X0X",
"yX0X0X0X6XyXyXyXqXyXl 0 B iXiXyXyXyXyXyXXXW W _.yXyXuXuXuXpXrXuXuXuXuXyXyXyXyXwXyXyXyXwXyX0X7X0.Y ~ &X0X8XyXyX*X~ Y >.9X0X8X0X0X",
"0X0X0X0XiX0X0XyXyX0Xl 0 B uXyXuXyXyXqXuXOXY W _.yXyXyXuXuXpXyXyXyXrXyXrXwXyXyXyX0XwX0X0X8X0X9X7.U ~ &X0X8X0XyX&X( Y <.9X0X0X0X0X",
"yXyX0XyX8X0X0XyX0XyXj 0 B iXyXyXyXyXuXyXXXW W _.0X0XyXqXyX0X0X0XyXwXwX0XwXwXyX0X8X8XwXyX0X0X7X7.R ! oX0X0X0X0X&X~ Y ;.0X0X0X0X8X",
"3X3X3X3X*X6X*X6X4X3Xi 0 N :X:X;X;X;X;X;X(.Y E /.3X:X3X3X3X3X:X:X:X-X:X:X-X:X*X-X:X-X&X&X&XoX+X<.Y ! ).&X&X-X-XXX( Y >.oX&X&X&X&X",
"/ [ [ I P / ` I ` ` e p a ! ! / / ! ! ! ! Y Y ! / P P / / ! P P ! ! P P ! P K P ! K K K J K K U H H K K P P ! K H U H K K K K P ",
"U U U U H U H H U ! e p t U U U U U U U U U Y U U U U U U U U U U U U U U U U U U U U U H U U H U H H H H H U H H U H H H H H H ",
"} } } } | | | | X.,.y 3 s |  ...;.>.o.;.| Y U } <.;.,.<.,.4.,.;.>.>.,.3.<.,.,.,.,.,.,.,.,.,.:.^ U U X.,.3.,.,.X.R U ^ ;.;.,.,.,.",
"9X9XqX9X9X9X9XqX9X9Xi 3 N 9XqX9X9X9X9XqX.XE U i.qX9XqXqX0X0X0X9X9X9X0X8X9X9X9X0X9X9X4X9X9X9X4X5.Y ! oX9X9X7X9X:X/ R 1.4X6X6X6X6X",
"E.E.E.E.E.E.E.E.E.E.% # j Y.Y.Y.Y.Y.Y.U.*.R Y #.Y.Y.Y.Y.Y.Y.I.I.I.Y.Y.Y.I.I.Y.Y.Y.R.Y.R.Y.Y.R.' U P $.U.U.U.T.$.^ R G V V V V V ",
"+ + + + O + ; + + + + + O O + + + X X + r E Y r $ O O O @ @ + - : : 1 : : ; ; - : : @ - : @ o S U J & O @ o @ & K H A o o o @ X ",
"+ + X + + + ; + + + + O # @ ; O @ O ; O r Y Y r $ : : 1 @ @ ; : - : 1 1 : : : : : : 1 1 : : < S U J & $ $ o $ & K U A o o $ o o ",
"W.W.W.Q.Q.!.Q.!.!.!.5 # v ~.~.~.~.{.{.{.8.Y E 8.{.{.~.~.#X#X#X{.[.@X#X#X@X@X@X[.[.[.[.}.}.#X}.-.U ^ ].|.|.#X|.].( T ..}.|.|.}.[.",
"yX0X0X8XyXyXyXyXuXiX6 2 %.iXyXyXqXuXyXyXXXR Y _.yXyXyXyXiX0XiXiXyXyXtXeX0XyXyXyXyX0XrX0XyX0X9X7.Y ^ :X8XqX7X8X3X{ T ,.7X0X5X9X0X",
"yXyXyXyXiX0XyXyXuX0Xu w &.0XqXuXuX0XyXwXXXW E `.yXqXyXyXuXqX0XiXyXtXtXtXrXrXyXyXyXyXyXyX0XyX0X7.Y ( :X8XwXqX0X:X~ Y 3.0X0X0X6X0X",
"yXiXyXyX0XiXyXyXyXiXu 4 &.yXyXuXyXyXyXqXXXE W .X0XyXyXyXyXuXyXuXiXpXuXpXiXyXpXyXyXwXyXyXyXyX0X7.W ) :XwX0X0XqX:X~ Y 4.8X0X8X0X7X",
"0X0X0XyXuX0X0XyXyXyXu 0 &.yXyXyXyXqXqXyXXXY E XXuXyXyXyXiXyXuXpXuXeXtXuXeXeXrXiXuXyXyXyX0XyXqX7.Y ~ :XwXuX0XwX-X~ Y 3.9X0X9X0X0X",
"0XyXyXyXyX0X0XyXyXyX8 4 &.iXiXyXyXyXyXyXXXW Y XXuXqXuXeXuXyXuXuXiXtXtXtXeXrXeXpXpXuXyXyXyXyXqX7.Y ~ :XqXwX0X0X;X~ W <.0X8X9X0X9X",
"yX0X0X0X0XiXyXyXyX0Xh w T.yXyXyXqXyXyXyXXXY W .XuXuXyXuXyXeXuXuXuXtXeXpXeXeXrXeXuXyXyX0XyXyX8X7.Y ~ :XwXqX0X0X;X~ W 4.qX0X0X0X8X",
"0X0XyX0X0XyXyXyXyXyXu w &.yXyXyXyXyXyXqX.XW Y .XqXuXqXyXuXuXyXuXtXeXeXuXeXwXeXeXyXyXyXyXyXyXqX7.Y ~ :X0X8X0X0X-X~ Y 3.9X0X0X9X8X",
"0XyXyX0X0XyX0XyXyXyX6 0 &.yXuXiXyXyXqXyX.XY Y .XuXuXuXuXuXuXuXuXuXuXeXeXeXeXeXeXuXyXyXyXyXyXqX7.U ~ -X0X0X0X0X:X~ Y 4.9X0X0X0X0X",
"0XyX0X0XyX0X0XiX0X0X6 3 &.yXuX0X0XyXuXqX'.W Y .XqXuXyXuXuXyXuXuXuXuXuXyXyXyX8XyXyXyXwXyX0XyX0X4.Y ~ -X0XqX0XqX:X~ Y 4.9X9X9X9X0X",
"0X0X0X0X0XyX0X0X0XyX6 w &.yXyXyXuXqXqXuX'.E Y .XyXyXyXqXuXyX0XyX0XyXyX0XyXyXwXyX0XyX0X0X0XyX0X<.Y ~ -X0X0XqXqX:X~ Y 4.9X9X9X9X0X"
};
