/* XPM */
static char *result[] = {
/* columns rows colors chars-per-pixel */
"64 64 142 2 ",
"   c #000000",
".  c #0E0A04",
"X  c #08060A",
"o  c #0A0B0B",
"O  c #150101",
"+  c #110F04",
"@  c #171304",
"#  c #191405",
"$  c #1D1907",
"%  c #020111",
"&  c #120414",
"*  c #180512",
"=  c #1B051D",
"-  c #161516",
";  c #1A1415",
":  c #191919",
">  c #220B0B",
",  c #381209",
"<  c #240418",
"1  c #361315",
"2  c #321619",
"3  c #36300E",
"4  c #2E2A1B",
"5  c #0E0F23",
"6  c #0D0D28",
"7  c #17172B",
"8  c #16182F",
"9  c #18182D",
"0  c #0F103B",
"q  c #111135",
"w  c #181533",
"e  c #2C2C2C",
"r  c #2D2E30",
"t  c #343332",
"y  c #33333F",
"u  c #54140A",
"i  c #5A190B",
"p  c #521214",
"a  c #59191C",
"s  c #453131",
"d  c #59510D",
"f  c #4D481F",
"g  c #584F13",
"h  c #605812",
"j  c #6C6312",
"k  c #6C6018",
"l  c #4C4621",
"z  c #4D4821",
"x  c #161641",
"c  c #090A5C",
"v  c #0A0D63",
"b  c #090B6D",
"n  c #0A0D70",
"m  c #444443",
"M  c #4C4C4D",
"N  c #5D4847",
"B  c #5D5D4F",
"V  c #4C4B57",
"C  c #4C4C5A",
"Z  c #565656",
"A  c #565856",
"S  c #5D5D54",
"D  c #5B5B5B",
"F  c #624D4B",
"G  c #605F57",
"H  c #605F58",
"J  c #5E6156",
"K  c #616057",
"L  c #606058",
"P  c #605F61",
"I  c #606064",
"U  c #6F6E6F",
"Y  c #6F6F70",
"T  c #797A79",
"R  c #8C0B08",
"E  c #9E0C05",
"W  c #930D0A",
"Q  c #9D0C0B",
"!  c #A00A0B",
"~  c #D91516",
"^  c #F50F0F",
"/  c #E5100E",
"(  c #F4100F",
")  c #F40F10",
"_  c #E51212",
"`  c #EE1112",
"'  c #F41011",
"]  c #837813",
"[  c #887B14",
"{  c #887C1A",
"}  c #94880E",
"|  c #8F8317",
" . c #8E8319",
".. c #948612",
"X. c #9D8F16",
"o. c #958A1A",
"O. c #9D8F18",
"+. c #9E9016",
"@. c #9E9119",
"#. c #A38F13",
"$. c #A29213",
"%. c #A1951A",
"&. c #DECC17",
"*. c #D1C31F",
"=. c #DECC19",
"-. c #E0CB17",
";. c #EEDB1B",
":. c #F0DB1B",
">. c #FAE316",
",. c #F7E31E",
"<. c #FAE319",
"1. c #F1DA24",
"2. c #F7E220",
"3. c #F8E220",
"4. c #0C1197",
"5. c #0E119D",
"6. c #101296",
"7. c #10109A",
"8. c #0E0FA6",
"9. c #0E11A5",
"0. c #0D11A8",
"q. c #1010A2",
"w. c #848584",
"e. c #888887",
"r. c #878B88",
"t. c #8B8B8B",
"y. c #939393",
"u. c #989797",
"i. c #989997",
"p. c #999799",
"a. c #979999",
"s. c #9A9A9A",
"d. c #9D9DA0",
"f. c #A09EA2",
"g. c #C3C3C3",
"h. c #C8C8C8",
"j. c #DBDBDB",
"k. c #E9E9E7",
"l. c #E9E8EA",
"z. c #F2F2EF",
"x. c #EFF3F4",
"c. c #F3F3F3",
/* pixels */
"j.c.c.c.c.c.c.c.c.c.c.c.c.c.c.c.z.B ,.<.<.:.>.>.>.>.>.<.>.>.<.$.b q.9.9.0.0.0.9.0.9.9.9.9.9.z ,.>.>.>.d     X     d.c.c.c.c.c.c.",
"j.c.c.c.c.c.c.c.c.c.c.c.c.c.c.c.c.B ,.>.>.>.>.>.>.>.>.>.>.>.>.X.n 0.0.8.9.0.0.0.0.0.9.0.9.5.f >.>.>.>.d           s.c.c.c.c.c.c.",
"j.c.c.c.c.c.c.c.c.c.c.c.c.c.c.c.z.B ,.>.>.>.>.>.>.>.>.>.>.>.>.+.b 0.0.0.0.0.0.0.0.0.0.0.9.9.f >.>.>.>.d           s.c.c.c.c.c.c.",
"j.c.c.c.c.c.c.c.c.c.c.c.c.c.c.c.z.S 3.>.>.>.>.>.>.>.>.>.<.>.>.$.n 0.0.0.0.0.0.0.0.0.0.0.9.9.f ,.>.>.,.d           s.x.c.c.c.c.c.",
"j.c.c.c.c.c.c.c.z.z.x.x.c.c.c.c.z.G <.>.>.:.>.>.>.>.:.>.>.>.>.$.n 0.0.0.0.0.0.0.0.0.0.0.9.9.l <.>.>.,.d           i.x.z.c.c.c.c.",
"T w.w.w.w.w.w.w.w.r.r.w.r.w.w.w.r.t { [ [ [ [ [ [ [ [ [ [ [ [ d n 0.0.9.0.0.0.0.0.0.0.0.9.0.4 ....o. .3           A t.t.t.t.t.t.",
"Q Q Q Q Q Q Q Q Q Q Q Q Q Q Q Q Q , %.$.$.%.%.%.$.$.%.%.$.$.$.k b 0.0.0.0.0.0.0.0.0.0.0.9.9.4 ..} } } } ........h D t.y.t.y.y.y.",
"( ( ( ( ( ( ( ( ( ( ( ' ( ( ( ' ' i <.>.>.>.>.>.>.>.>.>.>.>.>.$.b 0.0.0.0.0.9.9.0.0.0.0.0.5.f ,.>.>.,.>.>.>.>.>.+.s.c.c.c.c.c.z.",
"^ ^ ^ ^ ^ ^ ^ ^ ( ^ ^ ^ ^ ^ ^ ^ ^ i ,.<.<.:.<.<.>.<.<.<.<.>.<.+.b 0.0.0.0.0.0.0.0.0.0.0.9.5.l >.>.>.>.>.<.>.<.>.+.a.c.c.c.c.c.c.",
"^ ^ ^ ^ ^ ^ ^ ^ ^ ^ ^ ^ ^ ^ ^ ^ ^ i ,.<.>.>.>.>.>.>.>.>.>.>.>.+.b 0.0.0.0.0.0.0.0.0.0.0.9.9.l <.>.>.>.>.>.>.<.>.O.s.c.c.c.c.c.c.",
"^ ^ ^ ^ ^ ^ ^ ^ ^ ^ ^ ^ ^ ^ ^ ^ ) i ,.>.>.>.>.>.>.<.<.>.>.>.>.$.b 0.9.9.8.0.0.8.8.8.0.0.0.8.z <.>.>.>.>.<.:.<.<.X.a.c.c.c.c.c.c.",
"^ ^ ^ ^ ^ ^ ^ ^ ^ ^ ^ ^ ^ ^ ^ ^ ) i ,.<.>.>.>.>.>.>.>.>.>.<.<.#.v 5.5.5.5.5.5.5.5.5.5.8.5.4.l ;.1.:.:.:.:.:.;.:.o.a.c.c.c.c.c.c.",
"^ ^ ^ ^ ^ ^ ^ ^ ^ ^ ^ ^ ^ ^ ^ ^ ) i 3.<.<.>.<.>.>.>.>.<.>.<.>.X.* < < < < < < < < < < < < < . $ $ $ $ $ $ $ $ $ + i.c.c.c.c.c.c.",
"^ ^ ^ ^ ^ ^ ^ ^ ^ ^ ^ ^ ^ ^ ^ ^ ) i ,.<.>.>.>.>.<.>.>.>.>.>.>.$.Q ` ` ` ` ` ` ` ` ` ` ` ` _ O                     s.c.c.c.c.c.c.",
"^ ^ ^ ^ ^ ^ ^ ^ ^ ^ ^ ^ ^ ^ ^ ^ ) i <.>.>.>.<.>.<.>.>.<.>.<.>.$.Q ^ ^ ^ ) ^ ^ ^ ^ ^ ^ ^ ^ ` O                     s.c.c.c.c.c.c.",
"^ ^ ^ ^ ^ ^ ^ ^ ^ ^ ^ ^ ^ ^ ^ ^ ) i 3.<.>.<.>.>.>.>.>.>.>.<.>.$.Q ^ ^ ^ ^ ^ ^ ^ ^ ^ ^ ^ ^ ` O                     s.x.c.c.c.c.c.",
"^ ^ ^ ^ ^ ^ ^ ^ ^ ^ ^ ^ ^ ^ ^ ^ ' i 3.>.>.>.>.>.>.>.>.>.>.>.>.$.Q ^ ^ ^ ^ ^ ^ ^ ^ ^ ^ ^ ^ ` O                     s.c.c.c.c.c.c.",
"^ ^ ^ ^ ^ ^ ^ ^ ^ ^ ^ ^ ^ ^ ^ ^ ( i ,.<.>.>.>.>.>.>.>.>.>.>.>.$.Q ^ ^ ^ ^ ^ ^ ^ ^ ^ ^ ^ ^ ` O                     s.c.c.c.c.c.z.",
"^ ^ ^ ^ ^ ^ ^ ^ ( ^ ^ ^ ^ ^ ^ ^ ^ u ] ] ] [ [ ] ] ] ] ] ] ] ] g Q ^ ^ ^ ^ ^ ^ ^ ^ ^ ^ ^ ^ ` O                     D t.t.t.t.t.e.",
"^ ^ ^ ^ ^ ^ ^ ^ ^ ^ ^ ^ ^ ^ ^ ^ ' p s.s.u.i.u.u.m w.u.s.i.i.i.H ! ^ ^ ^ ^ ^ ^ ^ ^ ^ ^ ^ ^ ` s t.t.t.t.t.t.t.t.t.A               ",
"^ ^ ^ ^ ^ ^ ^ ^ ^ ^ ^ ^ ^ ^ ^ ^ ) a c.c.c.c.c.c.U h.c.c.c.c.c.s.! ^ ^ ^ ^ ^ ^ ^ ^ ^ ^ ^ ^ ` F c.c.c.c.c.c.c.c.c.u.              ",
"^ ^ ^ ^ ^ ^ ^ ^ ^ ^ ^ ^ ^ ^ ^ ^ ^ a c.c.c.c.c.c.U h.c.c.c.c.c.s.Q ^ ^ ^ ^ ^ ^ ^ ^ ^ ^ ^ ^ ` F c.c.c.c.c.c.c.c.c.u.              ",
"^ ^ ( ^ ^ ^ ^ ^ ^ ^ ^ ^ ^ ^ ^ ^ ^ a c.c.c.c.c.c.U h.c.c.c.c.c.s.Q ^ ^ ^ ^ ^ ^ ^ ^ ^ ^ ^ ) ` F c.c.c.c.c.c.c.c.c.u.              ",
"^ ^ ^ ^ ^ ^ ^ ^ ^ ^ ^ ^ ^ ^ ^ ^ ^ a c.c.c.c.c.c.U h.c.c.c.c.c.s.! ^ ^ ^ ^ ^ ^ ^ ^ ^ ^ ^ ) ` F c.c.c.c.c.c.c.c.c.u.              ",
"^ ^ ^ ^ ^ ^ ^ ^ ^ ^ ^ ^ ^ ^ ^ ^ ^ a c.c.c.c.c.c.Y h.c.c.c.c.c.s.Q ` ` ` ` ` ' ` ' ` ` ) ` _ F c.c.c.c.c.c.c.c.c.u.              ",
"^ ^ ^ ^ ^ ^ ^ ^ ^ ^ ^ ^ ^ ^ ^ ^ ^ a x.x.c.c.c.c.Y h.c.c.c.c.x.s.> 1 1 1 2 1 1 2 1 1 2 2 1 2 ; e e r e t e e e e :               ",
"^ ^ ^ ^ ^ ^ ^ ^ ^ ^ ^ ^ ^ ^ ^ ^ ^ a c.c.c.c.c.c.Y h.c.c.c.c.c.s.d.c.c.c.c.c.c.c.c.c.c.c.c.c.D c.c.c.c.c.c.c.c.c.s.              ",
"^ ( ^ ^ ^ ^ ^ ^ ^ ^ ^ ^ ^ ^ ^ ^ ^ a c.c.c.c.c.c.U h.c.c.c.c.c.p.s.c.c.c.c.c.c.c.c.c.c.c.c.c.P c.c.c.c.c.c.c.c.c.u.              ",
"^ ^ ^ ^ ^ ^ ^ ^ ^ ^ ^ ^ ^ ^ ^ ^ ^ a c.c.c.c.c.c.U h.c.c.c.c.c.p.s.c.c.c.c.c.c.c.c.c.c.c.c.c.D c.c.c.c.c.c.c.c.c.p.              ",
"^ ^ ^ ^ ^ ^ ^ ^ ^ ^ ^ ^ ^ ^ ^ ^ ^ a c.c.c.c.c.c.U h.c.c.c.c.c.s.s.c.c.c.c.c.c.c.c.c.c.c.c.c.D z.c.c.c.c.c.c.c.c.p.              ",
"^ ^ ^ ^ ^ ^ ^ ^ ^ ^ ^ ^ ^ ^ ^ ^ ^ a z.c.c.c.c.c.U h.x.c.c.c.x.s.d.c.c.c.c.c.c.c.c.c.c.c.c.c.H z.c.c.c.c.z.c.c.c.s.              ",
"R R R R R R R R R R R R R R R R R 1 e.e.e.e.e.t.s Y t.t.t.t.e.Z D t.t.r.r.t.t.t.e.e.t.e.e.e.t y.y.y.y.y.y.y.y.y.D               ",
"              Z y.t.t.t.t.t.t.t.t.t t.y.t.t.y.t.y.t.t.t.y.t.t.A D t.y.t.t.t.Y l y.t.t.t.y.t.6 c c c c c c c c c c c c c c c c c ",
"              s.c.c.c.c.c.c.c.c.c.D c.c.c.c.c.c.c.c.c.c.c.c.c.s.s.c.c.c.c.c.h.Y c.c.c.c.c.c.x 8.0.9.0.0.0.0.0.0.0.8.0.0.0.0.0.0.",
"              s.c.c.c.c.c.c.c.c.c.D c.c.c.c.c.c.c.c.c.c.c.c.c.i.f.c.c.c.x.x.g.Y c.c.c.c.c.c.x 8.0.9.0.0.0.0.0.0.0.0.0.0.0.0.0.0.",
"              u.c.c.c.c.c.c.c.c.c.D c.c.c.c.c.c.c.c.c.c.c.c.c.s.d.z.c.c.x.x.g.Y c.c.c.c.c.c.x 8.0.9.0.0.0.0.0.0.0.0.0.0.0.0.0.0.",
"              s.c.c.c.c.c.c.c.c.c.D c.c.c.c.c.c.c.c.c.c.c.c.c.s.f.c.c.c.c.c.g.Y c.c.c.c.c.c.x 8.0.0.0.0.0.0.0.0.0.0.0.0.0.0.0.0.",
"              s.c.c.c.c.c.x.c.c.c.I c.c.c.c.c.c.c.c.c.c.c.x.c.s.s.c.c.c.c.c.g.Y c.c.c.c.c.c.x 8.0.8.0.0.0.0.0.0.0.0.0.0.0.0.0.0.",
"              ; e e r e e e e e e : 8 9 9 7 7 7 7 7 9 9 7 7 7 5 f.c.c.c.c.c.g.Y c.c.c.c.c.c.x q.0.8.0.0.0.0.0.0.0.0.0.0.0.0.0.0.",
"              u.z.z.c.c.z.c.l.x.c.C 6.q.q.q.q.q.q.7.9.9.9.9.4.v s.c.c.c.c.x.g.Y c.c.c.c.c.c.x 8.0.8.0.0.0.0.0.0.0.0.0.0.0.0.0.0.",
"              s.c.c.c.c.c.c.c.c.c.C 0.9.0.9.9.0.0.9.0.9.9.0.9.b d.c.c.c.c.c.h.Y x.c.c.c.c.c.x 8.0.9.0.0.0.0.0.0.0.0.0.0.0.0.0.0.",
"              s.c.c.c.c.c.c.c.c.c.C 5.0.0.0.0.0.0.0.0.0.0.0.0.b s.c.c.c.c.c.g.Y c.c.c.c.c.c.x 8.0.9.0.0.0.0.0.0.0.0.0.0.0.0.0.0.",
"              s.c.c.c.c.c.c.c.c.c.C 9.8.0.0.0.0.0.0.0.0.0.0.9.b s.c.c.c.x.x.g.Y c.c.c.c.c.c.x 8.0.0.0.0.0.0.0.0.0.0.0.0.0.0.0.0.",
"              u.c.c.c.c.c.x.z.c.c.V 5.0.0.0.0.0.0.0.0.0.0.0.9.b d.c.c.c.x.x.g.Y c.c.c.c.c.c.x 8.0.9.0.0.0.0.0.0.0.0.0.0.0.0.0.0.",
"              D y.y.y.y.y.y.y.y.y.y 9.0.0.0.0.0.0.0.0.0.0.0.0.b I y.y.y.y.y.T l y.y.y.y.y.y.0 8.0.0.0.0.0.0.0.0.0.0.9.9.0.0.0.0.",
"w.w.e.w.e.w.Z                     % 5.0.0.0.0.0.0.0.0.0.0.0.8.n g [ [ | [ [ [ [ [ { [ [ [ { q q.0.0.0.0.0.0.9.0.0.0.9.0.0.0.0.0.",
"c.c.c.c.c.c.i.                    % 5.0.0.0.0.0.0.0.0.0.0.0.8.b $.>.>.>.>.>.>.>.:.>.>.>.>.,.w 8.0.9.0.0.0.0.0.0.0.0.0.0.0.0.0.0.",
"c.c.c.c.c.c.s.                    % 5.0.9.0.0.0.0.0.0.0.0.0.0.b $.>.>.>.>.>.>.>.>.>.>.>.>.,.w 8.0.q.0.0.0.0.0.0.0.0.0.0.0.0.0.0.",
"c.c.c.c.c.c.u.                    % 9.9.9.0.9.9.0.0.0.0.9.9.9.b %.>.>.>.>.>.>.>.<.>.>.>.<.3.w q.0.0.0.0.0.0.0.0.0.0.0.0.0.0.0.0.",
"c.c.c.c.c.c.i.                    % 9.9.0.9.9.9.0.0.9.9.9.9.0.b $.>.<.>.>.,.>.>.>.>.>.>.>.3.w 9.0.0.0.0.0.0.0.0.0.0.0.0.0.0.0.0.",
"c.c.c.c.c.c.s.                    % 6.q.9.9.9.8.8.5.9.9.5.8.8.b $.>.>.<.>.>.>.>.>.>.>.,.>.2.w 9.0.0.0.0.0.0.0.0.0.0.0.0.0.0.0.0.",
"c.c.c.c.c.c.s.. # # # @ o - - - ; X = = = = = = = = = = = = = & $.>.>.>.>.>.>.>.>.<.>.>.>.2.w 8.0.q.0.0.0.0.0.0.0.0.0.0.0.0.0.0.",
"c.c.c.c.c.c.u.o.;.;.;.*.S l.l.l.k.N ~ _ / / / / / / / / / / / W $.>.>.>.>.>.>.>.>.<.>.<.>.,.w 8.0.0.0.0.0.0.0.0.0.0.0.0.0.0.0.0.",
"c.c.c.c.c.c.s.O.>.>.>.-.L c.c.c.c.F ' ' ' ' ^ ' ^ ^ ) ) ) ) ) Q $.>.>.>.>.>.,.>.>.>.>.>.>.3.w 8.0.0.0.0.0.0.0.q.0.0.0.0.0.0.0.9.",
"c.c.c.c.c.c.s.O.>.>.<.=.J c.c.c.c.F ' ^ ^ ^ ^ ^ ^ ^ ^ ^ ^ ^ ^ Q %.>.>.>.>.>.>.>.>.<.<.<.>.,.w q.0.0.0.0.0.0.0.0.0.0.0.0.0.0.0.0.",
"c.c.c.c.c.c.s.+.>.>.>.&.S c.c.c.c.F ` ^ ^ ^ ^ ^ ^ ^ ^ ^ ^ ^ ^ Q $.>.>.>.>.>.>.>.>.>.>.>.>.3.w 8.0.0.0.0.0.0.0.0.0.0.0.0.0.0.0.0.",
"c.c.c.c.c.c.s.@.>.>.>.-.K c.c.c.c.F ' ' ( ( ^ ^ ^ ^ ^ ( ^ ^ ( Q $.>.>.>.<.>.>.<.>.>.<.>.>.,.w 9.0.9.0.0.0.0.0.q.0.0.0.0.0.0.0.0.",
"s.s.s.s.s.s.D X.>.>.>.-.K z.c.c.c.F ' ' ^ ^ ^ ^ ^ ^ ^ ^ ^ ( ( ! j $.#.X.+.+.+.+.+.X.+.X.O.O.6 b n b n n n n n b n n n b n n n n ",
"e.e.e.e.t.e.Z O.>.>.>.-.K z.c.c.c.F ' ^ ^ ^ ^ ' ^ ^ ^ ^ ^ ^ ' E D t.t.r.e.e.U     X       % e t.e.e.e.e.t.e.r.r.r.r.r.r.r.t.r.T ",
"c.c.c.c.c.c.p.+.:.>.>.-.K c.c.c.c.F ` ^ ^ ^ ^ ^ ^ ^ ^ ^ ^ ^ ( ! d.c.c.c.c.c.h.              M c.x.x.c.c.c.c.c.c.c.c.c.c.c.c.c.j.",
"c.c.c.c.c.c.a.@.>.>.>.&.K c.c.c.c.F ' ( ^ ^ ^ ^ ^ ^ ^ ^ ^ ^ ^ ! s.c.c.c.c.c.g.              M c.c.c.c.c.c.c.c.c.c.c.c.c.c.c.c.j.",
"c.c.c.c.c.c.a.X.>.>.>.=.J c.c.c.c.F ` ' ^ ^ ^ ^ ^ ^ ^ ^ ^ ^ ^ ! s.c.c.c.c.c.h.              M c.c.c.c.c.c.c.c.c.c.c.c.c.c.c.c.j.",
"c.c.c.c.c.c.a.X.>.>.>.=.G c.c.c.c.F ' ^ ^ ^ ^ ^ ^ ^ ^ ^ ^ ^ ' ! f.c.c.c.c.c.g.              V c.c.c.c.c.c.c.c.c.c.c.c.c.c.c.c.j.",
"c.c.c.c.c.c.s.+.>.>.<.=.G c.c.c.c.F ` ^ ( ^ ( ^ ^ ' ^ ^ ' ( ' Q s.c.c.c.c.c.h.      X       M c.c.c.c.c.c.c.c.c.c.c.c.c.c.c.c.j."
};
