/* XPM */
static char *result[] = {
/* columns rows colors chars-per-pixel */
"64 64 231 2 ",
"   c #161615",
".  c #161616",
"X  c #161617",
"o  c #171617",
"O  c #1E1C16",
"+  c #1A1A1F",
"@  c gray11",
"#  c #201D17",
"$  c #221E16",
"%  c #221F17",
"&  c #2E191A",
"*  c #3D1314",
"=  c #262115",
"-  c #252215",
";  c #252216",
":  c #2C2216",
">  c #332114",
",  c #332E1B",
"<  c #3F361C",
"1  c #1C1C21",
"2  c #1E1E23",
"3  c gray13",
"4  c #212123",
"5  c #252525",
"6  c #252526",
"7  c #2C2925",
"8  c #21222D",
"9  c #2A2A2C",
"0  c #3F3925",
"q  c #2E2E34",
"w  c #252738",
"e  c #262739",
"r  c #24263A",
"t  c #343338",
"y  c #36363B",
"u  c #37363B",
"i  c #4A1F13",
"p  c #491F14",
"a  c #531112",
"s  c #511213",
"d  c #561212",
"f  c #5A1012",
"g  c #5D1011",
"h  c #5D1012",
"j  c #521E1D",
"k  c #531D1E",
"l  c #6A1112",
"z  c #6D1010",
"x  c #453712",
"c  c #4C3711",
"v  c #4D3612",
"b  c #574B14",
"n  c #5C4D13",
"m  c #5A4F1F",
"M  c #5A501E",
"N  c #7C680E",
"B  c #7D690E",
"V  c #7C680F",
"C  c #726113",
"Z  c #776210",
"A  c #786610",
"S  c #7C6810",
"D  c #4F4623",
"F  c #4F4424",
"G  c #5A4F20",
"H  c #45433E",
"J  c #4C473B",
"K  c #4C493C",
"L  c #4D493C",
"P  c #272B41",
"I  c #282B41",
"U  c #2A2C42",
"Y  c #2F334E",
"T  c #313241",
"R  c #3D3C42",
"E  c #30334E",
"W  c #30334F",
"Q  c #323553",
"!  c #303554",
"~  c #343758",
"^  c #3A3E65",
"/  c #3B3F68",
"(  c #3C436C",
")  c #3D436D",
"_  c #3E436C",
"`  c #424246",
"'  c #464646",
"]  c gray28",
"[  c #484745",
"{  c #46464A",
"}  c #46464B",
"|  c #4A4A48",
" . c gray29",
".. c #4B4B4B",
"X. c #464B7D",
"o. c #454C7C",
"O. c #444C7D",
"+. c #454C7D",
"@. c #454C7E",
"#. c #444C7F",
"$. c #676767",
"%. c #6A6863",
"&. c #6F6F6F",
"*. c #71706B",
"=. c #71706C",
"-. c #767676",
";. c #777778",
":. c gray48",
">. c #7C7D7D",
",. c gray49",
"<. c #9E0A0B",
"1. c #9E0B0B",
"2. c #9F0B0B",
"3. c #D70707",
"4. c #D80606",
"5. c #D90606",
"6. c #D80607",
"7. c #DA0707",
"8. c #D50709",
"9. c #D70608",
"0. c #D6070A",
"q. c #D7070A",
"w. c #D80608",
"e. c #D00808",
"r. c #D10808",
"t. c #9C7F0D",
"y. c #856E11",
"u. c #856E12",
"i. c #856E14",
"p. c #8F7610",
"a. c #977D11",
"s. c #9C800D",
"d. c #9D800D",
"f. c #9C800F",
"g. c #9C8010",
"h. c #A7880B",
"j. c #A6880C",
"k. c #B99407",
"l. c #B99608",
"z. c #BA9608",
"x. c #BA9609",
"c. c #B9960D",
"v. c #B9970D",
"b. c #BA960D",
"n. c #BF9C0F",
"m. c #AA8D11",
"M. c #B09011",
"N. c #C09B0A",
"B. c #C09B0B",
"V. c #C09C0A",
"C. c #C09C0B",
"Z. c #E6B907",
"A. c #E5BA07",
"S. c #E6B908",
"D. c #F5C605",
"F. c #F6C604",
"G. c #FFCB00",
"H. c #FECB01",
"J. c #FECB03",
"K. c #FDCD01",
"L. c #FECC00",
"P. c #FECC01",
"I. c #FFCC02",
"U. c #FECD02",
"Y. c #FECC03",
"T. c #FDCC04",
"R. c #FDCC05",
"E. c #FECC04",
"W. c #FECD04",
"Q. c #484E85",
"!. c #494F85",
"~. c #484E86",
"^. c #484F86",
"/. c #484F87",
"(. c #505894",
"). c #515897",
"_. c #515997",
"`. c #525999",
"'. c #525A99",
"]. c #52599B",
"[. c #646FBF",
"{. c #646EC1",
"}. c #656EC1",
"|. c #646FC1",
" X c #646EC2",
".X c #6771C6",
"XX c #6771C7",
"oX c #6772C7",
"OX c #6771C8",
"+X c #6773C8",
"@X c #6772C9",
"#X c #6772CA",
"$X c #6872C8",
"%X c #6872C9",
"&X c #6972C9",
"*X c #6872CA",
"=X c #808081",
"-X c #818181",
";X c #878584",
":X c #868685",
">X c #858586",
",X c #868586",
"<X c #868686",
"1X c #868787",
"2X c #8E8E8E",
"3X c #989997",
"4X c gray61",
"5X c #9D9D9D",
"6X c #A7A7A6",
"7X c #A6A7A7",
"8X c #A7A7A7",
"9X c #A8A7A6",
"0X c #A7A7A8",
"qX c #B3B3B4",
"wX c gray72",
"eX c #B8B9B8",
"rX c #B9B9B9",
"tX c #DFDFDF",
"yX c #E3E2E3",
"uX c #E2E4E3",
"iX c #E4E4E4",
"pX c #E8E8E7",
"aX c #E8E7E8",
"sX c gray91",
"dX c #EDEEED",
"fX c #F5F5F4",
"gX c #F5F4F5",
"hX c gray96",
"jX c #F6F6F6",
"kX c gray97",
"lX c white",
/* pixels */
"lXlXlXlXlXlXlXlXlXlXlXlXlXlXlXlXlXlXlXlXlXlXlXlXlXlXlXlXlXlXlXlXlXlXlXlXlXlXlXlXlXlXlXlXrXy.L.G.G.G.G.G.L.N '.*X%X%X%X%X%X%X%X%X",
"lXlXlXlXlXlXlXlXlXlXlXlXlXlXlXlXlXlXlXlXlXlXlXlXlXlXlXlXlXlXlXlXlXlXlXlXlXlXlXlXlXlXlXlXrXy.L.G.G.G.G.G.L.N '.*X%X%X%X%X%X%X%X%X",
"lXlXlXlXlXlXlXlXlXlXlXlXlXlXlXlXlXlXlXlXlXlXlXlXlXlXlXlXlXlXlXlXlXlXlXlXlXlXlXlXlXlXlXlXrXy.L.G.G.G.G.G.L.N '.*X%X%X%X%X%X%X%X%X",
"lXlXlXlXlXlXlXlXlXlXlXlXlXlXlXlXlXlXlXlXlXlXlXlXlXlXlXlXlXlXlXlXlXlXlXlXlXlXlXlXlXlXlXlXrXy.L.G.G.G.G.G.L.N '.*X%X%X%X%X%X%X%X%X",
"lXlXlXlXlXlXlXlXlXlXlXlXlXlXlXlXlXlXlXlXlXlXlXlXlXlXlXlXlXlXlXlXlXlXlXlXlXlXlXlXlXlXlXlXrXy.L.G.G.G.G.G.L.N '.*X%X%X%X%X%X%X%X%X",
"lXlXlXlXlXlXlXlXlXlXlXlXlXlXlXlXlXlXlXlXlXlXlXlXlXlXlXlXlXlXlXlXlXlXlXlXlXlXlXlXlXlXlXlXrXy.L.G.G.G.G.G.L.N '.*X%X%X%X%X%X%X%X%X",
"lXlXlXlXlXlXlXlXlXlXlXlXlXlXlXlXlXlXlXlXlXlXlXlXlXlXlXlXlXlXlXlXlXlXlXlXlXlXlXlXlXlXlXlXeXu.U.K.K.K.K.K.K.N `.#XOXOXOXOXOXOXOXOX",
"6X6X6X6X6X9X9X8X0X8X8X8X8X8X8X8X8X8X8X8X8X8X6X6X6X6X6X6X6X6X6X6X6X6X6X6X6X6X6X6X6X6X6X6X,.n h.j.j.j.j.j.h.b / ^.!.!.~./.Q.Q.Q.Q.",
"O.O.O.O.O.+.o.u 3X4X4X4X4X4X4X4X4X4X4X4X4X$.Q #.O.O.O.O.O.O.O.O.O.O.O.O.O.O.O.O.O.O.O.O.O.O.O.O.O.O.O.O.@.U Z t.s.s.d.C [ 4X4X4X",
"@X@X@X@X@X%X$X} kXlXlXlXlXlXlXlXlXlXlXlXlX0XX.+XoXoXoXoXoXoXoXoXoXoXoXoXoXoXoXoXoXoXoXoXoXoXoXoXoXoXoXoX@X^ C.P.G.G.H.b.*.lXlXlX",
"%X%X%X%X%X%X$X{ kXlXlXlXlXlXlXlXlXlXlXlXlX0Xe W Y Y Y Y Y Y Y Y Y Y Y Y Y Y Y Y Y Y Y Y Y Y Y Y Y Y Y Y E 8 B.H.G.G.H.c.*.lXlXlX",
"%X%X%X%X%X%X$X{ kXlXlXlXlXlXlXlXlXlXlXlXlX8X2XiXiXiXiXiXiXiXiXiXiXiXiXiXiXiXiXiXiXiXiXiXiXiXiXiXiXiXiXiXiX&.N.H.G.G.H.c.*.lXlXlX",
"%X%X%X%X%X%X$X{ kXlXlXlXlXlXlXlXlXlXlXlXlX8X5XlXlXlXlXlXlXlXlXlXlXlXlXlXlXlXlXlXlXlXlXlXlXlXlXlXlXlXlXlXlX,.N.H.G.G.H.c.*.lXlXlX",
"%X%X%X%X%X%X$X{ kXlXlXlXlXlXlXlXlXlXlXlXlX8X5XlXlXlXlXlXlXlXlXlXlXlXlXlXlXlXlXlXlXlXlXlXlXlXlXlXlXlXlXlXlX,.N.H.G.G.H.c.*.lXlXlX",
"%X%X%X%X%X%X$X{ kXlXlXlXlXlXlXlXlXlXlXlXlX8X5XlXlXlXlXlXlXlXlXlXlXlXlXlXlXlXlXlXlXlXlXlXlXlXlXlXlXlXlXlXlX,.N.H.G.G.H.c.*.lXlXlX",
"%X%X%X%X%X%X$X{ kXlXlXlXlXlXlXlXlXlXlXlXlX8X5XlXlXlXlXlXlXlXlXlXlXlXlXlXlXlXlXlXlXlXlXlXlXlXlXlXlXlXlXlXlX,.N.H.G.G.H.c.*.lXlXlX",
"%X%X%X%X%X%X$X{ kXlXlXlXlXlXlXlXlXlXlXlXlX8X5XlXlXlXlXlXlXlXlXlXlXlXlXlXlXlXlXlXlXlXlXlXlXlXlXlXlXlXlXlXlX,.N.H.G.G.H.c.*.lXlXlX",
"%X%X%X%X%X%X$X{ kXlXlXlXlXlXlXlXlXlXlXlXlX8X5XlXlXlXlXlXlXlXlXlXlXlXlXlXlXlXlXlXlXlXlXlXlXlXlXlXlXlXlXlXlX,.N.H.G.G.H.c.*.lXlXlX",
"%X%X%X%X%X%X$X{ kXlXlXlXlXlXlXlXlXlXlXlXlX8X5XlXlXlXlXlXlXlXlXlXlXlXlXlXlXlXlXlXlXlXlXlXlXlXlXlXlXlXlXlXlX,.N.H.G.G.H.c.*.lXlXlX",
"%X%X%X%X%X%X$X{ kXlXlXlXlXlXlXlXlXlXlXlXlX8X5XlXlXlXlXlXlXlXlXlXlXlXlXlXlXlXlXlXlXlXlXlXlXlXlXlXlXlXlXlXlX,.B.H.G.G.P.v.=.lXlXlX",
"%X%X%X%X%X%X$XR tXsXsXsXsXsXsXsXsXsXsXsXsX4X2XpXsXsXsXsXsXsXsXsXsXsXsXsXsXsXsXsXsXsXsXsXsXsXsXsXsXsXsXsXsX-.M.S.Z.Z.A.m.%.aXsXsX",
"%X%X%X%X%X%X$X1 4 3 3 3 3 3 3 3 3 3 3 3 3 @ < G M M M M M M M M M M M M M M M M M M M M M M M M M M M M m , # % % % % O & j k k ",
"%X%X%X%X%X%X$X+ X . . . . . . . . . . . . . g.Y.I.I.I.I.I.I.I.I.I.I.I.I.I.I.I.I.I.I.I.I.I.I.I.I.I.I.I.I.W.B . . . . . . h 7.4.4.",
"%X%X%X%X%X%X$X+ X . . . . . . . . . . . . . f.P.G.G.G.G.G.G.G.G.G.G.G.G.G.G.G.G.G.G.G.G.G.G.G.G.G.G.G.G.L.N   . . . . . h w.6.6.",
"%X%X%X%X%X%X$X+ X . . . . . . . . . . . . . f.H.G.G.G.G.G.G.G.G.G.G.G.G.G.G.G.G.G.G.G.G.G.G.G.G.G.G.G.G.L.N   . . . . . h w.6.6.",
"%X%X%X%X%X%X$X+ X . . . . . . . . . . . . . g.P.G.G.G.G.G.G.G.G.G.G.G.G.G.G.G.G.G.G.G.G.G.G.G.G.G.G.G.G.P.V . . . . . . g 3.6.6.",
"%X%X%X%X%X%X$X+ X . . . . . . . . . . . . . a.F.D.D.D.D.D.D.D.D.D.D.D.D.D.D.D.D.D.D.D.D.D.D.D.D.D.D.D.D.D.A . . . . . . f r.e.e.",
"%X%X%X%X%X%X$X2 6 5 5 5 5 5 5 5 5 5 5 5 5 5 0 D D D D D D D D D D D F x c c c c c c c c c c c c c c c c v : $ = - - - ; > p i i ",
"%X%X%X%X%X%X$X} kXlXlXlXlXlXlXlXlXlXlXlXlXlXlXlXlXlXlXlXlXlXlXlXlXlXyXs 0.q.q.q.q.q.q.q.q.q.q.q.q.q.q.q.8.l n.R.T.T.T.T.T.T.T.T.",
"%X%X%X%X%X%X$X{ kXlXlXlXlXlXlXlXlXlXlXlXlXlXlXlXlXlXlXlXlXlXlXlXlXlXuXa 9.6.6.6.6.6.6.6.6.6.6.6.6.6.6.6.5.z V.H.G.G.G.G.G.G.G.G.",
"%X%X%X%X%X%X$X{ kXlXlXlXlXlXlXlXlXlXlXlXlXlXlXlXlXlXlXlXlXlXlXlXlXlXuXa 9.6.6.6.6.6.6.6.6.6.6.6.6.6.6.6.5.z N.H.G.G.G.G.G.G.G.G.",
"%X%X%X%X%X%X$X{ kXlXlXlXlXlXlXlXlXlXlXlXlXlXlXlXlXlXlXlXlXlXlXlXlXlXuXa 9.6.6.6.6.6.6.6.6.6.6.6.6.6.6.6.5.z N.H.G.G.G.G.G.G.G.G.",
"%X%X%X%X%X%X$X{ kXlXlXlXlXlXlXlXlXlXlXlXlXlXlXlXlXlXlXlXlXlXlXlXlXlXuXa 9.6.6.6.6.6.6.6.6.6.6.6.6.6.6.6.5.z N.H.G.G.G.G.G.G.G.G.",
"%X%X%X%X%X%X$X{ kXlXlXlXlXlXlXlXlXlXlXlXlXlXlXlXlXlXlXlXlXlXlXlXlXlXuXa 9.6.6.6.6.6.6.6.6.6.6.6.6.6.6.6.5.z N.H.G.G.G.G.G.G.G.G.",
"%X%X%X%X%X%X$X{ kXlXlXlXlXlXlXlXlXlXlXlXlXlXlXlXlXlXlXlXlXlXlXlXlXlXuXa 9.6.6.6.6.6.6.6.6.6.6.6.6.6.6.6.5.z N.H.G.G.G.G.G.G.G.G.",
"%X%X%X%X%X%X$X{ kXlXlXlXlXlXlXlXlXlXlXlXlXlXlXlXlXlXlXlXlXlXlXlXlXlXuXa 9.6.6.6.6.6.6.6.6.6.6.6.6.6.6.6.5.z N.H.G.G.G.G.G.G.G.G.",
"%X%X%X%X%X%X$X{ kXlXlXlXlXlXlXlXlXlXlXlXlXlXlXlXlXlXlXlXlXlXlXlXlXlXuXa 9.6.6.6.6.6.6.6.6.6.6.6.6.6.6.6.5.z N.H.G.G.G.G.G.G.G.G.",
"%X%X%X%X%X%X$X{ kXlXlXlXlXlXlXlXlXlXlXlXlXlXlXlXlXlXlXlXlXlXlXlXlXlXuXa 9.6.6.6.6.6.6.6.6.6.6.6.6.6.6.6.5.z N.H.G.G.G.G.G.G.G.G.",
"%X%X%X%X%X%X$X{ kXlXlXlXlXlXlXlXlXlXlXlXlXlXlXlXlXlXlXlXlXlXlXlXlXlXuXa 9.6.6.6.6.6.6.6.6.6.6.6.6.6.6.6.5.z N.H.G.G.G.G.G.G.G.G.",
"%X%X%X%X%X%X$X{ kXlXlXlXlXlXlXlXlXlXlXlXlXlXlXlXlXlXlXlXlXlXlXlXlXlXuXa 9.6.6.6.6.6.6.6.6.6.6.6.6.6.6.6.5.z N.H.G.G.G.G.G.G.G.G.",
"%X%X%X%X%X%X$X{ kXlXlXlXlXlXlXlXlXlXlXlXlXlXlXlXlXlXlXlXlXlXlXlXlXlXuXa 9.6.6.6.6.6.6.6.6.6.6.6.6.6.6.6.5.z N.H.G.G.G.G.G.G.G.G.",
"%X%X%X%X%X%X$X{ kXlXlXlXlXlXlXlXlXlXlXlXlXlXlXlXlXlXlXlXlXlXlXlXlXlXuXa 9.6.6.6.6.6.6.6.6.6.6.6.6.6.6.6.5.z N.H.G.G.G.G.G.G.G.G.",
"%X%X%X%X%X%X$X{ kXlXlXlXlXlXlXlXlXlXlXlXlXlXlXlXlXlXlXlXlXlXlXlXlXlXuXa 9.6.6.6.6.6.6.6.6.6.6.6.6.6.6.6.5.z N.H.G.G.G.G.G.G.G.G.",
"%X%X%X%X%X%X$X{ kXlXlXlXlXlXlXlXlXlXlXlXlXlXlXlXlXlXlXlXlXlXlXlXlXlXuXa 9.6.6.6.6.6.6.6.6.6.6.6.6.6.6.6.5.z N.H.G.G.G.G.G.G.G.G.",
"%X%X%X%X%X%X$X{ kXlXlXlXlXlXlXlXlXlXlXlXlXlXlXlXlXlXlXlXlXlXlXlXlXlXuXa 9.6.6.6.6.6.6.6.6.6.6.6.6.6.6.6.5.z N.H.G.G.G.G.G.G.G.G.",
"%X%X%X%X%X%X$Xy qXrXrXrXrXrXrXrXrXrXrXrXrXrXrXrXrXrXrXrXrXrXrXrXrXrX7X* 1.<.<.<.<.<.<.<.<.<.<.<.<.<.<.<.2.d p.l.z.z.z.z.z.x.l.k.",
"%X%X%X%X%X%X$Xt -X<X<X<X<X<X<X<X<X<X<X<X<X<X<X<X<X<X<X<X<X<X<X<X<X<X1X,X;X;X;X;X;X;X;X;X;X;X;X;X;X;X;X;X:X] ~ ) ( ( ( ( ( _ ! X ",
"%X%X%X%X%X%X$X{ kXlXlXlXlXlXlXlXlXlXlXlXlXlXlXlXlXlXlXlXlXlXlXlXlXlXlXlXlXlXlXlXlXlXlXlXlXlXlXlXlXlXlXlXlX>.'.*X%X%X%X%X%X&X].X ",
"%X%X%X%X%X%X$X{ kXlXlXlXlXlXlXlXlXlXlXlXlXlXlXlXlXlXlXlXlXlXlXlXlXlXlXlXlXlXlXlXlXlXlXlXlXlXlXlXlXlXlXlXlX,.'.*X%X%X%X%X%X&X].X ",
"%X%X%X%X%X%X$X{ kXlXlXlXlXlXlXlXlXlXlXlXlXlXlXlXlXlXlXlXlXlXlXlXlXlXlXlXlXlXlXlXlXlXlXlXlXlXlXlXlXlXlXlXlX,.'.*X%X%X%X%X%X&X].X ",
"%X%X%X%X%X%X$X{ kXlXlXlXlXlXlXlXlXlXlXlXlXlXlXlXlXlXlXlXlXlXlXlXlXlXlXlXlXlXlXlXlXlXlXlXlXlXlXlXlXlXlXlXlX,.'.*X%X%X%X%X%X&X].o ",
"%X%X%X%X%X%X$X{ kXlXlXlXlXlXlXlXlXlXlXlXlXlXlXlXlXlXlXlXlXlXlXlXlXlXlXlXlXlXlXlXlXlXlXlXlXlXlXlXlXlXlXlXlX,.'.*X%X%X%X%X%X&X].;.",
"%X%X%X%X%X%X$X{ kXlXlXlXlXlXlXlXlXlXlXlXlXlXlXlXlXlXlXlXlXlXlXlXlXlXlXlXlXlXlXlXlXlXlXlXlXlXlXlXlXlXlXlXlX,.'.*X%X%X%X%X%X&X].>X",
"%X%X%X%X%X%X$X{ kXlXlXlXlXlXlXlXlXlXlXlXlXlXlXlXlXlXlXlXlXlXlXlXlXlXlXlXlXlXlXlXlXlXlXlXlXlXlXlXlXlXlXlXlX,.'.*X%X%X%X%X%X&X].>X",
"|.|.|.|.|.|.[.` dXjXjXjXjXjXjXjXjXjXjXjXjXjXjXjXjXjXjXjXjXjXjXjXjXjXjXjXjXjXjXjXjXjXjXhXhXgXhXfXfXfXfXfXfX:.(. X{.{.{.{.{.}.).=X",
"T T T T T T T 9 |  . . . . . . . . . . . . . . . . . . . . . . . . . . . . . . . . .....' H L J J J J J K 7 w I P P P P P I r q ",
"lXlXlXlXlXlXlXlXlXlXlXlXlXlXlXlXlXlXlXlXlXlXlXlXlXlXlXlXlXlXlXlXlXlXlXlXlXlXlXlXlXlXlXlXwXi.E.J.J.J.J.J.R.S _.OXXXXXXXXXXXXXXX.X",
"lXlXlXlXlXlXlXlXlXlXlXlXlXlXlXlXlXlXlXlXlXlXlXlXlXlXlXlXlXlXlXlXlXlXlXlXlXlXlXlXlXlXlXlXrXy.P.G.G.G.G.G.L.N '.*X%X%X%X%X%X%X%X%X",
"lXlXlXlXlXlXlXlXlXlXlXlXlXlXlXlXlXlXlXlXlXlXlXlXlXlXlXlXlXlXlXlXlXlXlXlXlXlXlXlXlXlXlXlXrXy.L.G.G.G.G.G.L.N '.*X%X%X%X%X%X%X%X%X",
"lXlXlXlXlXlXlXlXlXlXlXlXlXlXlXlXlXlXlXlXlXlXlXlXlXlXlXlXlXlXlXlXlXlXlXlXlXlXlXlXlXlXlXlXrXy.L.G.G.G.G.G.L.N '.*X%X%X%X%X%X%X%X%X",
"lXlXlXlXlXlXlXlXlXlXlXlXlXlXlXlXlXlXlXlXlXlXlXlXlXlXlXlXlXlXlXlXlXlXlXlXlXlXlXlXlXlXlXlXrXy.L.G.G.G.G.G.L.N '.*X%X%X%X%X%X%X%X%X",
"lXlXlXlXlXlXlXlXlXlXlXlXlXlXlXlXlXlXlXlXlXlXlXlXlXlXlXlXlXlXlXlXlXlXlXlXlXlXlXlXlXlXlXlXrXy.L.G.G.G.G.G.L.N '.*X%X%X%X%X%X%X%X%X",
"lXlXlXlXlXlXlXlXlXlXlXlXlXlXlXlXlXlXlXlXlXlXlXlXlXlXlXlXlXlXlXlXlXlXlXlXlXlXlXlXlXlXlXlXrXy.L.G.G.G.G.G.L.N '.*X%X%X%X%X%X%X%X%X",
"lXlXlXlXlXlXlXlXlXlXlXlXlXlXlXlXlXlXlXlXlXlXlXlXlXlXlXlXlXlXlXlXlXlXlXlXlXlXlXlXlXlXlXlXrXy.L.G.G.G.G.G.L.N '.*X%X%X%X%X%X%X%X%X"
};
