/* XPM */
static char *result[] = {
/* columns rows colors chars-per-pixel */
"64 64 237 2 ",
"   c #0F2539",
".  c #591017",
"X  c #751119",
"o  c #711A24",
"O  c #45223C",
"+  c #5C3F3C",
"@  c #6E332E",
"#  c #3A4636",
"$  c #786D17",
"%  c #525431",
"&  c #6A532E",
"*  c #676122",
"=  c #64642B",
"-  c #6F6A33",
";  c #0F2E4D",
":  c #182C48",
">  c #0D2D53",
",  c #0C2E5B",
"<  c #142D54",
"1  c #192D58",
"2  c #04365A",
"3  c #0D3559",
"4  c #17355C",
"5  c #25344C",
"6  c #0B3764",
"7  c #063B6B",
"8  c #0C3A6C",
"9  c #153966",
"0  c #11396B",
"q  c #0D3E79",
"w  c #153F7A",
"e  c #243B66",
"r  c #583E4A",
"t  c #3A454A",
"y  c #2A4256",
"u  c #324459",
"i  c #0B4276",
"p  c #05437C",
"a  c #0A427D",
"s  c #174079",
"d  c #14427B",
"f  c #3B4D69",
"g  c #464B56",
"h  c #4C5453",
"j  c #595757",
"k  c #6D504E",
"l  c #685D5E",
"z  c #706953",
"x  c #4B5B6A",
"c  c #585B63",
"v  c #55606C",
"b  c #4F6474",
"n  c #696968",
"m  c #786B69",
"M  c #76756B",
"N  c #656C76",
"B  c #616F7E",
"V  c #687278",
"C  c #747473",
"Z  c #787876",
"A  c #7B7B76",
"S  c #7D7C79",
"D  c #9B070B",
"F  c #90130E",
"G  c #950C14",
"H  c #A8080B",
"J  c #B3090C",
"K  c #BA1D0A",
"L  c #AC1215",
"P  c #AF2609",
"I  c #981922",
"U  c #8F292C",
"Y  c #972727",
"T  c #963033",
"R  c #9E3839",
"E  c #B92123",
"W  c #A33738",
"Q  c #C50507",
"!  c #DB0406",
"~  c #D80408",
"^  c #E10406",
"/  c #EB0204",
"(  c #E10409",
")  c #EC0408",
"_  c #F50203",
"`  c #FD0002",
"'  c #F50309",
"]  c #995608",
"[  c #A65506",
"{  c #8F6D0E",
"}  c #937D0F",
"|  c #937D11",
" . c #A76205",
".. c #A1620A",
"X. c #B47008",
"o. c #B8700C",
"O. c #884E32",
"+. c #867A24",
"@. c #807835",
"#. c #854F4F",
"$. c #985758",
"%. c #A45757",
"&. c #886859",
"*. c #A5615C",
"=. c #A45E61",
"-. c #8B6A69",
";. c #956A69",
":. c #837775",
">. c #9B7777",
",. c #A76F6E",
"<. c #AE7674",
"1. c #7C807E",
"2. c #9B870A",
"3. c #8F8013",
"4. c #978A17",
"5. c #A48C08",
"6. c #AB9909",
"7. c #AD980E",
"8. c #BCA406",
"9. c #998D24",
"0. c #958C2E",
"q. c #9B8D38",
"w. c #B69E23",
"e. c #A89531",
"r. c #ADA122",
"t. c #C1A505",
"y. c #C9AD08",
"u. c #CDB70C",
"i. c #D4B505",
"p. c #D3B907",
"a. c #DBC207",
"s. c #E9CA06",
"d. c #F0CF06",
"f. c #F4D205",
"g. c #FFD500",
"h. c #FDD901",
"j. c #F3D20B",
"k. c #978B48",
"l. c #9E9449",
"z. c #908957",
"x. c #968B5D",
"c. c #A49754",
"v. c #A2A059",
"b. c #8B8A63",
"n. c #938E74",
"m. c #A6897B",
"M. c #A2A572",
"N. c #024384",
"B. c #0A4383",
"V. c #054388",
"C. c #134285",
"Z. c #134188",
"A. c #5D6F86",
"S. c #687283",
"D. c #AF7C80",
"F. c #7C858D",
"G. c #858482",
"H. c #888787",
"J. c #8B8986",
"K. c #8E8D8A",
"L. c #9A8A86",
"P. c #918D8C",
"I. c #8E918D",
"U. c #9B9C85",
"Y. c #92918D",
"T. c #878D93",
"R. c #908E90",
"E. c #8E9293",
"W. c #949391",
"Q. c #999592",
"!. c #9B9A96",
"~. c #949899",
"^. c #9D9D9A",
"/. c #A68E8B",
"(. c #A69A98",
"). c #A19E9D",
"_. c #B19793",
"`. c #B1AA8E",
"'. c #A9A497",
"]. c #A3A39E",
"[. c #9A9CA0",
"{. c #A6A5A2",
"}. c #A9A6A4",
"|. c #A6AAA7",
" X c #AAABA5",
".X c #ADADAA",
"XX c #B1AEAB",
"oX c #ABB2AC",
"OX c #B1B0A7",
"+X c #B3B2AD",
"@X c #B5B6B2",
"#X c #BAB6B2",
"$X c #B6B9B5",
"%X c #BBB9B4",
"&X c #B6BDB9",
"*X c #BDBCBA",
"=X c #C2BFBE",
"-X c #BDC2BB",
";X c #C2C2BD",
":X c #BEC2C0",
">X c #C4C4C1",
",X c #C7C8C5",
"<X c #CACAC5",
"1X c #CFCDCB",
"2X c #D2CFCB",
"3X c #CED1CA",
"4X c #D2D0C7",
"5X c #D2D1CC",
"6X c #CBD3D0",
"7X c #D5D4D1",
"8X c #D9D6D2",
"9X c #DADBD5",
"0X c #D9DBD7",
"qX c #E1DEDA",
"wX c #DBE1D9",
"eX c #E3E3DE",
"rX c #E6E9DF",
"tX c #DDE8E2",
"yX c #E5E5E2",
"uX c #E9E6E3",
"iX c #E6E8E2",
"pX c #ECEBE5",
"aX c #EEEEE9",
"sX c #F0EEE5",
"dX c #F1EEEA",
"fX c #ECF3E7",
"gX c #EDF2EB",
"hX c #F2F9E7",
"jX c #F5F5ED",
"kX c #F9F6ED",
"lX c #F5F9ED",
"zX c #F9F8EE",
"xX c #ECF6F1",
"cX c #F5F6F0",
"vX c #F9F6F1",
"bX c #F5F8F1",
"nX c #F9F8F2",
/* pixels */
"vXvXvXvXvXvXvX>X#XvXvXvXvXvXvXvXvXvXvXvXvXvXvXvXkX#X2XyX^.vXvXvXvXvXXXuXvXcXvXP.vXcXvX!.uX7X+XcXvXvX}.vXcXvXvXvXvXvXvX].vXvXvXvX",
"vXvXvXjXvXvXvX=X#XvXvXcXkXcXvXvXvXvXkXvXvXvXvXvXvX#X2XyX(.zXvXjXcXcX.XpXvXkXvXJ.vXcXvX!.pX5XoXvXvXvX}.vXvXvXvXkXvXvXvX).vXvXvXvX",
"cXcXvXvXcXcXcX>X*XkXkXkXvXkXdXkXkXvXkXkXkXdXkXzXvX#X2XeX^.jXcXcXcXvX.XuXcXcXvXJ.nXcXvX^.pX5XXXvXvXvX}.vXvXcXcXcXcXvXvX^.vXvXcXjX",
"cXcXcXjXcXcXcX>X*XkXjXkXvXvXvXvXkXzXkXdXkXjXjXjXjX%X5XeX^.jXcXcXjXvX.XiXjXcXvXP.nXvXvX!.pX2X.XvXcXvX}.vXcXvXdXjXcXdXjX^.jXcXcXcX",
"cXcXcXcXcXcXvX>XM '.'.'.(.].].{.{.{.{.(._._._._._.:.3XeX^.zXcXcXjXkXXXuXkXjXjXP.vXvXvX!.pX5XXXcXcXvX}.vXjXvXkXkXvXjXzX^.cXcXcXcX",
"cXcXvXvXcXcXvX-X8.a.s.a.z.9XwXwXwXwX2XG / / / / / J 2XeX^.kXcXcXzXvX.XuXjXkXdXP.vXvXvX!.pX5XXXvXcXvX}.vXlXjXlXlXzXzXbX).cXvXcXcX",
"pXpXpXpXuXdXdX#X8.d.f.d.v.pXpXpXpXpXwXD ` ` ` ` ` Q 4XeX^.kXjXcXcXjXXX0XpXpXpXG.dXpXpXW.qX,X}.dXpXaX^.aXpXpXpXpXpXpXjXQ.pXpXpXpX",
"W.Q.Q.Q.Q.Q.Q.Z $ 2.z W.g < > > > ; : D ` ` ` ` ` Q 3XeX^.zXvXjXjXvXXX| 2.5.5.% Q.Q.W.l P.G.V Q.Q.W.g < > > ; < ; > 1 5 Q.W.Q.Q.",
"xXxXnXnXxXbXvX-X8.f.`.zXA.N.N.N.B.N.C.D ' ` ` ` ` Q 4XeX^.jXcXcXvXvXXXs.g.g.g.x.kXvXvX^.iX6X+XvXnXbXS.N.N.N.N.N.N.p V.x nXnXbXvX",
";.;.;.;.-.-.W.Z t.f.`.zXC f y f f # % D ` ` ` ` ` Q 2XeX^.jXcXcXvXvX.Xk.q.k.k.M vXzXkX!.$.&.XXvXbXzXV N.p N.N.N.N.N.N.x nXbXvXvX",
"' ` _ _ ' J tX>Xt.f.`.lX{.hX XfX3Xp.f.D ` ` ` ` ` Q 2XeX].lXzXvXvXkX XyXvXzXvXP.vXvXkX(./ ! XXbXzXjXB N.N.N.N.p N.p N.b kXkXjXjX",
"Q Q ~ Q Q F $XW.2.y.n.*X1.;XY.sX3Xp.f.H ` ` ` ` ` Q 5XyX:.;X;X;X;X>XJ.@X;X;X*XG.cXcXjX(./ ^ J.:X=X;Xc 9 6 8 0 8 0 0 3 g ;X=X;X;X",
"i.i.i.i.i.i.i.6.].;X9.p.i.i.9.aX3Xp.j.D ` ` ` ` ` Q 2XeXG.,XG.1XK.>XK.9 7 8 0 V kXkXvX(./ ! Q.,XU ! ! ~ ! ! ! ! ! ! ~ F ! ! ! ! ",
"g.g.g.g.g.g.g.y.$XsXw.h.h.h.r.fX1Xp.d.D ` ` ` ` ` Q 5XeX^.dX{.zX{.sX.Xi N.N.i V jXcXcX).) ! OXgXY ` ` ` ` ` ` ` ` _ _ D ` ` ` ` ",
"g.g.g.g.g.g.g.y.$XhXm n.v.n.M sX1Xp.f.+ ;.,.,.;.-.#.3XeX^.jX XkX>.W U a N.N.N.# q.q.q.3.....+.q.{  . . . . . . . . ...@ O O O O ",
"g.g.g.g.g.g.g.y.$XdX|.kXkXhX XsX1Xp.d.I.fXlXzXzXzX@X3XeX(.jX}.kX<.' J p N.N.B.* g.g.g.g.g.g.h.h.g.g.g.g.g.g.g.h.g.g.h.= Z.C.B.C.",
"| | } | | } } $ $XfXC P.L.P.n J.:.$ 3.j I.P.W.R.Y.C 2XeXj P.n P.k H X ; < : 5 * g.g.g.g.g.g.g.g.g.g.g.g.g.g.g.g.g.g.f.= B.N.N.N.",
"p B.p a a B.q 6 *XaXE / ' ' E iX3X<XpXjXgXdXaXn.j.8.4XyX5.f.M.pX^.rXpXdXeXJ _ ] g.g.g.g.g.g.g.g.g.g.g.g.g.g.g.g.g.g.g.= N.N.N.B.",
"B.B.B.B.B.B.B.9 [.6XE ` ` ` E 3X+X@X9X9X0X0X0Xb.a.6.3XtX5.f.M.lXE.5X9X0X8XJ ` ] g.g.g.g.g.g.g.g.g.g.g.g.g.g.g.g.g.g.g.= p N.N.B.",
"B.B.p B.V.V.V.8 { 7.K ` ` ` H 3 : K.{.{.}.{.{.{.'.S 2XyX5.h.M.hXF.3 4 3 4 H ` ] g.g.g.g.g.g.g.g.g.g.g.g.g.g.g.g.g.g.g.& p N.N.V.",
"N.N.N.N.B.N.V.0 t.f.K ` ` ` L p 0 1XvXvXvXvXvXvXvX%X3XtX6.h.M.lXF.a B.N.B.H ` ] g.g.g.g.g.g.g.g.g.g.g.g.g.g.g.g.g.g.h.= p N.N.N.",
"N.N.N.N.N.N.N.8 8.f.K ` ` ` H x x R.).).[.).).).^.A G.W.= l.k *.r p B.B.w H ` ] g.g.g.g.g.g.g.g.g.g.g.g.g.g.g.g.g.g.h.= N.N.N.N.",
"N.N.N.N.N.N.V.7 t.f.K ` ` ` E pXcXvXjXkXkXvXvXvXjX@X1XeX^.aXW ` I a p B.p H ` ] g.g.g.g.g.g.g.g.g.g.g.g.g.g.g.g.g.g.g.= N.N.N.N.",
"N.N.N.N.N.N.V.7 t.f.K ` ` ` E pXcXvXcXcXcXcXcXvXlX#X1XyXn ^.U J . < , < > H _ ] g.g.g.g.g.g.g.g.g.g.g.g.g.g.g.g.g.g.h.= B.N.N.N.",
"N.N.V.N.N.N.V.7 8.d.K ` ` ` E aXcXcXcXcXcXcXcXlXjX%X5XyX; 8 V 5X1.p.2.,X1XH _ ] g.g.g.g.g.g.g.g.g.g.g.g.g.g.g.g.g.g.g.= N.N.N.N.",
"N.V.V.N.N.N.V.7 8.d.K / / / E aXcXcXcXcXjXvXcXjXhX#X2XeX1 i S.uXx.s.6.9X0XL ) ] g.g.g.g.g.g.g.g.g.g.g.g.g.g.g.g.g.g.g.= C.q q B.",
"N.N.N.N.N.N.N.7 8.f.&./././.Z aXcXcXcXcXcXxXbXjXkX#X5XeXc E.- r.- M.!.{.{.L./.+.h.g.g.g.g.g.g.g.g.g.g.g.g.g.g.g.g.g.g.@.E.T.T.T.",
"V.N.N.q N.N.p 7 8.f.`.lXkXkX|.aXcXvXgXcXcXcXcXjXlX%X2XyX(.kXl.h.e.lXzXnXcXvXcX+.g.g.g.h.g.g.g.g.g.g.g.g.g.g.h.h.g.g.g.l.xXnXvXvX",
"f 5 t t h t f u t.f.`.vXzXlX.XaXcXcXcXcXcXcXcXjXhX#X5XeXj F.j 3.% F.F.T.F.F.F.& o.X.X.X.X.X.X.X.X.X.X.X.X.X.X.X.X.o.o.O.D.:.}.).",
"uX0.f.f.d.2.uX*Xt.f.`.zXjXlX XaXcXcXcXcXcXjXcXjXkX#X2XeX> B.a a C.q B.N.V.B.q o ' _ _ _ _ _ _ _ _ _ _ _ _ _ _ _ _ _ _ _ ' E wX@X",
"dX9.g.g.g.2.pX;X5.u.n.3X1X4XW.fXcXxXvXbXcXvXjXcXjX%X@X-X< B.B.B.B.V.N.N.N.V.N.o ! ( ( ( / ( ! ^ ^ ^ ^ ^ ^ ^ ( ( ( ( ( ( ^ I -X^.",
"jX9.g.g.g.2.sX;XK.OXS @Xz t.+.fXcXcXjXcXcXxXbXvXjX@XH J 1 V.N.N.N.V.N.N.N.V.V.g oXx 3   7.2.G.OX: 6 2 2 2 2 2 2 2 2 2 2 3 : |.H.",
"jX9.g.g.g.5.sX>X*XdXXXzXv.h.r.aXcXcXvXvXcXjXcXcXvX*X! / 1 C.N.N.N.N.N.V.N.N.N.N bXN V.> f.a.OXfXu B.B.B.V.V.Z.q N.N.N.p B.e rX$X",
"J.M x.& P F T U Y T l K.:.x.z aXcXkXvXvXvXkXkXkXgX#X~ / 5 V.N.N.N.N.N.N.N.N.V.V bXN V.1 z.z  XjX5 ; 5 v v c x % * % % # v g 1.n ",
"vXjXvX$._ ` ` ` ` ' /.nXjXvX|.pXvXvXkXkXkXkXkXkXjX$X! / 1 Z.N.N.N.V.N.V.N.N.p V gXN C.> rX5XOXhXu B.N vXvXcX2Xu.f.h.h.c.vXQ.iX&X",
"{.].(.k L J L J H H l ^.^.^.C !.(.).].{.{.(.].{.~.D.F L 1 B.N.V.N.N.N.N.N.N.N.g _.h 4 : !.K.C ].5 V.b vXvXcX2Xi.g.h.h.l.bXE.W.n.",
"wXeXeXwXeXeXeX%X, i w 0 q q w q 6 *XeXeXyXA yXeXtXtXwX6X1 N.N.N.B.C.C.B.N.N.C.X / R wXeXwXeXeX0Xu V.b nXvXvX5Xu.g.g.g.c.cXU.a.6.",
"uXiXrXuXuXuXrX*X, s i a w p p q 9 2XjXvXbXG.vXvXxXxXzXrX< i a q s i w w d d d X ` R bXcXvXvXjXaXu B.b iXpXuX>Xy.d.d.s.l.yXn.a.6.",
"}.{. X].{.{.{.{.~.~.= 4.4.4.4.4.+.3XjXcXvXK.vXvXjXvXlXeXc ~.~.~.k G G G G G F G ` R lXjXvXcXjXjXn [.V |.}.}.Q.F K z `.k E o U.1.",
"zXzXzXzXjXjXcXcXcXfXw.h.g.g.g.g.p.,XvXcXbXH.vXvXcXjXjXeX^.vXcXjX<.` ` ` ` ` ` D ` R lXxXvXcXjXdXK.vX{.vXvXzX3X~ ' <.lX*.` Y wX$X",
"kXzXcXcXcXcXcXcXcXfXw.h.g.g.g.g.p.&.>.>.>.M vXvXcXcXcXyX^.jXcXcX<.' ` ` ` ` ` H ` R hXjXvXcXjXjXR.vX{.vXjXjX3XQ ' m.vXm Y @ P.Z ",
"kXzXcXjXcXcXcXcXcXaXw.h.g.g.g.g.i.! ` ` ` $.cXcXjXcXbXwX^.zXjXvX<.` ` ` ` ` ` D ` R jXcXcXcXjXjXK.vX{.cXjXzX5X~ ' D.nX).nX^.yX&X",
"kXzXjXvXcXcXxXjXbXfXw.h.g.g.g.g.p.! ` ` ` $.vXvXcXcXvXeX^.zXvXcX<.` ` ` ` ` ` D ` R xXlXcXcXvXdXC =Xn.&X*X*X).H Q -.=XS -XS @XW.",
"kXkXvXvXcXbXbXvXzXfXw.h.g.g.g.g.i.! ` ` ` $.nXcXvXbXcXeX^.vXjXvX<._ ` ` ` ` ` D ` R zXgXcXcXvXaXC @XS #X@X+X^.R.OX$ 8.- $Xn |.H.",
"zXjXnXvXbXbXvXbXjXaXw.h.h.h.g.h.p.! ` ` ` $.cXjXnXvXjXeX^.vXvXvX<._ ` ` ` ` _ H ` R jXgXbXcXcXcXJ.cX}.vXvXvX5X,XfXe.f.l.xXQ.tX$X",
"Y.Y.Y.Y.I.I.I.I.Y.J.j x.& # # % # ! ` ` ` @ W.K.Y.Y.Y.H.j I.Y.P.:.=.#.] [ [ [ @ $.k E.C K.I.W.K.j R.n R.Y.Y.n.V I.M x.l K.j g u ",
"vXzXkXkXkXvXzXzXzXsXOXzXS.N.B.C.0 ! ` ` ` $.vXnXzXkXvXyX^.bXkXkXvXvX.Xd.g.g.h.b.zXE.vX^.uXnXjXhXK.jX}.nXvXvX5X<XlXlXjX^.vXT.a N.",
"vXvXvXvXvXvXvXvXjXjX.XnXA.V.C.d 4 ! ` ` ` $.vXvXvXvXvXeX^.jXvXvXvXjX.Xs.g.g.h.b.vXC H.j G.Y.Y.P.h K.n R.Y.Y.S C Y.Y.K.l L.j d B.",
"vXjXjXvXjXbXcXjXcXgX.XzXB B.C.N.8 ~ ` ` ` $.nXjXvXcXcXyX^.kXvXcXvXvXXXs.g.g.g.b.lXN d ; eXjXcXdXP.jX{.jXcXcX1X>XkXzXjX=.) G d B.",
"kXzXcXvXcXcXxXvXvXaXXXzXB N.Z.B.e Q ^ ! ! $.vXkXcXcXcXeX^.vXcXcXjXvX.Xs.g.g.h.b.lXN q : pXkXvXdXP.zX}.vXvXvX1X,XkXkXvX$.` G p C.",
"zXjXcXcXcXcXcXcXjXaX.XzXB N.Z.C.0 J.}.(.(.Z vXvXcXcXcXeX^.vXnXvXvXjX.Xd.g.g.h.b.hXS.).n pXkXcXjXK.bX}.vXvXhX5X<XvXvXkX$.` G d B.",
"kXjXjXcXcXcXcXjXcXfX.XzXB B.C.B.7 2XvXnXvXP.vXvXcXcXcXeX^.cXcXvXnXjXXXs.h.g.h.x.zXQ.vX(.uXvXvXcXI.vX}.vXvXvX5X<XvXvXvX=.` G s N.",
"kXlXcXcXcXcXxXvXbXpX XkXB N.Z.p 7 1XnXcXvXP.vXnXcXcXcXyXj !.!.^.!.!.C k.l.l.l.j ^.l ^.n P.!.!.~.l ~.M !.!.!.J.S ~.^.~.-.%.#.b b ",
"kXjXjXvXcXcXcXcXvXdXXXkXB N.Z.B.7 2XvXcXcXJ.vXnXcXcXcXeX^.vXzXzXbXvX.XpXvXvXcXK.zXY.zX!.pXvXbXcXI.bX{.nXbXvX2X<XvXnXjXzXjXkXjXjX",
"kXkXjXvXcXcXjXcXzXgX.XkXB N.C.B.7 1XcXcXcXH.vXnXcXcXcXyX^.zXvXcXvXvXXXyXjXcXvXK.nXG.+XM .X#X@X+Xn @X1.$X@X@XY.^.#X#X+X#X#X#XXX#X",
"kXkXjXjXcXcXcXcXvXaXXXkXB N.C.B.7 1XcXcXnXH.vXvXcXjXcXwX^.vXcXcXcXcXXXuXvXjXjXK.vXK.8X7X8X8X8X5XA 7XY.7X7X9X%X+X8X8X8X8X8X8X8X7X",
"nXnXvXvXvXvXvXbXvXjXoXnXS.B.Z.B.0 2XvXcXcXH.nXnXcXcXcXeX^.jXcXcXcXcXXXiXjXcXjXK.vXW.vXvXjXvXjXjXP.vX{.vXkXlX4X<XvXvXcXcXjXcXjXcX",
"P.P.K.I.R.K.P.K.K.H.n I.% $ % S n 4XvXcXvXJ.vXvXcXcXcXeX^.jXcXcXcXcXXXuXjXvXjXK.jXW.vXvXcXcXjXdXP.vX}.vXjXlX5X<XvXvXcXcXcXcXcXcX",
"vXvXzXzXvXvXvXjXlXpX.XvXv.h.r.fX3X1XcXcXvXH.vXvXcXcXvXeX^.zXcXcXcXcXXXyXcXvXjXJ.cXY.vXjXcXcXjXjXP.vX}.vXkXlX3X,XcXvXcXcXcXcXcXcX",
"Y.W.W.Y.Y.Y.Y.W.Y.K.n I.z 4.= I.S 1XvXcXcXK.vXvXcXcXjXeX^.zXcXjXcXcXXXyXjXvXcXK.vXW.vXvXcXcXjXjXP.vX}.kXkXjX5X<XcXvXcXcXcXcXcXcX",
"jXdXdXdXdXdXdXdXdXpX.XkX^.fX XiX<X1XvXcXvXJ.nXvXcXcXcXwX^.zXvXcXcXvXXXyXcXcXjXK.nXR.vXvXvXjXjXdXP.vX}.vXvXlX1X<XvXvXcXvXjXcXcXcX",
"cXjXzXvXkXkXzXkXkXdXXXvX].hX XfX2X2XvXvXvXJ.nXvXjXcXcXyX^.vXcXcXvXvXXXyXjXvXjXK.nXW.vXvXjXjXjXjXJ.vX}.vXjXjX5X>XcXvXlXjXcXjXjXcX",
"vXzXkXzXkXkXkXvXkXdXXXvX].lX.XpX2X2XvXzXvXJ.vXvXjXvXcXeX).zXzXzXjXjXXXpXvXvXcXK.vXW.bXvXvXvXvXjXK.zX}.vXvXzX2X<XvXjXvXvXvXvXvXvX",
"nXjXkXkXkXzXjXvXvXdXXXnX}.zX XdX2X2XvXvXvXJ.vXvXjXzXjXyX^.zXjXjXnXbX.XiXbXvXvXJ.vXW.nXhXlXzXvXjXR.bX{.zXvXlX3X,XzXzXlXlXzXzXlXlX"
};
