/* XPM */
static char *result[] = {
/* columns rows colors chars-per-pixel */
"64 64 93 2 ",
"   c black",
".  c #010000",
"X  c #010100",
"o  c #010101",
"O  c #030000",
"+  c gray1",
"@  c #050000",
"#  c #060000",
"$  c #040400",
"%  c #000007",
"&  c #070707",
"*  c #0D0101",
"=  c #0C0C00",
"-  c #00000D",
";  c gray5",
":  c #130101",
">  c #1A0101",
",  c #1B1B00",
"<  c #101010",
"1  c #111111",
"2  c #1B1B1B",
"3  c #270202",
"4  c #330303",
"5  c #340303",
"6  c #3A0303",
"7  c #383800",
"8  c #000026",
"9  c #000035",
"0  c #2C2C2C",
"q  c gray19",
"w  c #323232",
"e  c #353535",
"r  c #373737",
"t  c #4A0404",
"y  c #610505",
"u  c #6E0606",
"i  c #730606",
"p  c #7B0707",
"a  c #515100",
"s  c #5F5F00",
"d  c #606000",
"f  c #787800",
"g  c #000041",
"h  c #00005F",
"j  c #000060",
"k  c #000078",
"l  c #00007C",
"z  c #414141",
"x  c #4E4E4E",
"c  c #515151",
"v  c gray32",
"b  c #565656",
"n  c #606060",
"m  c gray47",
"M  c #797979",
"N  c #8B0707",
"B  c #990808",
"V  c #B60A0A",
"C  c #CE0B0B",
"Z  c #D70C0C",
"A  c #F00D0D",
"S  c #F10D0D",
"D  c #F20D0D",
"F  c #F30D0D",
"G  c #808000",
"H  c #8E8E00",
"J  c #909000",
"K  c #A1A100",
"L  c #D8D800",
"P  c #E2E200",
"I  c #FEFE00",
"U  c yellow",
"Y  c navy",
"T  c #000090",
"R  c #0000A0",
"E  c #0000A1",
"W  c #0000B7",
"Q  c #0000D8",
"!  c #0000D9",
"~  c blue",
"^  c #808080",
"/  c #848484",
"(  c #8D8D8D",
")  c #A0A0A0",
"_  c gray63",
"`  c #A9A9A9",
"'  c #B7B7B7",
"]  c #D8D8D8",
"[  c gray85",
"{  c #E1E1E1",
"}  c #E2E2E2",
"|  c #FEFEFE",
" . c white",
/* pixels */
"U U U U U s   Q ~ ~ ~ ~ ~ ~ ~ ~ ~ ~ ~ ~ ~ ~ ~ ~ ~ ~ ~ ~ !   t D D D D D D D D D D D D D D D D D D D D D D D D D * , U U U U U U ",
"U U U U U d   Q ~ ~ ~ ~ ~ ~ ~ ~ ~ ~ ~ ~ ~ ~ ~ ~ ~ ~ ~ ~ !   t D D D D D D D D D D D D D D D D D D D D D D D D D * , U U U U U U ",
"U U U U U d   Q ~ ~ ~ ~ ~ ~ ~ ~ ~ ~ ~ ~ ~ ~ ~ ~ ~ ~ ~ ~ !   t D D D D D D D D D D D D D D D D D D D D D D D D D * , U U U U U U ",
"U U U U U d   Q ~ ~ ~ ~ ~ ~ ~ ~ ~ ~ ~ ~ ~ ~ ~ ~ ~ ~ ~ ~ !   t D D D D D D D D D D D D D D D D D D D D D D D D D * , U U U U U U ",
"U U U U U d   Q ~ ~ ~ ~ ~ ~ ~ ~ ~ ~ ~ ~ ~ ~ ~ ~ ~ ~ ~ ~ !   t D D D D D D D D D D D D D D D D D D D D D D D D D * , U U U U U U ",
"U U U U U d   Q ~ ~ ~ ~ ~ ~ ~ ~ ~ ~ ~ ~ ~ ~ ~ ~ ~ ~ ~ ~ !   t D D D D D D D D D D D D D D D D D D D D D D D D D * , U U U U U U ",
"U U U U U d   Q ~ ~ ~ ~ ~ ~ ~ ~ ~ ~ ~ ~ ~ ~ ~ ~ ~ ~ ~ ~ !   t D D D D D D D D D D D D D D D D D D D D D D D D D * , U U U U U U ",
"U U U U U d   Q ~ ~ ~ ~ ~ ~ ~ ~ ~ ~ ~ ~ ~ ~ ~ ~ ~ ~ ~ ~ !   t D D D D D D D D D D D D D D D D D D D D D D D D D * , U U U U U U ",
"U U U U U d   Q ~ ~ ~ ~ ~ ~ ~ ~ ~ ~ ~ ~ ~ ~ ~ ~ ~ ~ ~ ~ !   t D D D D D D D D D D D D D D D D D D D D D D D D D * , U U U U U U ",
"U U U U U d   Q ~ ~ ~ ~ ~ ~ ~ ~ ~ ~ ~ ~ ~ ~ ~ ~ ~ ~ ~ ~ !   t D D D D D D D D D D D D D D D D D D D D D D D D D * , U U U U U U ",
"U U U U U d   Q ~ ~ ~ ~ ~ ~ ~ ~ ~ ~ ~ ~ ~ ~ ~ ~ ~ ~ ~ ~ !   t D D D D D D D D D D D D D D D D D D D D D D D D D * , U U U U U U ",
"U U U U U d   Q ~ ~ ~ ~ ~ ~ ~ ~ ~ ~ ~ ~ ~ ~ ~ ~ ~ ~ ~ ~ !   t D D D D D D D D D D D D D D D D D D D D D D D D D * , U U U U U U ",
"U U U U U d   Q ~ ~ ~ ~ ~ ~ ~ ~ ~ ~ ~ ~ ~ ~ ~ ~ ~ ~ ~ ~ !   t D D D D D D D D D D D D D D D D D D D D D D D D D * , U U U U U U ",
"U U U U U d   Q ~ ~ ~ ~ ~ ~ ~ ~ ~ ~ ~ ~ ~ ~ ~ ~ ~ ~ ~ ~ !   t D D D D D D D D D D D D D D D D D D D D D D D D D * , U U U U U U ",
"U U U U U d   Q ~ ~ ~ ~ ~ ~ ~ ~ ~ ~ ~ ~ ~ ~ ~ ~ ~ ~ ~ ~ !   t D D D D D D D D D D D D D D D D D D D D D D D D D * , U U U U U U ",
"U U U U U d   Q ~ ~ ~ ~ ~ ~ ~ ~ ~ ~ ~ ~ ~ ~ ~ ~ ~ ~ ~ ~ !   t D D D D D D D D D D D D D D D D D D D D D D D D D * , U U U U U U ",
"U U U U U d   Q ~ ~ ~ ~ ~ ~ ~ ~ ~ ~ ~ ~ ~ ~ ~ ~ ~ ~ ~ ~ !   t D D D D D D D D D D D D D D D D D D D D D D D D D * , U U U U U U ",
"J J J J J 7   l T T T T T T T T T T T T T T T T T T T T Y   3 N N N N N N N N N N N N N N N N N N N N N N N N N # = J J J J J J ",
"                                                                                                                                ",
") ) ) ) ) z   ( ) ) ) ) ) ) ) ) ) ) ) ) ) ) ) ) ) ) ) ) /   r ) ) ) ) ) ) ) ) c   k R R R R R R R R R R R R R R % : B B B B B B ",
" . . . . .n   ]  . . . . . . . . . . . . . . . . . . . .[   x  . . . . . . . .^   W ~ ~ ~ ~ ~ ~ ~ ~ ~ ~ ~ ~ ~ ~ - > F D D D D D ",
" . . . . .n   ]  . . . . . . . . . . . . . . . . . . . .[   x  . . . . . . . .^   W ~ ~ ~ ~ ~ ~ ~ ~ ~ ~ ~ ~ ~ ~ - > F D D D D D ",
" . . . . .n   ]  . . . . . . . . . . . . . . . . . . . .[   x  . . . . . . . .^   W ~ ~ ~ ~ ~ ~ ~ ~ ~ ~ ~ ~ ~ ~ - > F D D D D D ",
" . . . . .n   ]  . . . . . . . . . . . . . . . . . . . .[   x  . . . . . . . .^   W ~ ~ ~ ~ ~ ~ ~ ~ ~ ~ ~ ~ ~ ~ - > F D D D D D ",
" . . . . .n   ]  . . . . . . . . . . . . . . . . . . . .[   x  . . . . . . . .^   W ~ ~ ~ ~ ~ ~ ~ ~ ~ ~ ~ ~ ~ ~ - > F D D D D D ",
" . . . . .n   ]  . . . . . . . . . . . . . . . . . . . .[   x  . . . . . . . .^   W ~ ~ ~ ~ ~ ~ ~ ~ ~ ~ ~ ~ ~ ~ - > F D D D D D ",
" . . . . .n   ]  . . . . . . . . . . . . . . . . . . . .[   x  . . . . . . . .^   W ~ ~ ~ ~ ~ ~ ~ ~ ~ ~ ~ ~ ~ ~ - > F D D D D D ",
" . . . . .n   ]  . . . . . . . . . . . . . . . . . . . .[   x  . . . . . . . .^   W ~ ~ ~ ~ ~ ~ ~ ~ ~ ~ ~ ~ ~ ~ - > F D D D D D ",
" . . . . .n   ]  . . . . . . . . . . . . . . . . . . . .[   x  . . . . . . . .^   W ~ ~ ~ ~ ~ ~ ~ ~ ~ ~ ~ ~ ~ ~ - > F D D D D D ",
" . . . . .n   ]  . . . . . . . . . . . . . . . . . . . .[   x  . . . . . . . .^   W ~ ~ ~ ~ ~ ~ ~ ~ ~ ~ ~ ~ ~ ~ - > F D D D D D ",
" . . . . .n   ]  . . . . . . . . . . . . . . . . . . . .[   x  . . . . . . . .^   W ~ ~ ~ ~ ~ ~ ~ ~ ~ ~ ~ ~ ~ ~ - > F D D D D D ",
" . . . . .n   ]  . . . . . . . . . . . . . . . . . . . .[   x  . . . . . . . .^   W ~ ~ ~ ~ ~ ~ ~ ~ ~ ~ ~ ~ ~ ~ - > F D D D D D ",
" . . . . .n   ]  . . . . . . . . . . . . . . . . . . . .[   x  . . . . . . . .^   W ~ ~ ~ ~ ~ ~ ~ ~ ~ ~ ~ ~ ~ ~ - > F D D D D D ",
" . . . . .n   ]  . . . . . . . . . . . . . . . . . . . .[   x  . . . . . . . .^   W ~ ~ ~ ~ ~ ~ ~ ~ ~ ~ ~ ~ ~ ~ - > F D D D D D ",
" . . . . .n   ]  . . . . . . . . . . . . . . . . . . . .[   x  . . . . . . . .^   W ~ ~ ~ ~ ~ ~ ~ ~ ~ ~ ~ ~ ~ ~ - > F D D D D D ",
" . . . . .n   ]  . . . . . . . . . . . . . . . . . . . .[   x  . . . . . . . .^   W ~ ~ ~ ~ ~ ~ ~ ~ ~ ~ ~ ~ ~ ~ - > F D D D D D ",
" . . . . .n   ]  . . . . . . . . . . . . . . . . . . . .[   x  . . . . . . . .^   W ~ ~ ~ ~ ~ ~ ~ ~ ~ ~ ~ ~ ~ ~ - > F D D D D D ",
" . . . . .n   ]  . . . . . . . . . . . . . . . . . . . .[   x  . . . . . . . .^   W ~ ~ ~ ~ ~ ~ ~ ~ ~ ~ ~ ~ ~ ~ - > F D D D D D ",
" . . . . .n   ]  . . . . . . . . . . . . . . . . . . . .[   x  . . . . . . . .^   W ~ ~ ~ ~ ~ ~ ~ ~ ~ ~ ~ ~ ~ ~ - > D S A A A A ",
"e e e e e <   w e e e e e e e e e e e e e e e e e e e e q   1 e e e e e e e e 2   8 9 9 9 9 9 9 9 9 9 9 9 9 9 9   @ 4 5 5 5 5 5 ",
"+ + + + + o   O O O O O O O O O O O O O O O O O O O O O O O O O O O O O O O O .   + + + + + + + + + + + + + + +   X $ $ $ $ $ $ ",
"} } } } } v   V Z Z Z Z Z Z Z Z Z Z Z Z Z Z Z Z Z Z Z Z Z Z Z Z Z Z Z Z Z Z Z u   ` } } } } } } } } } } } } } { ; , P P P P P P ",
" . . . . .n   C D D D D D D D D D D D D D D D D D D D D D D D D D D D D D D D p   '  . . . . . . . . . . . . . .; , U U U U U U ",
" . . . . .n   C D D D D D D D D D D D D D D D D D D D D D D D D D D D D D D D p   '  . . . . . . . . . . . . . .; , U U U U U U ",
" . . . . .n   C D D D D D D D D D D D D D D D D D D D D D D D D D D D D D D D p   '  . . . . . . . . . . . . . .; , U U U U U U ",
" . . . . .n   C D D D D D D D D D D D D D D D D D D D D D D D D D D D D D D D p   '  . . . . . . . . . . . . . .; , U U U U U U ",
" . . . . .n   C D D D D D D D D D D D D D D D D D D D D D D D D D D D D D D D p   '  . . . . . . . . . . . . . .; , U U U U U U ",
" . . . . .n   C D D D D D D D D D D D D D D D D D D D D D D D D D D D D D D D p   '  . . . . . . . . . . . . . .; , U U U U U U ",
" . . . . .n   C D D D D D D D D D D D D D D D D D D D D D D D D D D D D D D D p   '  . . . . . . . . . . . . . .; , U U U U U U ",
" . . . . .n   C D D D D D D D D D D D D D D D D D D D D D D D D D D D D D D D p   '  . . . . . . . . . . . . . .; , U U U U U U ",
" . . . . .n   C D D D D D D D D D D D D D D D D D D D D D D D D D D D D D D D p   '  . . . . . .| | | | | | | | ; , I I I I I I ",
"m m m m m 0   y i i i i i i i i i i i i i i i i i i i i i i i i i i i i i i i 6   b m m m m m m m m m m m m m m & = f f f f f f ",
"                                                                                            o o o o o o o o o o o o o o o o o o ",
"E E E E E g   H K K K K K K K K K K K K K K K K K K K K K K K K K K K K K K K a   M _ _ _ _ _ _ _ _ _ _ _ _ _ _ _ _ _ _ _ _ _ _ ",
"~ ~ ~ ~ ~ j   L U U U U U U U U U U U U U U U U U U U U U U U U U U U U U U U G   '  . . . . . . . . . . . . . . . . . . . . . .",
"~ ~ ~ ~ ~ j   L U U U U U U U U U U U U U U U U U U U U U U U U U U U U U U U G   '  . . . . . . . . . . . . . . . . . . . . . .",
"~ ~ ~ ~ ~ j   L U U U U U U U U U U U U U U U U U U U U U U U U U U U U U U U G   '  . . . . . . . . . . . . . . . . . . . . . .",
"~ ~ ~ ~ ~ j   L U U U U U U U U U U U U U U U U U U U U U U U U U U U U U U U G   '  . . . . . . . . . . . . . . . . . . . . . .",
"~ ~ ~ ~ ~ j   L U U U U U U U U U U U U U U U U U U U U U U U U U U U U U U U G   '  . . . . . . . . . . . . . . . . . . . . . .",
"~ ~ ~ ~ ~ j   L U U U U U U U U U U U U U U U U U U U U U U U U U U U U U U U G   '  . . . . . . . . . . . . . . . . . . . . . .",
"~ ~ ~ ~ ~ j   L U U U U U U U U U U U U U U U U U U U U U U U U U U U U U U U G   '  . . . . . . . . . . . . . . . . . . . . . .",
"~ ~ ~ ~ ~ j   L U U U U U U U U U U U U U U U U U U U U U U U U U U U U U U U G   '  . . . . . . . . . . . . . . . . . . . . . .",
"~ ~ ~ ~ ~ j   L U U U U U U U U U U U U U U U U U U U U U U U U U U U U U U U G   '  . . . . . . . . . . . . . . . . . . . . . .",
"~ ~ ~ ~ ~ h   L U U U U U U U U U U U U U U U U U U U U U U U U U U U U U U U G   '  . . . . . . . . . . . . . . . . . . . . . ."
};
