/* XPM */
static char *result[] = {
/* columns rows colors chars-per-pixel */
"64 64 79 1 ",
"  c #1D8EC5",
". c #1B8FC9",
"X c #1E90C7",
"o c #1F93CB",
"O c #1F96D0",
"+ c #1F99D5",
"@ c #208FC5",
"# c #2192C6",
"$ c #2194CC",
"% c #229ACD",
"& c #2097D0",
"* c #229BD4",
"= c #239ED9",
"- c #29ADC5",
"; c #25A4CD",
": c #28A7CB",
"> c #27AACC",
", c #29ACCC",
"< c #2BB3C6",
"1 c #2AB3CB",
"2 c #2DBBCE",
"3 c #24A3D3",
"4 c #26AAD5",
"5 c #28ACD3",
"6 c #24A2DC",
"7 c #28A3DD",
"8 c #25AADB",
"9 c #28AFDC",
"0 c #2BB4D4",
"q c #2DBCD4",
"w c #26B3DD",
"e c #2BB4DD",
"r c #2DBBDC",
"t c #25A5E2",
"y c #29A6E2",
"u c #26AAE5",
"i c #29ABE4",
"p c #27ABEA",
"a c #29ADEC",
"s c #26B3E4",
"d c #2BB5E4",
"f c #27B9E2",
"g c #2CBBE3",
"h c #27B2EB",
"j c #2BB3EC",
"k c #27B9E9",
"l c #2CBBEC",
"z c #30BEEF",
"x c #29AFF1",
"c c #27B2F1",
"v c #2BB3F4",
"b c #2DBBF4",
"n c #2CB6F9",
"m c #2DBAFA",
"M c #30BEF5",
"N c #30BEFA",
"B c #2FC3D4",
"V c #2FC2DB",
"C c #30C7D7",
"Z c #31CDD4",
"A c #30C4DD",
"S c #32CBDD",
"D c #32D0D3",
"F c #36DCD5",
"G c #34D4DC",
"H c #35D9D9",
"J c #2FC3E2",
"K c #2EC2ED",
"L c #2FC9EE",
"P c #30C5E0",
"I c #31CCE3",
"U c #31C4ED",
"Y c #31CAEB",
"T c #32D2E3",
"R c #2DC2F3",
"E c #2FC8F2",
"W c #2DC0F9",
"Q c #31C3F3",
"! c #31C0F8",
/* pixels */
"QQUQUMzMzvvvvxxaapauyt6t6====*===*=77777yyyyyayaxavvvnnnNnNNN!!Q",
"QQUUQUQMMvnvvxxvaaapput88ttt====666777yyyyyayaxxvnnnnnMNNNNN!QQQ",
"UUUYMMMMbmvvnvvvvvvaaputt8t76tt6ttyyiiiaaaxaxvvvnnNNNNMNNMQzQUUU",
"mbmNbbjvvblbbbMQURUQKQQbbbvvvcacaaaajavjjvxnnnnnNNNNMMMzMMzMMNMM",
"vvjaajdderrrrACSSGGHHHGTIYEEQWmbmbbnnvnnnnnvnnnnNMMMMMzMnvnnnnnn",
"aaaiidieeeerAASSGGHHFFFHGTTYYEEWWmbmnnnMnnnnnnnbMnMMMMMMnnvnbnxa",
"aaayiiei9eerrAAITGHFFFFHHTTTYEQERWmmnnnnnnnnNnnMMMzzMMnvbvxnxvxx",
"xaaiiiiedddrAgPIIGHFFFFHGTTYYEEmWmmmnnvvxnnnnMbMvzjzjzvMbvnnxxxx",
"xaaajaddddgggPPISGGHHFHGTTYERWmmncnccccxccxvvvvvvzjzzjzvvvnvvxxx",
"vvvvajjddggPPPPSSGGGGGGTLERbncchcppphppxxxxvvvvljzjzzvjvjvjvjxvx",
"ajjjjddgggAAACCZZDDDDSIKlksutt8tt6tttttupppxxxjkjjdjjjjjjjjaajaj",
"dddddggdrrrrqAACVVVVgfst86=++3+3++6++6tttpppaxjhijjjijdjjjdjjdjj",
"rrrgrgrgregeeeeew44333+;OOOOOOOO+OO+686tppcccckhzdddjdddddrdrrrr",
"rrAAPPAPrrreree0533;3*;+O+OO%OOOO+3==tupxvcWblKkrzrrrrrrrrrrrrrr",
"qBACSVPPPPrq00054>:;O;%%%+O%OO+=++===upccnWWRRKkrzzrrrrrqrAqqrqr",
"BBCAVVVVVrrq005:;;;%;%%OOO%+OO++3==6uphcnmWWRKJJArrqqrqrq2qq2q22",
"2222C2qqq00>>>>;;;;;%O%3O%o*+*+++=66uhcbbbbKKgrrr0r00q0202222222",
"2<2<1111>>>>>5>>;;%%3+%O***+**=+66utupcchksfwew050001001111<2<<<",
"<<<<<,1,>>>>>>33%%33**3+***+==6=tttuuuuusi984555:7::,,,1,,11<-<<",
"----,1::>>33333%33+%***36=66668tttutut8888484443::::::::,::,----",
">>>>:3333+8+668=66863686utut7868u8888633333333337:37:::3;333::::",
"%*+==666=88888ssshhkkjhjkkkksss988886333%3+33***%7*:*%3%33=***%=",
"**+==+3=+838wwwffkkKRRRREEEKlkd9833+333;*;;*333*%*******O%=***==",
"====3=63888wwsfkkkKkRRERRRRlds443>33;%%;O%%%*%O***%$%%%%%*&+*&**",
"66t8=636u8ssskkkkWkWkWkkkhs84:3;;%;;#X;o%o%%o%%**$%oo$o&**&&*&&*",
"66tt86688uuhsshhkkhksss88833;;%%%%#;;X%o%%%o%o$oo*&%%$&&%%**=+==",
"3+6****==3=6888483+8333>%;3O#;##X###X%;Xoo$$o%o%$o%oo$#o$&***+**",
"ooOo$*OOOOOOOOO%.OO+OOOooooO%%%%o%%##Xoo%ooooo$oooooo$&$$O$%*OOo",
"###oo$$&O.ooXXo%O.%XX%%oOooXo%%#%%ooXX%#$$oooXXo$ooo $oOOoo$$$Oo",
"#X XX$##ooXooX#Xo.XooXoXoooX@ #oX#%oooo%$o##oooXXoo$$$ $Xo#o## o",
"oXoXXXoXooooXooX.XoooooooooooXXX#Xo#X.XXoo$#$ooXXXoo$.$o$ .#.##o",
"ooo$X$oooXXooXXoo.XoooooXX XXooo#$Xooo..oo$$$#oooXXXoooooo  $o#$",
"@o@$@$o@o@@oo@.ooooo@Ooo$.$$ @  Xo#X @X.....$$$#$$  .&$.$$@@..$$",
"oooo$$o@o&@@oo@&ooooooo@$$ .   $oooo#@#Xo.. ..$$@@   $$$.$O.@ @#",
"$@oo$@o$oo@&&o&@ooooOOoO$.&$.$  XXoo$#@@@.o.$ ..$$$$@.$OOO$@.@@ ",
"@$o@@$oo.oo&@&@&OOOoo@o$$$. $$$$oooooo$#$$.o&$O   $$@  .@o.$$@. ",
"@&o&&@&o@o&&&&&&O$OOO$.$.$.$$&$.$ #.oo $$$$ oooo   $$$@@.$@O@.@o",
"&@$&&+&++=&+&=&=&&&$$$O$$@ $.o.$.$.  ooo$#@$oOoo$$  @$$$$$.@oOOO",
"&&&&+==7===7==7&**&&OO&.$$$o$$oo$$ooo oOoo## oOo$$$& @$$$OO$.@@&",
"&&=&==t=t=7=====***&O$$$@.$..oo#$.$oO$ooOoOo$#   $@.@.  @$$O&O@O",
"&&====7=7=7===&=*O&$ooO$$.$$.$oO$o&ooo$ooo*oX$##@@$$$$$$@O$$$*$&",
"&&&===7=&7=+&+&&&$Ooooo@ooo  ooo&O&&++***+%++o$%&$$$$$$$$O&&&$&*",
"&&&&&==&===&===+&$$@@oOooOOo&oO&&&&&+++++=*+++++&&$$$$$$&&$&&&$&",
"&==&&&==*===&&&&&&o$oooO$OoO&O$&&O&=+=6=6=666==+*&&&&&&&$O&$$*$*",
"*&&==&==7&=&==++&&&o&&o&O&$&&O&+*=+=66ttyuuuutt+=**&&*&&&$&$**&&",
"&&&&&==&*===*=++=+&&&&&&&&O&&**+===tttupuxpcputt==**&&&$$&&&$&&&",
"&&&=&$&==========+=&&&&&*&&&*=====ttupppcppput==*&*&&$$$$&&&$&&&",
"&*&&77====77==========&*&&=&==++=ttttuppppptt=++&&$$$&@&$$$&&&&$",
"&&&7==777t77tt=7======**=====ttt=ttptttyttt=+&&&oo&oo&O&&$&&o&&&",
"7&&7=ttpypaiyytyt=====66tyuuuuuppptttt=7=+&&&OOooo$$oo..@@$oo&&&",
"+==yaaaxxxvaaaxpupuupaxvvnnnncxpppt====&+&@@@@Oo@$.$@o.@@Oo@&&++",
"7yyaxxvbvvjjjaaxvcccnvbbLLKRWmnxxttt==&&&&OOo@@oOo@.oo@@@@o&&&==",
"tyaxnnbjlzgjjvvbnnnmbbKUIIIYKWnxpt==&&=&&o&oOoooOooooo$oo@.o&==7",
"axvnnnzUggzlbvmmmmmmlKKUKIYKEmnp====++&&o&ooooo@.o&ooo$&&&&+*=77",
"xnnNzzUgzgglvbmmmmmmbQmbRWbmncxu7=++++&&&&&o&&OO$o&&&o&&+&====ya",
"xnnNzzUzPzllvvvvvvcvnvnnvcvhpyt==+++&+&&&&&o@@.Oooo&+&++====tyax",
"nmmNMMbbbjvaaapptpttptt=y777==&=+&&&&&&=&&&&&&&&+++======yyayxxx",
"nnmnnnvnvxxaiyy=t======*+&+&&=&&+==&===&========ttttyyayaxxxxxnn",
"mmmmnMbvvxxaptyy==t=====+&&&&&=&+=&=&===+===7=7==ttpppaaaaaxnxnn",
"mmMMMMbbbxvapptttt=========&&&&&&==&==&========t=ttyyyaaaaxxnnnn",
"m!WQzMzzzvjvaptttttt7=7===&=&=&&=&&====&=======7=tttyaaaxxxnnnnn",
"!WEUUzzzjvxaxapatptt======*=&===&==&&=======7=7=yttyyaaaxvvnnnnN",
"QQQUUzzzzvvvxaappyyyyt7====*=&&&=======7=7=yy7yyyyayaaxxnnnNNNNN",
"QUQUUzzzzzvxxaaapuytty777=====7====77=77777=yyyyxyxxjxnnnnnNN!!!"
};
