/* XPM */
static char *result[] = {
/* columns rows colors chars-per-pixel */
"64 64 240 2 ",
"   c #3EEF06",
".  c #2CF606",
"X  c #2EF807",
"o  c #2EF709",
"O  c #2DF90A",
"+  c #23F508",
"@  c #34F606",
"#  c #3AF606",
"$  c #35F807",
"%  c #35F60A",
"&  c #3BF50C",
"*  c #35FA0A",
"=  c #3BFB0C",
"-  c #3AF806",
";  c #3EF611",
":  c #36FC12",
">  c #3EFD12",
",  c #7BDD15",
"<  c #4CEF08",
"1  c #49EF08",
"2  c #5BEB0B",
"3  c #56ED0D",
"4  c #44F705",
"5  c #4BF706",
"6  c #44F806",
"7  c #42F50D",
"8  c #4EF40A",
"9  c #43FB0D",
"0  c #4CFB0C",
"q  c #4FF905",
"w  c #55F405",
"e  c #5BF604",
"r  c #54F906",
"t  c #5CF906",
"y  c #52F50D",
"u  c #5BF50D",
"i  c #53FB0B",
"p  c #5BFB0C",
"a  c #56EE11",
"s  c #5BEF15",
"d  c #54EF1E",
"f  c #5AED1C",
"g  c #43F611",
"h  c #4CF514",
"j  c #43FB15",
"k  c #4BFA14",
"l  c #47F71B",
"z  c #4AF51C",
"x  c #45F919",
"c  c #4AFA19",
"v  c #53F515",
"b  c #5BF415",
"n  c #53FA14",
"m  c #5CFA14",
"M  c #52F31B",
"N  c #5BF41A",
"B  c #53FA19",
"V  c #5BFA18",
"C  c #63EA0C",
"Z  c #6CEC0D",
"A  c #68EE07",
"S  c #72E60D",
"D  c #77EE0B",
"F  c #65F506",
"G  c #6EF506",
"H  c #63F906",
"J  c #6AF807",
"K  c #63F40C",
"L  c #6BF40C",
"P  c #63FA0B",
"I  c #6BFB0C",
"U  c #73F705",
"Y  c #7CF506",
"T  c #74F906",
"R  c #7CFA06",
"E  c #75F40C",
"W  c #7AF40C",
"Q  c #73FA0B",
"!  c #7CFA0A",
"~  c #66E617",
"^  c #6DE613",
"/  c #64EC15",
"(  c #6BEC14",
")  c #64E71B",
"_  c #6CE419",
"`  c #63EA19",
"'  c #6BEA18",
"]  c #74E314",
"[  c #7BE413",
"{  c #72EB14",
"}  c #7BEA12",
"|  c #71E218",
" . c #79EF1B",
".. c #62F414",
"X. c #6AF514",
"o. c #63FA13",
"O. c #6BFA13",
"+. c #62F51A",
"@. c #6BF41B",
"#. c #66FA1A",
"$. c #74F514",
"%. c #7CF413",
"&. c #74FA13",
"*. c #7CFA12",
"=. c #73F51B",
"-. c #79F61C",
";. c #74F919",
":. c #7CF91A",
">. c #53EF21",
",. c #4CF221",
"<. c #50F022",
"1. c #86DB0F",
"2. c #95D20E",
"3. c #9BD30E",
"4. c #97DB0E",
"5. c #9CDB0E",
"6. c #8CD611",
"7. c #84DA12",
"8. c #8DDC11",
"9. c #86D712",
"0. c #90D510",
"q. c #90DD10",
"w. c #A1CF0C",
"e. c #A3D50D",
"r. c #A9D70C",
"t. c #A4DB0D",
"y. c #ABDB0C",
"u. c #B2DE0B",
"i. c #B1D70C",
"p. c #8EE30D",
"a. c #8BEC0C",
"s. c #85E70A",
"d. c #92E50D",
"f. c #9CE20E",
"g. c #9BED09",
"h. c #84FA06",
"j. c #8BFC06",
"k. c #84F50D",
"l. c #8BF60B",
"z. c #83FA0C",
"x. c #8DFA0C",
"c. c #8AF603",
"v. c #93FB05",
"b. c #9CF905",
"n. c #95F40D",
"m. c #9CF50E",
"M. c #93FB0D",
"N. c #9CFA0C",
"B. c #84E412",
"V. c #8BE311",
"C. c #82EB14",
"Z. c #8AEA13",
"A. c #93E411",
"S. c #91EC12",
"D. c #9BEE12",
"F. c #98E412",
"G. c #8BF513",
"H. c #84FA12",
"J. c #8BFA12",
"K. c #82F71C",
"L. c #83F91A",
"P. c #8AF919",
"I. c #87F310",
"U. c #93F612",
"Y. c #9CF610",
"T. c #94F911",
"R. c #9DFA13",
"E. c #92FA18",
"W. c #9AFD18",
"Q. c #A3E20D",
"!. c #ACE30D",
"~. c #A5EC0E",
"^. c #ACEA0B",
"/. c #B5E20B",
"(. c #BAE30B",
"). c #B3ED0B",
"_. c #BBE90A",
"`. c #A2F605",
"'. c #AAF505",
"]. c #A3FB05",
"[. c #ABFA05",
"{. c #A3F60C",
"}. c #ACF60B",
"|. c #A3FA0C",
" X c #ABFA0C",
".X c #B5F606",
"XX c #BBF506",
"oX c #B4F906",
"OX c #BCF906",
"+X c #B3F50B",
"@X c #BAF40A",
"#X c #B4FA0A",
"$X c #BCFA0A",
"%X c #A5F311",
"&X c #ACF311",
"*X c #A3FB13",
"=X c #ABFB13",
"-X c #B5FB13",
";X c #BAF912",
":X c #CCEC06",
">X c #C3ED0A",
",X c #CAEC09",
"<X c #C7E10A",
"1X c #D5ED06",
"2X c #DCED07",
"3X c #D3EB08",
"4X c #C4F606",
"5X c #CBF505",
"6X c #C3FA06",
"7X c #CCFA05",
"8X c #C5F30A",
"9X c #CCF50A",
"0X c #C3FA0A",
"qX c #CCFA0B",
"wX c #D5F406",
"eX c #DCF305",
"rX c #D4FA05",
"tX c #DCFA05",
"yX c #D3F50A",
"uX c #DCF60C",
"iX c #D4F909",
"pX c #DCFA0A",
"aX c #C3FB13",
"sX c #CDFA14",
"dX c #C1F611",
"fX c #D0FA13",
"gX c #E2F505",
"hX c #ECF605",
"jX c #E4FA05",
"kX c #EBFA04",
"lX c #E3F609",
"zX c #E4FA0A",
"xX c #EBFA0A",
"cX c #EAF50C",
"vX c #F3F705",
"bX c #FAF605",
"nX c #F3FB04",
"mX c #FCFB04",
"MX c #F0F90A",
"NX c #F8F908",
/* pixels */
"z z l x x x z N +.C.t.5.N c c x x O. X X0 : j k k h z z ,.,.f ] 8.5.t.t.r.r.y.u.u.u.y.u.r.e.3.3.3.r.5.d x x j > x x l [ 3.t.) z ",
"z l x x x x z ..Z.y.!.%.V x j j > o. X$XP = g k x z M <.>._ 8.t.r.r.y.y.u.u.u.(.(.(.u.u.u.y.y.t.y.f./ l x j > j j x l ) 2.e.} z ",
"l l x k x l M A.r.y.I.X.m j j j g n ].0XP * 9 k c z M >.| 4.y.y.y.u.u.u././.(.(.(.(.^.f.Q.u.u.y.f./ l x j j j > > j c ` 2.e.{ l ",
"h z k x x x / y.t.y.I.;.k j k k h k M.0Xv.* = j k z z N [ 5.y.u.u./.u././.(.(.<X(.g./ K X.} A.V./ c c x j j > > > x x M 6.e.^ l ",
"l l x x x x M } y.u.S.O.n k k k h k h..X6X|.Q 9 x k M <.' t.y.u.(.u.u.(.(.(.(._._.~.Z b / X.( b z c x j j > j > > j x z 7.e.B.z ",
"^ z x x x g B ..%.y.y...c n k k x > o.].OXrXtX$XQ c m M N 4.y.!.u.(.(.(.(.(.(.(._._./.a.K v v k k x j j j > = j = j x l ~ 2.5.p.",
"5.p.a g x n m o.X.X.} B.( B k x x j j H. X$XiXlXgXn.k n >.B.y.!.u./.(.u.u.(.(.(.(./.^./.D x j j j g > j > > > > > > g x h | 2.2.",
"1.2.d.v x k o...v c x v / ( s M M N N ..~.0X0XiXpXtXH.k B ' t.y.y./.u.Q.Z.C.C.Z.f.t.Q./.a.g j j j > > > > > > = = j g x l h / , ",
"a , 4.{ j h h 8 g g g j j m ..' { @.#.V #.@XiXiXpXxXrXO.V N V.t.y.y.F.@.+.+.>.>.#.` d.Q.a.j 9 > = j = j > = 7 > > > j x x k x l ",
"> h s.B.c k g = * = = 9 k n c c c V &.H.*.k.8XrX0XrXNXR.V #.[ t.Q.f. .@.@.@.=.#.+.,./ Q.a.j = = = = > = > > > > > > g g 7 x x g ",
"x j / 1.B k = % % % & 7 I k.&.O.X.%.G.U.O.m .XlX7X0XNX Xo.#.$.5.t.F.@.=.@.@.#.#.b z M d.a.: = = = = = > = > > = = g g g > g = j ",
"= j v s.h k = % % * % J  XY.J.x.J.G.%.o.I L 8XhXzXjXnX$XO.;.@.:.Z. .-.=.=.;.X.O.m x h p.h.= = = = 9 = = = 9 = > = g > & 7 7 = = ",
"> 9 x S s g & * % % 0 |.}.n.H.H.*.H.*.m o.l.4XzXjXkXkXqX&.&.;.;.-.-.-.-.:.;.;.;.;.N N d.W * = * = = = = = g > & & g g & ; g 7 = ",
"= j g u C g = & = & 0 k.Y.*Xz.&.&.*.&.O.! .XqXpXkXzXxXxXR.:.*.:.-.-.:.:.:.L.K.K.K.K.D._.).Q i P I p = = = > g g g g g 7 & & & 7 ",
"X * = : s 2 ; ; > > > h ..O.O.n j j k n J.pXpXtXhXkXkXxXpX-XE.P.K.:.:.L.P.P.P.P.U.~.>X3X2X2X@X Xv.N.r * % ; g g g 1 g 7 & * * % ",
"w J Q 0 % 3 / a a a / ' $.$.$.:.&.o.n n k.0XrXtXjXkXxXzXzXzXzXpXsX=XJ.P.P.E.%X_.,X3X3X3X2X2X2X2XwX|.9 = & &   g g g 7 = = * X - ",
"b.b.].Q * : g v b ( X.X.X.$.$.! Y.}.+X*XM.M.N.oXtXjXzXxXzXxXzXzXxXzX=XP.E.}.:X2X2X1X1X1X>X@X).!.^.c.8 % * * & 7 7 g 7 = * $ t j.",
"].b.[.h.= = = > h m n m o.#.n L l.=X#X8Xm.P M.x.$XkXjXxXcXaX|.N.aXxXaXE.R.,X2XwXwXeX1X:X+X%XX.; & C D 7 * * # %   7 9 - $ H ].].",
"'.`..XT * 7 g g n m m o.o.k 8 u u l.$X0X'.9 I N.[.zXkXxXuX|.*XR.=XxXsXW.&X3XeXOXXXeX2X,X+XX.% ; & 8 A w * * * # & 7 = = 6 b.'.'.",
"}.'.@XH * g g g k m u o.u g v u u Q #X0X#X! I |.#XkXkXMXxX;X X XsXMXaX*X@XuXeXOXOXrXgX:X+X7 % & & 7 C 5 * $ % % % % # * I oX.XXX",
".X#X.X5 & 8 g x v m K O.n g y u y L #X0X$X X X|.$XjXkXxXMXMXzXzXxXxX$X=X4XgXgXXXOX7XjXeX4X5 % & & & 2 4 % % % % @ $ $ r oXOXXX4X",
"$X@X'.= 9 v y v m m o.X.X.y v y y x. X#X#X X#XOX7XtXjXzXxXMXMXhXkXrX$X0XwXhXgX7X7X6XrXeX2XF o & & & < 7 * % # % % X q OX6X6X6X4X",
"$X4Xv.= 7 h v b K X.X.&.W k.$.W M. X X$X$X}.h.G OX0X$X0XqXyX7XrXrX7XrXpXeXgXjXtX7X7X6X4XgXg.@ @ % & 1   * o . o X - [.rX7XrX7X6X",
"0XiXN.= 7 g 8 v v u L $.k.G.T.N.*X[.#X$Xb.I * * H #X#XaXsXiXtXtXrXrXtXrXeXgXhXkXtXrX7X7X5X_.1   o %   % 5 J T t r [.tXrXrXqXqX4X",
"qXlXb.= 7 x h g = = 9 K ! T.M.M.z.*.&.P 9 $ = = = z.aXaXsXpXjXeXrXxX#Xr t 7XbXkXtXrXrXrX7XtXh.@ # . w '.rXrXtXtXtXjXtXrXqXqX9XqX",
"iXzX[.: = k g = = % * * n P O.y k 0 j 9 9 9 6 6 = i =XaXsXzXhXgXkXnX7Xp = OXnXkXjXtXtXrXrXtX5Xw @ G gXbXjXtXrXjXjX#XH.H.T._.,X9X",
"iXxX$X9 > j = = & % % 9 g g ; k k k m k = 6 H i 9 k *.;XsXcXhXkXnXhXhXqX].kXnXkXkXjXjXtXeXrXbX`.e hXbXkXkXtXkXkXiX&.x c c G.9XfX",
"pXhXzXi = = = = 9 5 % * g g g g 9 n m c = 9 p i 9 k #.;XsXhXkXkXmXvXhXxXNXnXkXnXkXjXjXjXtXjXjXU 4 5XbXkXkXjXkXkXiXm c c B %X,XiX",
"hXhXmXb.= = = $ 4 # * = ..Q $.v j c B k 9 = = k 9 m m *XpXxXnXnXzXwXhXnXmXnXnXkXkXjXjXkXkXmXb.@ @ w gXbXkXjXkXmX|.h c n T.yXwXpX",
"nXNXmXkXI = - 6 6 6 r I J.J.Y.P.o.k k j 9 9 i &.P.&.o.o.[.lXoXI k k O. XkXmXmXmXnXnXnXnXnXrXq # # @ F 5XkXkXmXOX0 x k x.pXpXzXxX",
"NXmXkXnXtXH r t e H J k.H.H.U.E.x.*.I &.Q z.].#XsX-Xo.# - # * : > x > : 0 z.j.j.T T T T H 6 - $ $ @ . # t T P = = = 9 0XnXhXvXNX",
"nXnXkXnXkXH - 5 5 t I X.n & v H.T.T.T.M.]. X#X@XaXaXm # @ @ = k x x k j : O O X X . . . . @ @ @ % $ $ @ O O O = = = = 6XmXmXmXnX",
"kXkXkXnXR @ @ @ - * 7 g > ; ; v T.R.T.R.R..X@XOX0XaXK @ @ * j j x x x j j > = = = * $ $ @ @ @ @ @ * * * * = = = * = O ].mXkXkXkX",
"kXkXnXh.X @ * * * = g k g > g ; *.*XR.|.|. XXX@X@XsXJ @ # = > j x x j j > = = = * * $ @ @ @ @ @ $ * * = = * = = = * O T nXkXkXkX",
"jXmXb.X * * * * = g h k x ; g > Q =X*X|.*X|..XOX$XsX! @ # * = j x x x j j = = = = * * @ . . @ @ * * = * * = = = = * X H kXkXkXkX",
"mX[.* * * * * & 7 h h g k : ; ; n J.*X=X#X@X9X5X0XfXtXc.# * = > j j j > > : = = = = @ * @ @ @ @ * = * = = * = = = * * r nXjXkXnX",
"v.* * = > ; 7 g g h h h g g = & & 7 8 K W a.g.'.uXuXhXbXr = = j j j j j = = : = = = = @ @ @ X * = = = g g g g = = * $ $ 6XmXmXjX",
"* = j k h h h h g 7 7 h h x ; : & : % % % & # 1 } jXkXkXz.O > > > > j j > > > 9 = : = * * @ * = = = k h z h h h = * * @ 6 v.R 6 ",
"j k k k v B v h 7 & & 7 8 v b X.P m m n 9 = O $ + c.hXkXj.* 9 > = j : : : = = O * * * * * * = = = k z c k h z h = * * $ @ O O = ",
"k x x x c B ..n r y 8 r P k.n.m.%X X&X.X#XoXN.Q - v.mXmX! : = > : = P N.$X6X#Xx.Q T i = * = = = k c k x x x k M h = * $ * = j k ",
"x z [ C.m B ..m C Z Z G U ! l.U.I.X.o.Q }.5XgXzX0XjXmXvXp = : = = b.hXNXbXNXbXbXhXNXeXp * : > > x x g x x x k c h g & * 7 x h c ",
"( f.r.r.A.B m y Z C D U U Y l.E x > g *.o.7 L ).iXzXMX4Xj = = : I nXNXvXxXkXjXzXzXzXhXQ = j > j j x l z M x x k M h g x h B x x ",
"t.r.5.r.f.b m m C F E E T W z.m > > m J.k ; : +XlXzXxX|.= 9 = = J nXnXnXvXkXjXzXzXpXpXQ > = > j j x z / / c x k h M h v k x x { ",
"r.3.e.r.V.v m u C Z G F U Y l.E x > m H.k : 0 >XlXzXxX! j j j = = 4XbXvXhXzXzXzXzXzXqXo.j j > > j x l ~ ^ B x x z h h z x x / y.",
"3.e.e.t.( B m y w y # # 6 Q k.U.b > k H.o.: E >X9XzX#XM k j j j > n 8XvXvXxXxXzXrX X&.h g = > j > x x N ^ b z x c B c k x x V.r.",
"3.2.r.V.c n 0 q t r 4 @ @ i x.T.%.k > m ! O.k.+X$XN.V k 9 j j > j x k H. X$X#XT.o.c x k > > > > j j l h ~ ( B x j c c x x b t.e.",
"3.3.e./ k k I rXjX7Xb.* * &.T.T.O.c c j c m o.O.m c k k j j g j j j j > j j x > x j j = > > > > > g x z / S N c x j j x x [ r.3.",
"5.3.4.M k n qXmXnXkXz.* p J.J.*.x x j c j > j x j j j x x j x x j j j k j x j j j j > j j > > > > x l l / B.( c x x x x M 5.e.2.",
"2.w.6.z k m qXlXxXwXy j H.J.m.{ b h x x j x l x z z k z x l x x l l l z l x x x x j j > j > > j x j x x ( Q.B.N x x l x ^ y.3.2.",
"2.2.8.z n c T.eXiXJ.o.&.H.@Xf.S D ( ..v v B v M v M h z z z z z z z z z M z z x x x > j j j x x x x z z { y.A.' z c x z p.e.2.2.",
"2.2.q.<.c x B H.&.o.O.&.D.<Xd.~ ^ ( ( / ..b s v d M z M z z z z z z M ) _ f z x x > x j x x l l l l x M B.y.A.#.B c l M 4.e.2.2.",
"3.2.5.N x j k c x n X.&.^.<Xf.S ^ C / / s s N d v d z z z z z z z z ,.h M z l x x x j j x x l l ,.z z h / { b ,.x x l l 8.w.2.2.",
"2.2.3._ l l j x j k O.$.Q.(./.[ ( ~ / s / b b v h h k k l x x x l l l x x x x j j x j x x l l z l z z l l l ,.> x j x x { r.2.2.",
"3.2.3.] z l x j j x #.X.S.(./.V.^ ^ ( X...b v v v h k x k x j x > x j j j j j j > j j x x l l z l ,.z l l l x > j j g x M 3.2.2.",
"w.2.w., ,.z x j j > k n m Z.Q.V.[ X.b h x x j k k k > = = > x g h x x k k x x > > j x x l l l l l l z l l l x x j j x x x _ e.2.",
"2.2.2.7.B B x x j j x x l l M ..b B j x j x j j : = I N. Xv.0 h h v b m m c x j x x j x l l ,.l z ,.,.l l l > x > x x x x l _ 3.",
"2.2.3.9.<.l x > k c x x x x x x x x j x j > > : = z.vXnXbX7Xm h h v n m B j j x l x l l z l l ,.l ,.,.l ,.f ' | ` M l l l x l ` ",
"| 2.2., M z l x x $.&.c x c x x x x j > > k i j 0 tXnXkXwX&.c j j x j x x x x c z z l l l z z l l z z d , 3.3.0.0.5.' l x x l ,.",
",., 6., ,.z l x #.;X;XG.B j k x j j > k O.I O.i P kXmXlX&.x j x x x x x l l l z z ,.,.z z z l z l ,.,.] e.9.M z M 7.5.M x x x l ",
">., 9.f ,.z l > $.9X@XU.c c x c j x > n *.&.I p i ].4X&.c j x l x c l l l z ,.z z ,.,.,.z z z l z l M 2.e.M > x l z 2.] > l l l ",
"f 9., d l l x j M H.*.B c c c > j x j j k n p p 0 0 i c k x c l l l l ,.z ,.,.,.,.,.,.<.z ,.z l z ,.f 3.8.x x x x l 9.6.,.l l z ",
"f 9.) z z l x j x l > x x c M N N B c j > > > = > j k k c l z z z ,.,.,.,.,.,.) , , _ >.,.,.z ,.,.,.9.w.[ l x x x l ] w.f l l z ",
"f ~ z z k z x x x j x x B ^ _ / ( } } s v k j j > > j j c z ,.<.<.,.,.,.>.) 7.5.e.e.w.0.9._ f d f , 3.e.M x j x j l ` 3.q.z l ,.",
"d M z z x x B V V ..+._ [ / z l c &.m.$.h 0 v n k x x x l ,.<.>.>.>.) ] 8.3.r.r.y.y.r.e.w.2.0.6.2.3.e.B.l x j j j x M 6.e.[ z z "
};
