/* XPM */
static char *result[] = {
/* columns rows colors chars-per-pixel */
"64 64 229 2 ",
"   c black",
".  c #010101",
"X  c #020202",
"o  c gray1",
"O  c #040404",
"+  c gray2",
"@  c #060606",
"#  c #070707",
"$  c gray3",
"%  c #090909",
"&  c gray4",
"*  c #0C0C0C",
"=  c gray5",
"-  c #0E0E0E",
";  c gray6",
":  c #101010",
">  c #111111",
",  c gray7",
"<  c #131313",
"1  c #151515",
"2  c #161616",
"3  c gray9",
"4  c #181818",
"5  c #191919",
"6  c gray10",
"7  c #1B1B1B",
"8  c gray11",
"9  c #1D1D1D",
"0  c #1E1E1E",
"q  c gray12",
"w  c #202020",
"e  c gray13",
"r  c #222222",
"t  c #232323",
"y  c gray14",
"u  c #252525",
"i  c gray15",
"p  c #272727",
"a  c gray16",
"s  c #2A2A2A",
"d  c gray17",
"f  c #2C2C2C",
"g  c #2D2D2D",
"h  c gray18",
"j  c #2F2F2F",
"k  c gray19",
"l  c #343434",
"z  c #353535",
"x  c gray21",
"c  c #373737",
"v  c gray22",
"b  c #393939",
"n  c gray23",
"m  c #3C3C3C",
"M  c gray24",
"N  c #3E3E3E",
"B  c #3F3F3F",
"V  c gray25",
"C  c #414141",
"Z  c gray26",
"A  c #434343",
"S  c #444444",
"D  c gray27",
"F  c #464646",
"G  c gray28",
"H  c #494949",
"J  c gray29",
"K  c #4B4B4B",
"L  c #4C4C4C",
"P  c gray30",
"I  c #4E4E4E",
"U  c gray31",
"Y  c #505050",
"T  c #515151",
"R  c gray32",
"E  c #535353",
"W  c gray33",
"Q  c #555555",
"!  c #565656",
"~  c gray34",
"^  c #585858",
"/  c gray35",
"(  c #5A5A5A",
")  c #5B5B5B",
"_  c gray36",
"`  c #5D5D5D",
"'  c gray37",
"]  c #5F5F5F",
"[  c #606060",
"{  c gray38",
"}  c #626262",
"|  c gray39",
" . c #646464",
".. c #656565",
"X. c gray40",
"o. c #676767",
"O. c #686868",
"+. c DimGray",
"@. c #6A6A6A",
"#. c gray42",
"$. c #6C6C6C",
"%. c #6D6D6D",
"&. c gray43",
"*. c #6F6F6F",
"=. c gray44",
"-. c #717171",
";. c #727272",
":. c #747474",
">. c #767676",
",. c gray47",
"<. c #797979",
"1. c gray48",
"2. c #7B7B7B",
"3. c #7C7C7C",
"4. c gray49",
"5. c #7E7E7E",
"6. c gray50",
"7. c #808080",
"8. c #818181",
"9. c gray51",
"0. c #838383",
"q. c #848484",
"w. c #868686",
"e. c gray53",
"r. c #888888",
"t. c #898989",
"y. c gray55",
"u. c #8D8D8D",
"i. c #8E8E8E",
"p. c gray56",
"a. c #909090",
"s. c #929292",
"d. c #939393",
"f. c gray58",
"g. c gray59",
"h. c #979797",
"j. c #989898",
"k. c gray60",
"l. c #9A9A9A",
"z. c #9B9B9B",
"x. c gray61",
"c. c #9D9D9D",
"v. c gray62",
"b. c #9F9F9F",
"n. c #A2A2A2",
"m. c gray64",
"M. c #A4A4A4",
"N. c #A5A5A5",
"B. c gray65",
"V. c #A7A7A7",
"C. c gray66",
"Z. c #A9A9A9",
"A. c #AAAAAA",
"S. c gray67",
"D. c #ACACAC",
"F. c gray68",
"G. c #AEAEAE",
"H. c #AFAFAF",
"J. c gray69",
"K. c #B1B1B1",
"L. c gray70",
"P. c #B4B4B4",
"I. c gray71",
"U. c #B6B6B6",
"Y. c #B9B9B9",
"T. c gray73",
"R. c #BBBBBB",
"E. c #BCBCBC",
"W. c gray74",
"Q. c gray",
"!. c gray75",
"~. c #C0C0C0",
"^. c #C1C1C1",
"/. c gray76",
"(. c #C3C3C3",
"). c gray77",
"_. c #C5C5C5",
"`. c #C6C6C6",
"'. c gray78",
"]. c #C8C8C8",
"[. c gray79",
"{. c #CACACA",
"}. c #CBCBCB",
"|. c gray80",
" X c #CDCDCD",
".X c #CECECE",
"XX c gray81",
"oX c #D0D0D0",
"OX c gray82",
"+X c #D2D2D2",
"@X c LightGray",
"#X c gray83",
"$X c #D5D5D5",
"%X c gray84",
"&X c gray85",
"*X c #DADADA",
"=X c gray86",
"-X c gainsboro",
";X c gray87",
":X c #DFDFDF",
">X c gray88",
",X c #E1E1E1",
"<X c #E2E2E2",
"1X c gray89",
"2X c #E4E4E4",
"3X c gray90",
"4X c #E6E6E6",
"5X c gray91",
"6X c #E9E9E9",
"7X c #EAEAEA",
"8X c gray92",
"9X c gray93",
"0X c #EEEEEE",
"qX c #EFEFEF",
"wX c gray94",
"eX c #F1F1F1",
"rX c gray95",
"tX c #F4F4F4",
"yX c gray96",
"uX c #F6F6F6",
"iX c gray97",
"pX c #F8F8F8",
"aX c #F9F9F9",
"sX c gray98",
"dX c #FBFBFB",
"fX c gray99",
"gX c #FDFDFD",
"hX c #FEFEFE",
"jX c white",
/* pixels */
"                                                                                                                                ",
"                o 9 9 9 9 9 9 9 9 9 9 9 9 9 9 9 9 9 9 9 9 9 9 9 9 9 9 9 9 9 9 9 9 9 9 9 9 9 9 9 9 9 9 9 9 9 -                   ",
"                K.jXjXjXjXjXjXjXjXjXjXjXjXjXjXjXjXjXjXjXjXjXjXjXjXjXjXjXjXjXjXjXjXjXjXjXjXjXjXjXjXjXjXjXjXjXrXI                 ",
"              4 jXjXjXjXjXjXjXjXjXjXjXjXjXjXjXjXjXjXjXjXjXjXjXjXjXjXjXjXjXjXjXjXjXjXjXjXjXjXjXjXjXjXjXjXjXjXjXx.                ",
"              4 jXjXjXjXjXjXjXjXjXjXjXjXjXjXjXjXjXjXjXjXjXjXjXjXjXjXjXjXjXjXjXjXjXjXjXjXjXjXjXjXjXjXjXjXjXjXjXx.                ",
"              4 jXjXjXjXjXjXjXjXjXjXjXjXjXjXjXjXjXjXjXjXjXjXjXjXjXjXjXjXjXjXjXjXjXjXjXjXjXjXjXjXjXjXjXjXjXjXjXx.                ",
"              4 jXjXjXjX:Xk.k.k.k.k.k.k.k.k.k.:XyXk.@XjXjXjXjXjXoXk.aX%Xk.k.T.jXJ.k.k.k.k.k.k.k.k.k.S.fXjXjXjXx.                ",
"              4 jXjXjXjXv.                    l.7X  p.jXjXjXjXjXe.  rXs.    Z jXA                   2 tXjXjXjXx.                ",
"              4 jXjXjXjXv.  W.:X:X:X:X:X:Xb.  l.7X  p.jXjXy.w w ,.:XjXs.  R.>XjXA c :X:X:X:X:X:X:XR 2 tXjXjXjXx.                ",
"              4 jXjXjXjXv.  =X<XM.M.M.N.qX!.  l.7X  ) Z.jXA.( . ,.jXjXU.( u./.jXA c jX(.M.M.M.L.jX .2 tXjXjXjXx.                ",
"              4 jXjXjXjXv.  =XC.        ).!.  l.7X    & jXjXjX. ,.jXjXjXjXk Z jXA c jXP       e jX .2 tXjXjXjXx.                ",
"              4 jXjXjXjXv.  =XC.        ).!.  l.7X    X d j.jX. 1 d rXV.d E.=XjXA c jXP       e jX .2 tXjXjXjXx.                ",
"              4 jXjXjXjXv.  =XC.        ).!.  l.qXU y     q.jX.     Z.7.U k.'.jXA c jXP       e jX .2 tXjXjXjXx.                ",
"              4 jXjXjXjXv.  =XC.        ).!.  l.jXjX-.    q.jX.       %.jXk Z jXA c jXI       e jX .2 tXjXjXjXx.                ",
"              4 jXjXjXjXv.  =X0X].].].[.iX!.  l.eXx 1     q.jX[.[.[.[.2XjX$X$XjXA c jX>X].].].#XjX .2 tXjXjXjXx.                ",
"              4 jXjXjXjXv.  V.R.R.R.R.R.R.i.  l.7X  t A   q.jXE.*XjX^.#XjX'. XjXA a R.R.R.R.R.R.R.Z 2 tXjXjXjXx.                ",
"              4 jXjXjXjXv.                    l.7X  p.yX  q.jX. ,.jX= %.jXk Z jXA                   2 tXjXjXjXx.                ",
"              4 jXjXjXjX,XW.W.W.W.W.W.W.W.W.W.wXyXW.3XyX  t Z R.;XjXW.;XjX[..XjXOXW.W.W.W.W.W.W.W.W. XjXjXjXjXx.                ",
"              4 jXjXjXjXrX4X4XrXjXjXrX4X4X4X4XrXjXjXjXyX  = 5 3X4X4XjXjXjXjXjXjXjXuX4XsXdX4X4X4X4X4X4XjXjXjXjXx.                ",
"              4 jXjXjXjXv.    ~ jXjXP.        l.jXjXjXyX  q.jX.     rXjXjXjXjXjXjX].  K.@X          2 tXjXjXjXx.                ",
"              4 jXjXjXjXv.  8.7.$.5X1Xd.d.d.d.%XyX$.W.sXd.}.jXf.P   rXjXjXq.$.$.-X8Xd.-X@X  ] d.d.m 2 tXjXjXjXx.                ",
"              4 jXjXjXjXN.- .Xn.  /.eXeXeXeXeXpX7X  r.eXeXpXjXjXe.  3XeXeXk # - W.jXjXtX}.- D.jXeX` 2 tXjXjXjXx.                ",
"              4 jXjXjXjXjXjXy                 l.7X        q.jXjXe.          Z jXjXjXjXI f jXjX;X    2 tXjXjXjXx.                ",
"              4 jXjXjXjX{.,.e.e.e.e.e.e.e.e.e.7.%.    + e.`.jX,.7.e.e.e.e.e.N.jXk.h.jXF.c.jXV.o.    2 tXjXjXjXx.                ",
"              4 jXjXjXjXv.  =XjXjXfXhXjXfXfXfXX.X   . * jXhXfXO ,.fXfXhXjXjXjXjXA c jXjXjXjX) X     2 tXjXjXjXx.                ",
"              4 jXjXjXjXv.  =XjXjXj K jXn     l.7X  p.jXjX3.  hXe.    %.jXjXjXjXA c jXjXjXjXjX;X    2 tXjXjXjXx.                ",
"              4 jXjXjXjXv.  =X$X9.5.5.9.6.4.4.}.yX4._.sX9.7.4.9.D   >.7.9.9.9.9.t c jXjX6X9.@X0X4.4.r.sXjXjXjXx.                ",
"              4 jXjXjXjXv.  =XZ.  oXP.  ).jXjXjXjXjXjXyX  q.jX.     rXs.          c jXjX@X  V.jXjXjXjXjXjXjXjXx.                ",
"              4 jXjXjXjXdXiXhXZ.  oXP.  ).!.$ v.jXjX:., iX3.$       $ %.iXg Z iXiXiXjXR l iXdXjXjXjXjXjXjXjXjXx.                ",
"              4 jXjXjXjXjXjXjXXX;.e.t.;.9.i.;.7.j.jXK.>.jX3.  -.;.;.@ %.jXk Z jXC.Z.jXb.r.jXL.v.jXjXjXjXjXjXjXx.                ",
"              4 jXjXjXjXjXjXjXjXjXj K jXn V jXX.1 jXjXjXjX3.  hXjXjX= %.jXk Z jXA c jXjXjXjX/ e jXjXjXjXjXjXjXx.                ",
"              4 jXjXjXjXC.< < | jXj O < $   < &   < < 9 jXyX8X1 < < :XyXjXk . < &   < < B jXyX8XjX&.a tXjXjXjXx.                ",
"              4 jXjXjXjX/.o.o.l.jXq.o.o.o.o.o.o.`     + k..XjXo.c   rX$Xk.r w o.o.o.o.6 2 k.:XjXjX .2 tXjXjXjXx.                ",
"              4 jXjXjXjXjXjXjXjXjXjXjXjXjXjXjXjX7X        q.jXjXe.  rXs.    Z jXjXjXjXI     V.jXjX .2 tXjXjXjXx.                ",
"              4 jXjXjXjXQ.M M M M M M M M M M H.yX/./     q.jXjX>X/.H %./.u Z jX=...jXI 9 /.qXjXjX@X|.jXjXjXjXx.                ",
"              4 jXjXjXjXv.  h m m m m m m f   l.jX(.-.m   q.jX).;XjXA d.jXk Z jX*.o.jXI i (.(.(.(.(.(.dXjXjXjXx.                ",
"              4 jXjXjXjXv.  =XjXjXjXjXjXjX!.  l.7X  p.yX  q.jX. ,.jXjXjXjXk Z jXjXjXjXI             2 tXjXjXjXx.                ",
"              4 jXjXjXjXv.  =X).H H H H =X!.  l.7X  p.yX  p J   ,.jXW J J : > J J J J 1 8 I.I.I.I.I.~.hXjXjXjXx.                ",
"              4 jXjXjXjXv.  =XC.        ).!.  l.7Xk B.yX  4 k   | XX% < k @ : k &     e Y XX7XhXXXXXXXgXjXjXjXx.                ",
"              4 jXjXjXjXv.  =XC.        ).!.  l.jXjXjXyX  q.jX.       %.jXk Z jXA     K.@X  V.;X    2 tXjXjXjXx.                ",
"              4 jXjXjXjXv.  =XC.        ).!.  l.jXjXn.Q A.7.Q A.A.A.$ %.jXk > Q 6 p A.&.{ A.3X;X  | I.fXjXjXjXx.                ",
"              4 jXjXjXjXv.  =XY.u u u u |.!.  l.jX*X-.j *X+.  hX9X*Xk 8.jXE i i i D *XS i *X*XT.i z.*XhXjXjXjXx.                ",
"              4 jXjXjXjXv.  =XjXjXjXjXjXjX!.  l.7X  p.yX      hXe.  rXjXjXjXjXjXjX].          e jX .2 tXjXjXjXx.                ",
"              4 jXjXjXjXv.  I [ [ [ [ [ [ Y   l.7X  v [ b.b.b.[ 7.b.[ B.jXjXjXjXjX].          : [ t 2 tXjXjXjXx.                ",
"              4 jXjXjXjXG.6 6 6 6 6 6 6 6 6 6 S.7X6 6 y jXjXjX8 w.jXi 2.jXjXjXjXjX+X6 6 6 6 6 6 6 6 k tXjXjXjXx.                ",
"              4 jXjXjXjXjXjXjXjXjXjXjXjXjXjXjXjXjXjXjXjXjXjXjXjXjXjXjXjXjXjXjXjXjXjXjXjXjXjXjXjXjXjXjXjXjXjXjXx.                ",
"              4 jXjXjXjXjXjXjXjXjXjXjXjXjXjXjXjXjXjXjXjXjXjXjXjXjXjXjXjXjXjXjXjXjXjXjXjXjXjXjXjXjXjXjXjXjXjXjXx.                ",
"              4 jXjXjXjXjXjXjXjXjXjXjXjXjXjXjXjXjXjXjXjXjXjXjXjXjXjXjXjXjXjXjXjXjXjXjXjXjXjXjXjXjXjXjXjXjXjXjXx.                ",
"              - pXjXjXjXjXjXjXjXjXjXjXjXjXjXjXjXjXjXjXjXjXjXjXjXjXjXjXjXjXjXjXjXjXjXjXjXjXjXjXjXjXjXjXjXjXjXjXy.                ",
"                v x.x.x.x.x.x.x.x.x.x.x.x.x.x.x.x.x.x.x.x.x.x.x.x.x.x.x.x.x.x.x.x.x.x.x.x.x.x.z.z.z.z.z.z.z.u.:                 ",
"                                                                                                                                ",
"                                                                                                                                ",
"                                                                                                                                ",
"                                                                                                                                ",
"                              0 #.' 9   : X.&.k     L     & U     1 b       U q     , R   s ' ' C                               ",
"                            & E.E ~ r 0 W._ G ^   w 4Xb   2 tXD   d d.      `.0.    $.&X# >.1.! F                               ",
"                            > L.O     &.H         <.W Z.  2 N.[.> d d.      R.K.-   H.B.# >.M .                                 ",
"                              v I.j.O a.y         m.  I.; 2 N.f f.d d.      E.@.{ j #.V.# >.P.v.X.                              ",
"                                  3.-.,.A       c P.g.S.X.2 B.  u.=.d.      E.@ S.i.9 V.# >.M                                   ",
"                            3 N r r.] 0 [.c y g N.e   & I.2 B.  : |.d.      E.  r.D.  B.# >.O.l i                               ",
"                            ; ) 0.Z     w #.2.g I       Z 7 S     e n       V   w g   z O f } } T                               ",
"                                                                                                                                ",
"                                                                                                                                ",
"                                                                                                                                "
};
