/* XPM */
static char *result[] = {
/* columns rows colors chars-per-pixel */
"64 64 240 2 ",
"   c black",
".  c #010101",
"X  c #020202",
"o  c gray1",
"O  c #040404",
"+  c gray2",
"@  c #060606",
"#  c #070707",
"$  c #090909",
"%  c gray4",
"&  c #0B0B0B",
"*  c #0C0C0C",
"=  c gray5",
"-  c #0E0E0E",
";  c gray6",
":  c #101010",
">  c gray7",
",  c #131313",
"<  c gray8",
"1  c #151515",
"2  c #161616",
"3  c gray9",
"4  c #181818",
"5  c gray10",
"6  c #1B1B1B",
"7  c gray11",
"8  c #1D1D1D",
"9  c #1E1E1E",
"0  c gray12",
"q  c #202020",
"w  c #222222",
"e  c #232323",
"r  c gray14",
"t  c #252525",
"y  c gray15",
"u  c #272727",
"i  c #282828",
"p  c gray16",
"a  c #2A2A2A",
"s  c gray17",
"d  c #2C2C2C",
"f  c #2D2D2D",
"g  c gray18",
"h  c #2F2F2F",
"j  c gray19",
"k  c #313131",
"l  c #323232",
"z  c gray20",
"x  c #343434",
"c  c gray21",
"v  c #373737",
"b  c gray22",
"n  c #393939",
"m  c gray23",
"M  c #3C3C3C",
"N  c gray24",
"B  c #3F3F3F",
"V  c gray25",
"C  c #414141",
"Z  c gray26",
"A  c #434343",
"S  c #444444",
"D  c gray27",
"F  c #464646",
"G  c gray28",
"H  c #484848",
"J  c #494949",
"K  c gray29",
"L  c #4B4B4B",
"P  c #4C4C4C",
"I  c #4E4E4E",
"U  c gray31",
"Y  c #505050",
"T  c #515151",
"R  c #535353",
"E  c gray33",
"W  c #555555",
"Q  c #565656",
"!  c gray34",
"~  c #585858",
"^  c gray35",
"/  c #5A5A5A",
"(  c #5B5B5B",
")  c gray36",
"_  c #5F5F5F",
"`  c #606060",
"'  c gray38",
"]  c gray39",
"[  c #646464",
"{  c #656565",
"}  c gray40",
"|  c #676767",
" . c #686868",
".. c DimGray",
"X. c #6A6A6A",
"o. c gray42",
"O. c #6C6C6C",
"+. c #6D6D6D",
"@. c gray43",
"#. c #6F6F6F",
"$. c gray44",
"%. c #717171",
"&. c #727272",
"*. c gray45",
"=. c #747474",
"-. c gray46",
";. c #767676",
":. c #777777",
">. c gray47",
",. c #797979",
"<. c gray48",
"1. c #7B7B7B",
"2. c #7C7C7C",
"3. c gray49",
"4. c #7E7E7E",
"5. c gray50",
"6. c #808080",
"7. c #818181",
"8. c gray51",
"9. c #838383",
"0. c #848484",
"q. c gray52",
"w. c #868686",
"e. c gray53",
"r. c #888888",
"t. c #898989",
"y. c gray54",
"u. c #8B8B8B",
"i. c gray55",
"p. c #8D8D8D",
"a. c #8E8E8E",
"s. c gray56",
"d. c #909090",
"f. c #929292",
"g. c #939393",
"h. c gray58",
"j. c #959595",
"k. c gray59",
"l. c #979797",
"z. c #989898",
"x. c gray60",
"c. c #9A9A9A",
"v. c #9B9B9B",
"b. c gray61",
"n. c #9D9D9D",
"m. c gray62",
"M. c #9F9F9F",
"N. c #A0A0A0",
"B. c gray63",
"V. c #A2A2A2",
"C. c gray64",
"Z. c #A4A4A4",
"A. c #A5A5A5",
"S. c gray65",
"D. c #A7A7A7",
"F. c gray66",
"G. c #A9A9A9",
"H. c #AAAAAA",
"J. c gray67",
"K. c #ACACAC",
"L. c gray68",
"P. c #AEAEAE",
"I. c #AFAFAF",
"U. c gray69",
"Y. c #B1B1B1",
"T. c #B2B2B2",
"R. c gray70",
"E. c #B4B4B4",
"W. c gray71",
"Q. c #B6B6B6",
"!. c #B7B7B7",
"~. c gray72",
"^. c #B9B9B9",
"/. c gray73",
"(. c #BBBBBB",
"). c #BCBCBC",
"_. c gray74",
"`. c gray75",
"'. c #C0C0C0",
"]. c #C1C1C1",
"[. c #C3C3C3",
"{. c gray77",
"}. c #C5C5C5",
"|. c #C6C6C6",
" X c gray78",
".X c #C8C8C8",
"XX c gray79",
"oX c #CACACA",
"OX c gray80",
"+X c #CDCDCD",
"@X c #CECECE",
"#X c gray81",
"$X c #D0D0D0",
"%X c gray82",
"&X c #D2D2D2",
"*X c LightGray",
"=X c gray83",
"-X c #D5D5D5",
";X c gray84",
":X c #D7D7D7",
">X c #D8D8D8",
",X c gray85",
"<X c #DADADA",
"1X c gray86",
"2X c gainsboro",
"3X c #DDDDDD",
"4X c gray87",
"5X c #DFDFDF",
"6X c gray88",
"7X c #E1E1E1",
"8X c #E2E2E2",
"9X c gray89",
"0X c #E4E4E4",
"qX c gray90",
"wX c #E6E6E6",
"eX c #E7E7E7",
"rX c gray91",
"tX c #E9E9E9",
"yX c #EAEAEA",
"uX c gray92",
"iX c #ECECEC",
"pX c gray93",
"aX c #EEEEEE",
"sX c #EFEFEF",
"dX c gray94",
"fX c #F1F1F1",
"gX c gray95",
"hX c #F3F3F3",
"jX c #F4F4F4",
"kX c gray96",
"lX c #F6F6F6",
"zX c gray97",
"xX c #F8F8F8",
"cX c #F9F9F9",
"vX c gray98",
"bX c #FBFBFB",
"nX c gray99",
"mX c #FDFDFD",
"MX c #FEFEFE",
"NX c white",
/* pixels */
"NXNXNXNXNXNXNXNXNXNXNXNXNXNXNXNXNXNXNXNXNXNXNXNXNXNXNXNXNXNXNXNXNXNXNXNXNXNXNXNXNXNXNXNXNXNXNXNXNXNXNXNXNXNXNXNXNXNXNXNXNXNXNXNX",
"NXNXNXNXNXNXNXNXNXNXNXNXNXNXNXNXNXNXNXNXNXNXNXNXNXNXNXNXNXNXNXNXNXNXNXNXNXNXNXNXNXNXNXNXNXNXNXNXNXNXNXNXNXNXNXNXNXNXNXNXNXNXNXNX",
"NXNXNXNXNXNXNXNXNXNXNXNXNXNXNXNXNXNXNXNXNXNXNXNXNXNXNXNXNXNXNXNXNXNXNXNXNXNXNXNXNXNXNXNXNXNXNXNXNXNXNXNXNXNXNXNXNXNXNXNXNXNXNXNX",
"NXNXNXNXNXNXNXNXNXNXNXNXNXNXNXNXNXNXNXNXNXNXNXNXNXNXNXNXNXNXNXNXNXNXNXNXNXNXNXNXNXNXNXNXNXNXNXNXNXNXNXNXNXNXNXNXNXNXNXNXNXNXNXNX",
"NXNXNXNXNXNXNXNXNXNXNXNXNXNXNXNXNXNXNXNXNXNXNXNXNXNXNXNXNXNXNXNXNXNXNXNXNXNXNXNXNXNXNXNXNXNXNXNXNXNXNXNXNXNXNXNXNXNXNXNXNXNXNXNX",
"NXNXNXNXNXNXNXNXNXNXNXNXNXNXNXNXNXNXNXNXNXNXNXNXNXNXNXNXNXNXNXNXNXNXNXNXNXNXNXNXNXNXNXNXNXNXNXNXNXNXNXNXNXNXNXNXNXNXNXNXNXNXNXNX",
"NXNXNXNXNXNXNXNXNXNXNXNXNXNXNXNXNXNXNXNXNXNXNXNXNXNXNXNXNXNXNXNXNXNXNXNXNXNXNXNXNXNXNXNXNXNXNXNXNXNXNXNXNXNXNXNXNXNXNXNXNXNXNXNX",
"NXNXNXNXNXNXNXNXNXNXNXNXNXNXNXNXNXNXNXNXNXNXNXNXNXNXNXNXNXNXNXNXNXNXNXNXNXNXNXNXNXNXNXNXNXNXNXNXNXNXNXNXNXNXNXNXNXNXNXNXNXNXNXNX",
"NXNXNXNXNXNXNXNXNXNXNXNXNXNXNXNXNXNXNXNXNXNXNXNXNXNXNXNXNXNXNXNXNXNXNXNXNXNXNXNXNXNXNXNXNXNXNXNXNXNXNXNXNXNXNXNXNXNXNXNXNXNXNXNX",
"NXNXNXNXNXNXNXNXNXNXNXNXNXNXNXNXNXNXNXNXNXNXNXNXNXNXNXNXNXNXNXNXNXNXNXNXNXNXNXNXNXNXNXNXNXNXNXNXNXNXNXNXNXNXNXNXNXNXNXNXNXNXNXNX",
"NXNXNXNXNXNXNXNXNXNXNXNXNXNXNXNXNXNXNXNXNXNXNXNXNXNXNXNXNXNXNXNXNXNXNXNXNXNXNXNXNXNXNXNXNXNXNXNXNXNXNXNXNXNXNXNXNXNXNXNXNXNXNXNX",
"NXNXNXNXNXNXNXNXNXNXNXNXNXNXNXNXNXNXNXNXNXNXNXNXNXNXNXNXNXNXNXNXNXNXNXNXNXNXNXNXNXNXNXNXNXNXNXNXNXNXNXNXNXNXNXNXNXNXNXNXNXNXNXNX",
"NXNXNXNXNXNXNXNXNXNXNXNXNXNXNXNXNXNXNXNXNXNXNXNXNXNXNXNXNXNXNXNXNXNXNXNXNXNXNXNXNXNXNXNXNXNXNXNXNXNXNXNXNXNXNXNXNXNXNXNXNXNXNXNX",
"NXNXNXNXNXNXNXNXNXNXNXNXNXNXNXNXNXNXNXNXNXNXNXNXNXNXNXNXNXNXNXNXNXNXNXNXNXNXNXNXNXNXNXNXNXNXNXNXNXNXNXNXNXNXNXNXNXNXNXNXNXNXNXNX",
"NXNXNXNXNXNXNXNXNXNXNXNXNXNXA.{ { { { { { { { &.-X}.{ ..`.NXNXNXNXNX$._.2X>.;XXX#.{ { { { { { { { H.NXNXNXNXNXNXNXNXNXNXNXNXNXNX",
"NXNXNXNXNXNXNXNXNXNXNXNXNXNX} , A H H H H H b : !._.H L I.NXNXNXwX/.E y.Z.~ @XM.2 n H H H H H B , =.NXNXNXNXNXNXNXNXNXNXNXNXNXNX",
"NXNXNXNXNXNXNXNXNXNXNXNXNXNX} S 9XwX7X7X7XpX].: !.jX9XfXcXNXsXsXC., tX*.B @XbXM.y ].rX7X7X7XwX-XS =.NXNXNXNXNXNXNXNXNXNXNXNXNXNX",
"NXNXNXNXNXNXNXNXNXNXNXNXNXNX} H wX*.B B B ~.+X: !./.Q iXNX8XV V y   hX*.; c #XM.y +XF.B B B 6.>XH =.NXNXNXNXNXNXNXNXNXNXNXNXNXNX",
"NXNXNXNXNXNXNXNXNXNXNXNXNXNX} H 7XB       b.+X: !.B.& y.:X-X. I Z o hX*.O   (.M.y +Xe.      Y *XH =.NXNXNXNXNXNXNXNXNXNXNXNXNXNX",
"NXNXNXNXNXNXNXNXNXNXNXNXNXNX} H 7XB       b.+X: !.B.  X -.Y.@ [.R.j %X6.q X (.M.y +Xe.      Y *XH =.NXNXNXNXNXNXNXNXNXNXNXNXNXNX",
"NXNXNXNXNXNXNXNXNXNXNXNXNXNX} H 7XB       b.+X: !.B.    , 4 @ [.sX2Xj 0.G.< (.M.y +Xe.      Y *XH =.NXNXNXNXNXNXNXNXNXNXNXNXNXNX",
"NXNXNXNXNXNXNXNXNXNXNXNXNXNX} H iX!.v.v.v.4X+X: !.9Xy.< W c.m.@.b.mX* u. X4 (.M.y +X>Xv.v.v._.5XH =.NXNXNXNXNXNXNXNXNXNXNXNXNXNX",
"NXNXNXNXNXNXNXNXNXNXNXNXNXNX} n ].+X+X+X+X+XC.: !.sX|.J d.:XcXM ^ cX* u. X4 (.M.w C.+X+X+X+X+X!.b =.NXNXNXNXNXNXNXNXNXNXNXNXNXNX",
"NXNXNXNXNXNXNXNXNXNXNXNXNXNX#.: : : : : : : : q `.F.y ,X-.m iXG | vX* 8.~.1 (.D.q : : : : : : : : 6.NXNXNXNXNXNXNXNXNXNXNXNXNXNX",
"NXNXNXNXNXNXNXNXNXNXNXNXNXNX1X!.!.!.!.!.!.!.!.(.sXpXI.R i.L.I K.$XMX* t n + (.eX`.!.!.!.!.!.!.!.!.1XNXNXNXNXNXNXNXNXNXNXNXNXNXNX",
"NXNXNXNXNXNXNXNXNXNXNXNXNXNX@XB.B.B.B.P.hXNXsXG.9X6Xm.' (.7X| ,XwXZ.+ d D @ >..XbXNX,XB.B.B._.iX_. XNXNXNXNXNXNXNXNXNXNXNXNXNXNX",
"NXNXNXNXNXNXNXNXNXNXNXNXNXNX} O 2 4 = a 1XgX[.i ].B.1 +XzXNXNXNXP.9   2.T.<   ` aXdX>.o > 4 { -XH =.NXNXNXNXNXNXNXNXNXNXNXNXNXNX",
"NXNXNXNXNXNXNXNXNXNXNXNXNXNX} M *XqXe.g 1X2.P 8XkXB.X q M.NXNXNXgX9X; ; 8 @ O ] ,XP 2 k `.7XrX5XF =.NXNXNXNXNXNXNXNXNXNXNXNXNXNX",
"NXNXNXNXNXNXNXNXNXNXNXNXNXNX} 7 &.3X=XC.dX`.f.1.<XB.* 7.%XNXNXNX@X-.f.s.s.s.s._.fXG.s.a.<.#.#.' 7 =.NXNXNXNXNXNXNXNXNXNXNXNXNXNX",
"NXNXNXNXNXNXNXNXNXNXNXNXNXNX} & n Y.yXxX:X-X/.z I.i.4 qXNXnX;X-Xr.o hXaXqXmX7X-X-X-XdXXXa   & q $ =.NXNXNXNXNXNXNXNXNXNXNXNXNXNX",
"NXNXNXNXNXNXNXNXNXNXNXNXNXNX} D 1XN ' =Xs X j yXG X 9 8XMX-X  O @ @ jX:.n yXI o     &.[.i O E @XA =.NXNXNXNXNXNXNXNXNXNXNXNXNXNX",
"NXNXNXNXNXNXNXNXNXNXNXNXNXNX} : z = 6 U T.L * b % D ~.^ P.-XX g.[.[.MX*.b eX+X:.%   5 a @ 4.F.F ; =.NXNXNXNXNXNXNXNXNXNXNXNXNXNX",
"NXNXNXNXNXNXNXNXNXNXNXNXNXNXm./ / / / O.j.M > / / #.C._ t.i.@ [.NXNXNX*.0 j.wX{.) : f G & J.I.:   =.NXNXNXNXNXNXNXNXNXNXNXNXNXNX",
"NXNXNXNXNXNXNXNXNXNXNXNXNXNXnXcXcXcXcX&Xp X h cXcXV.w 5X$.O # {.NXNXNX*.O O _.MX0Xf $.].y J.I.:   =.NXNXNXNXNXNXNXNXNXNXNXNXNXNX",
"NXNXNXNXNXNXNXNXNXNXNXNXNXNXNX'.s .XNX-Xr     * * X.6Xt o r aXH [ bXq O     # X.1Xl O #   K.I.i G.vXNXNXNXNXNXNXNXNXNXNXNXNXNXNX",
"NXNXNXNXNXNXNXNXNXNXNXNXNXNXG.4.z.wX@X6.g.g 1 u.u.5.1.s.n a cXM ^ cX* D t.u.q _ 0XD.u.u.u.<XI.4 T ^.NXNXNXNXNXNXNXNXNXNXNXNXNXNX",
"NXNXNXNXNXNXNXNXNXNXNXNXNXNXq.%.hX<X-.y P.o.!  X Xj.J `.R u  X~ 9.bXB F.sXOXd H _..X X@XdXMXI.1 y b.NXNXNXNXNXNXNXNXNXNXNXNXNXNX",
"NXNXNXNXNXNXNXNXNXNXNXNXNXNXfXsXfXQ & O 1 M.|.4 4  .;Xg $ o 9 ~.gXNXtXzX$Xg o @ 1 4 4 K <XNXU.i Z.lXNXNXNXNXNXNXNXNXNXNXNXNXNXNX",
"NXNXNXNXNXNXNXNXNXNXNXNXNXNXNXNXnX+X(.(.(.uXxX(.(.y.Q L.(.(.(.E S H cXv.M o 8.(.(.(.! ; v S %.^.sXNXNXNXNXNXNXNXNXNXNXNXNXNXNXNX",
"NXNXNXNXNXNXNXNXNXNXNXNXNXNXXXM.M.M.M.M.M.M.M.D.eX.X..M.,XfXn.t     k.w.L @ (.5XT.gXe.> I 7 g j.M.@XNXNXNXNXNXNXNXNXNXNXNXNXNXNX",
"NXNXNXNXNXNXNXNXNXNXNXNXNXNX*.2 y y y y y y w q (.bX4XG C.3Xt O     e d.J.> (.Y.L ;Xe.j |._ < : : 3.NXNXNXNXNXNXNXNXNXNXNXNXNXNX",
"NXNXNXNXNXNXNXNXNXNXNXNXNXNX} b ].+X+X+X+X+XC.: !.NXvX;XuXvXoXg     `.4.s   (.pX;XcXe.c -XqXu.-   =.NXNXNXNXNXNXNXNXNXNXNXNXNXNX",
"NXNXNXNXNXNXNXNXNXNXNXNXNXNX} H iXG.e.e.e.*X+X: !.NXNXNXNXgXa.8.I X hX*.O   ] r.r.r.C c -XQ.q.| 9 =.NXNXNXNXNXNXNXNXNXNXNXNXNXNX",
"NXNXNXNXNXNXNXNXNXNXNXNXNXNX} H 7XB       b.+X: !.rX$XxXNX8XN N.h.M }.( X   e q # a 3 c -X3...P.c =.NXNXNXNXNXNXNXNXNXNXNXNXNXNX",
"NXNXNXNXNXNXNXNXNXNXNXNXNXNX} H 7XB       b.+X: !.P.B uXNXxX=XI O.*Xc ; .   v.9.7 J.+.c -XeXF.j $ =.NXNXNXNXNXNXNXNXNXNXNXNXNXNX",
"NXNXNXNXNXNXNXNXNXNXNXNXNXNX} H 7XB       b.+X: !.B.@ P R R ^ v.x./ U.K e l.,.k 5 +X3XC.X.R j 1 <.>XNXNXNXNXNXNXNXNXNXNXNXNXNXNX",
"NXNXNXNXNXNXNXNXNXNXNXNXNXNX} H wX6.U U U ).+X: !.B.# F 7 $ W *X|.! R.K c eXA 5 ( 5X1XZ.{ >   ; ,.;XNXNXNXNXNXNXNXNXNXNXNXNXNXNX",
"NXNXNXNXNXNXNXNXNXNXNXNXNXNX} B >X>X*X*X*X5XW.: !.B., /.^ p dX0X9XsXn 2 x eXQ O.9XmXb.! -XL     % 3.NXNXNXNXNXNXNXNXNXNXNXNXNXNX",
"NXNXNXNXNXNXNXNXNXNXNXNXNXNX} , A H H H H H n : !.B.O N 7 a nX;.t.bX`.T c eX+X-XnXNX8X.XjXE       =.NXNXNXNXNXNXNXNXNXNXNXNXNXNX",
"NXNXNXNXNXNXNXNXNXNXNXNXNXNXU.*.*.*.*.*.*.*.*.2.1X:X=.*.*.a.nXN.S.nXNX!.p.hXNXNXNXNXNXNXNXH.=.=.=.E.NXNXNXNXNXNXNXNXNXNXNXNXNXNX",
"NXNXNXNXNXNXNXNXNXNXNXNXNXNXNXNXNXNXNXNXNXNXNXNXNXNXNXNXNXNXNXNXNXNXNXNXNXNXNXNXNXNXNXNXNXNXNXNXNXNXNXNXNXNXNXNXNXNXNXNXNXNXNXNX",
"NXNXNXNXNXNXNXNXNXNXNXNXNXNXNXNXNXNXNXNXNXNXNXNXNXNXNXNXNXNXNXNXNXNXNXNXNXNXNXNXNXNXNXNXNXNXNXNXNXNXNXNXNXNXNXNXNXNXNXNXNXNXNXNX",
"NXNXNXNXNXNXNXNXNXNXNXNXNXNXNXNXNXNXNXNXNXNXNXNXNXNXNXNXNXNXNXNXNXNXNXNXNXNXNXNXNXNXNXNXNXNXNXNXNXNXNXNXNXNXNXNXNXNXNXNXNXNXNXNX",
"NXNXNXNXNXNXNXNXNXNXNXNXNXNXNXNXNXNXNXNXNXNXNXNXNXNXNXNXNXNXNXNXNXNXNXNXNXNXNXNXNXNXNXNXNXNXNXNXNXNXNXNXNXNXNXNXNXNXNXNXNXNXNXNX",
"NXNXNXNXNXNXNXNXNXNXNXNXNXNXNXNXNXNXNXNXNXNXNXNXNXNXNXNXNXNXNXNXNXNXNXNXNXNXNXNXNXNXNXNXNXNXNXNXNXNXNXNXNXNXNXNXNXNXNXNXNXNXNXNX",
"NXNXNXNXNXNXNXNXNXNXNXNXNXNXNXNXNXNXNXNXNXNXNXNXNXNXNXNXNXNXNXNXNXNXNXNXNXNXNXNXNXNXNXNXNXNXNXNXNXNXNXNXNXNXNXNXNXNXNXNXNXNXNXNX",
"NXNXNXNXNXNXNXNXNXNXNXNXNXNXNXNXNXNXNXNXNXNXNXNXNXNXNXNXNXNXNXNXNXNXNXNXNXNXNXNXNXNXNXNXNXNXNXNXNXNXNXNXNXNXNXNXNXNXNXNXNXNXNXNX",
"NXNXNXNXNXNXNXNXNXNXNXNXNXNXNXNXNXNXNXNXNXNXNXNXNXNXNXNXNXNXNXNXNXNXNXNXNXNXNXNXNXNXNXNXNXNXNXNXNXNXNXNXNXNXNXNXNXNXNXNXNXNXNXNX",
"NXNXNXNXNXNXNXNXNXNXNXNXNXNXNXNXNXNXNXNXNXNXNXNXNXNXNXNXNXNXNXNXNXNXNXNXNXNXNXNXNXNXNXNXNXNXNXNXNXNXNXNXNXNXNXNXNXNXNXNXNXNXNXNX",
"NXNXNXNXNXNXNXNXNXNXNXNXNXNXNXNXNXNXNXNXNXNXNXNXNXNXNXNXNXNXNXNXNXNXNXNXNXNXNXNXNXNXNXNXNXNXNXNXNXNXNXNXNXNXNXNXNXNXNXNXNXNXNXNX",
"NXNXNXNXNXNXNXNXNXNXNXNXNXNXNXNXNXNXNXNXNXNXNXNXNXNXNXNXNXNXNXNXNXNXNXNXNXNXNXNXNXNXNXNXNXNXNXNXNXNXNXNXNXNXNXNXNXNXNXNXNXNXNXNX",
"NXNXNXNXNXNXNXNXNXNXNXNXNXNXNXNXNXNXNXNXNXNXNXNXNXNXNXNXNXNXNXNXNXNXNXNXNXNXNXNXNXNXNXNXNXNXNXNXNXNXNXNXNXNXNXNXNXNXNXNXNXNXNXNX",
"NXNXNXNXNXNXNXNXNXNXNXNXNXNXNXNXNXNXNXNXNXNXNXNXNXNXNXNXNXNXNXNXNXNXNXNXNXNXNXNXNXNXNXNXNXNXNXNXNXNXNXNXNXNXNXNXNXNXNXNXNXNXNXNX",
"NXNXNXNXNXNXNXNXNXNXNXNXNXNXNXNXNXNXNXNXNXNXNXNXNXNXNXNXNXNXNXNXNXNXNXNXNXNXNXNXNXNXNXNXNXNXNXNXNXNXNXNXNXNXNXNXNXNXNXNXNXNXNXNX"
};
